<?xml version="1.0" encoding="UTF-8" standalone="no"?>
<!DOCTYPE svg PUBLIC "-//W3C//DTD SVG 1.1//EN"
 "http://www.w3.org/Graphics/SVG/1.1/DTD/svg11.dtd">
<!-- Generated by graphviz version 2.40.1 (20161225.0304)
 -->
<!-- Title: godep Pages: 1 -->
<svg width="3028pt" height="2409pt"
 viewBox="0.00 0.00 3028.10 2409.19" xmlns="http://www.w3.org/2000/svg" xmlns:xlink="http://www.w3.org/1999/xlink">
<g id="graph0" class="graph" transform="scale(1 1) rotate(0) translate(4 2405.1903)">
<title>godep</title>
<polygon fill="#ffffff" stroke="transparent" points="-4,4 -4,-2405.1903 3024.1043,-2405.1903 3024.1043,4 -4,4"/>
<!-- _0 -->
<g id="node1" class="node">
<title>_0</title>
<ellipse fill="#afeeee" stroke="#afeeee" cx="127.7232" cy="-1237.864" rx="127.9468" ry="18"/>
<text text-anchor="middle" x="127.7232" y="-1233.664" font-family="Times,serif" font-size="14.00" fill="#000000">github.com/goreleaser/goreleaser</text>
</g>
<!-- _1 -->
<g id="node2" class="node">
<title>_1</title>
<ellipse fill="#afeeee" stroke="#afeeee" cx="2004.1858" cy="-793.864" rx="188.2669" ry="18"/>
<text text-anchor="middle" x="2004.1858" y="-789.664" font-family="Times,serif" font-size="14.00" fill="#000000">github.com/goreleaser/goreleaser/internal/pipeline</text>
</g>
<!-- _0&#45;&gt;_1 -->
<g id="edge1" class="edge">
<title>_0&#45;&gt;_1</title>
<path fill="none" stroke="#000000" d="M130.4231,-1219.8359C143.6053,-1134.4777 204.1292,-772.4082 291.4464,-707.864 423.0658,-610.572 1603.6294,-714.1529 1764.002,-746.864 1780.5272,-750.2346 1783.6433,-754.7608 1800.002,-758.864 1828.3992,-765.9868 1859.382,-772.1187 1888.4349,-777.1696"/>
<polygon fill="#000000" stroke="#000000" points="1888.1766,-780.6761 1898.6233,-778.9109 1889.3559,-773.7762 1888.1766,-780.6761"/>
</g>
<!-- _2 -->
<g id="node3" class="node">
<title>_2</title>
<ellipse fill="#afeeee" stroke="#afeeee" cx="1534.6092" cy="-1791.864" rx="216.7226" ry="18"/>
<text text-anchor="middle" x="1534.6092" y="-1787.664" font-family="Times,serif" font-size="14.00" fill="#000000">github.com/goreleaser/goreleaser/internal/pipeline/archive</text>
</g>
<!-- _0&#45;&gt;_2 -->
<g id="edge2" class="edge">
<title>_0&#45;&gt;_2</title>
<path fill="none" stroke="#000000" d="M129.8996,-1256.2008C138.1827,-1317.4077 173.4878,-1516.3049 291.4464,-1613.864 443.1093,-1739.2987 999.1478,-1776.341 1313.7741,-1787.2799"/>
<polygon fill="#000000" stroke="#000000" points="1313.8236,-1790.7836 1323.9373,-1787.6271 1314.0626,-1783.7876 1313.8236,-1790.7836"/>
</g>
<!-- _3 -->
<g id="node4" class="node">
<title>_3</title>
<ellipse fill="#afeeee" stroke="#afeeee" cx="1041.8012" cy="-733.864" rx="227.3303" ry="18"/>
<text text-anchor="middle" x="1041.8012" y="-729.664" font-family="Times,serif" font-size="14.00" fill="#000000">github.com/goreleaser/goreleaser/internal/pipeline/artifactory</text>
</g>
<!-- _0&#45;&gt;_3 -->
<g id="edge3" class="edge">
<title>_0&#45;&gt;_3</title>
<path fill="none" stroke="#000000" d="M129.237,-1219.8042C135.5633,-1156.7304 165.7602,-944.7849 291.4464,-846.864 471.2347,-706.7926 750.7073,-704.433 913.024,-717.626"/>
<polygon fill="#000000" stroke="#000000" points="912.8042,-721.1198 923.0633,-718.474 913.3934,-714.1446 912.8042,-721.1198"/>
</g>
<!-- _4 -->
<g id="node5" class="node">
<title>_4</title>
<ellipse fill="#afeeee" stroke="#afeeee" cx="534.9162" cy="-933.864" rx="213.3482" ry="18"/>
<text text-anchor="middle" x="534.9162" y="-929.664" font-family="Times,serif" font-size="14.00" fill="#000000">github.com/goreleaser/goreleaser/internal/pipeline/before</text>
</g>
<!-- _0&#45;&gt;_4 -->
<g id="edge4" class="edge">
<title>_0&#45;&gt;_4</title>
<path fill="none" stroke="#000000" d="M133.658,-1219.8228C150.2256,-1172.4834 201.7399,-1044.1456 291.4464,-982.864 314.5357,-967.0909 341.5519,-956.1648 369.0234,-948.6421"/>
<polygon fill="#000000" stroke="#000000" points="369.9514,-952.0174 378.7537,-946.1209 368.1955,-945.2412 369.9514,-952.0174"/>
</g>
<!-- _5 -->
<g id="node6" class="node">
<title>_5</title>
<ellipse fill="#afeeee" stroke="#afeeee" cx="1041.8012" cy="-809.864" rx="208.0376" ry="18"/>
<text text-anchor="middle" x="1041.8012" y="-805.664" font-family="Times,serif" font-size="14.00" fill="#000000">github.com/goreleaser/goreleaser/internal/pipeline/brew</text>
</g>
<!-- _0&#45;&gt;_5 -->
<g id="edge5" class="edge">
<title>_0&#45;&gt;_5</title>
<path fill="none" stroke="#000000" d="M130.6022,-1219.6729C140.6896,-1162.5508 180.071,-985.877 291.4464,-906.864 380.3692,-843.7795 670.2941,-861.1139 778.386,-846.864 826.266,-840.5519 878.9851,-833.2225 924.5997,-826.7602"/>
<polygon fill="#000000" stroke="#000000" points="925.112,-830.2227 934.5211,-825.3525 924.1286,-823.2921 925.112,-830.2227"/>
</g>
<!-- _6 -->
<g id="node7" class="node">
<title>_6</title>
<ellipse fill="#afeeee" stroke="#afeeee" cx="1041.8012" cy="-1883.864" rx="208.5394" ry="18"/>
<text text-anchor="middle" x="1041.8012" y="-1879.664" font-family="Times,serif" font-size="14.00" fill="#000000">github.com/goreleaser/goreleaser/internal/pipeline/build</text>
</g>
<!-- _0&#45;&gt;_6 -->
<g id="edge6" class="edge">
<title>_0&#45;&gt;_6</title>
<path fill="none" stroke="#000000" d="M129.6174,-1256.0834C139.831,-1350.4654 191.6169,-1782.4878 291.4464,-1861.864 495.6654,-2024.2423 839.3558,-1946.1107 979.4917,-1904.3314"/>
<polygon fill="#000000" stroke="#000000" points="980.6651,-1907.6332 989.225,-1901.3899 978.64,-1900.9325 980.6651,-1907.6332"/>
</g>
<!-- _7 -->
<g id="node8" class="node">
<title>_7</title>
<ellipse fill="#afeeee" stroke="#afeeee" cx="1534.6092" cy="-641.864" rx="226.863" ry="18"/>
<text text-anchor="middle" x="1534.6092" y="-637.664" font-family="Times,serif" font-size="14.00" fill="#000000">github.com/goreleaser/goreleaser/internal/pipeline/changelog</text>
</g>
<!-- _0&#45;&gt;_7 -->
<g id="edge7" class="edge">
<title>_0&#45;&gt;_7</title>
<path fill="none" stroke="#000000" d="M130.1423,-1219.6379C142.3379,-1130.7676 200.1164,-744.3081 291.4464,-673.864 370.5214,-612.8723 984.66,-623.3273 1319.137,-633.8137"/>
<polygon fill="#000000" stroke="#000000" points="1319.3361,-637.3216 1329.4417,-634.1395 1319.5574,-630.3251 1319.3361,-637.3216"/>
</g>
<!-- _8 -->
<g id="node9" class="node">
<title>_8</title>
<ellipse fill="#afeeee" stroke="#afeeee" cx="1534.6092" cy="-1145.864" rx="229.2857" ry="18"/>
<text text-anchor="middle" x="1534.6092" y="-1141.664" font-family="Times,serif" font-size="14.00" fill="#000000">github.com/goreleaser/goreleaser/internal/pipeline/checksums</text>
</g>
<!-- _0&#45;&gt;_8 -->
<g id="edge8" class="edge">
<title>_0&#45;&gt;_8</title>
<path fill="none" stroke="#000000" d="M243.7518,-1230.2766C487.1388,-1214.3609 1052.8498,-1177.3675 1347.9451,-1158.0705"/>
<polygon fill="#000000" stroke="#000000" points="1348.5771,-1161.5367 1358.3274,-1157.3915 1348.1203,-1154.5516 1348.5771,-1161.5367"/>
</g>
<!-- _9 -->
<g id="node10" class="node">
<title>_9</title>
<ellipse fill="#afeeee" stroke="#afeeee" cx="534.9162" cy="-1359.864" rx="218.6693" ry="18"/>
<text text-anchor="middle" x="534.9162" y="-1355.664" font-family="Times,serif" font-size="14.00" fill="#000000">github.com/goreleaser/goreleaser/internal/pipeline/defaults</text>
</g>
<!-- _0&#45;&gt;_9 -->
<g id="edge9" class="edge">
<title>_0&#45;&gt;_9</title>
<path fill="none" stroke="#000000" d="M170.4042,-1254.8634C203.2068,-1267.596 249.8046,-1284.9684 291.4464,-1297.864 343.6683,-1314.036 403.1149,-1329.234 450.1943,-1340.5353"/>
<polygon fill="#000000" stroke="#000000" points="449.5064,-1343.9694 460.0458,-1342.8867 451.1316,-1337.1607 449.5064,-1343.9694"/>
</g>
<!-- _10 -->
<g id="node11" class="node">
<title>_10</title>
<ellipse fill="#afeeee" stroke="#afeeee" cx="534.9162" cy="-2084.864" rx="203.2354" ry="18"/>
<text text-anchor="middle" x="534.9162" y="-2080.664" font-family="Times,serif" font-size="14.00" fill="#000000">github.com/goreleaser/goreleaser/internal/pipeline/dist</text>
</g>
<!-- _0&#45;&gt;_10 -->
<g id="edge10" class="edge">
<title>_0&#45;&gt;_10</title>
<path fill="none" stroke="#000000" d="M130.5917,-1256.0302C145.7173,-1350.2824 218.2877,-1783.5343 291.4464,-1895.864 341.7929,-1973.1673 434.749,-2032.0685 490.0904,-2062.2939"/>
<polygon fill="#000000" stroke="#000000" points="488.5052,-2065.4154 498.9695,-2067.0735 491.8231,-2059.2517 488.5052,-2065.4154"/>
</g>
<!-- _11 -->
<g id="node12" class="node">
<title>_11</title>
<ellipse fill="#afeeee" stroke="#afeeee" cx="1534.6092" cy="-1351.864" rx="214.8018" ry="18"/>
<text text-anchor="middle" x="1534.6092" y="-1347.664" font-family="Times,serif" font-size="14.00" fill="#000000">github.com/goreleaser/goreleaser/internal/pipeline/docker</text>
</g>
<!-- _0&#45;&gt;_11 -->
<g id="edge11" class="edge">
<title>_0&#45;&gt;_11</title>
<path fill="none" stroke="#000000" d="M236.9205,-1247.2785C255.1277,-1248.8261 273.8197,-1250.4014 291.4464,-1251.864 676.7481,-1283.8342 1129.3613,-1319.8567 1367.9341,-1338.7248"/>
<polygon fill="#000000" stroke="#000000" points="1367.8363,-1342.2279 1378.0811,-1339.5271 1368.3881,-1335.2496 1367.8363,-1342.2279"/>
</g>
<!-- _12 -->
<g id="node13" class="node">
<title>_12</title>
<ellipse fill="#afeeee" stroke="#afeeee" cx="534.9162" cy="-1834.864" rx="243.4397" ry="18"/>
<text text-anchor="middle" x="534.9162" y="-1830.664" font-family="Times,serif" font-size="14.00" fill="#000000">github.com/goreleaser/goreleaser/internal/pipeline/effectiveconfig</text>
</g>
<!-- _0&#45;&gt;_12 -->
<g id="edge12" class="edge">
<title>_0&#45;&gt;_12</title>
<path fill="none" stroke="#000000" d="M130.3691,-1256.1068C143.525,-1344.218 204.7376,-1724.5709 291.4464,-1799.864 300.9873,-1808.1488 311.5754,-1814.986 322.8411,-1820.5995"/>
<polygon fill="#000000" stroke="#000000" points="321.4688,-1823.821 332.0142,-1824.8434 324.408,-1817.468 321.4688,-1823.821"/>
</g>
<!-- _13 -->
<g id="node14" class="node">
<title>_13</title>
<ellipse fill="#afeeee" stroke="#afeeee" cx="1041.8012" cy="-1643.864" rx="203.2181" ry="18"/>
<text text-anchor="middle" x="1041.8012" y="-1639.664" font-family="Times,serif" font-size="14.00" fill="#000000">github.com/goreleaser/goreleaser/internal/pipeline/env</text>
</g>
<!-- _0&#45;&gt;_13 -->
<g id="edge13" class="edge">
<title>_0&#45;&gt;_13</title>
<path fill="none" stroke="#000000" d="M138.4549,-1256.0534C161.665,-1293.8968 220.2262,-1381.667 291.4464,-1430.864 473.2903,-1556.477 728.2504,-1608.4986 889.1894,-1629.7075"/>
<polygon fill="#000000" stroke="#000000" points="888.8065,-1633.187 899.173,-1630.9995 889.7049,-1626.2449 888.8065,-1633.187"/>
</g>
<!-- _14 -->
<g id="node15" class="node">
<title>_14</title>
<ellipse fill="#afeeee" stroke="#afeeee" cx="1534.6092" cy="-923.864" rx="199.8523" ry="18"/>
<text text-anchor="middle" x="1534.6092" y="-919.664" font-family="Times,serif" font-size="14.00" fill="#000000">github.com/goreleaser/goreleaser/internal/pipeline/git</text>
</g>
<!-- _0&#45;&gt;_14 -->
<g id="edge14" class="edge">
<title>_0&#45;&gt;_14</title>
<path fill="none" stroke="#000000" d="M141.1623,-1219.8682C166.5278,-1187.39 224.9236,-1119.426 291.4464,-1087.864 475.8315,-1000.3818 1056.9798,-953.0721 1354.8023,-934.0167"/>
<polygon fill="#000000" stroke="#000000" points="1355.082,-937.506 1364.8396,-933.3783 1354.6376,-930.5202 1355.082,-937.506"/>
</g>
<!-- _15 -->
<g id="node16" class="node">
<title>_15</title>
<ellipse fill="#afeeee" stroke="#afeeee" cx="1534.6092" cy="-381.864" rx="209.0154" ry="18"/>
<text text-anchor="middle" x="1534.6092" y="-377.664" font-family="Times,serif" font-size="14.00" fill="#000000">github.com/goreleaser/goreleaser/internal/pipeline/nfpm</text>
</g>
<!-- _0&#45;&gt;_15 -->
<g id="edge15" class="edge">
<title>_0&#45;&gt;_15</title>
<path fill="none" stroke="#000000" d="M129.1691,-1219.8352C137.6203,-1119.2321 184.0021,-628.3086 291.4464,-531.864 438.2827,-400.0603 1001.9618,-379.757 1317.4878,-379.0983"/>
<polygon fill="#000000" stroke="#000000" points="1317.683,-382.5981 1327.6779,-379.0837 1317.6729,-375.5981 1317.683,-382.5981"/>
</g>
<!-- _16 -->
<g id="node17" class="node">
<title>_16</title>
<ellipse fill="#afeeee" stroke="#afeeee" cx="1041.8012" cy="-334.864" rx="201.7818" ry="18"/>
<text text-anchor="middle" x="1041.8012" y="-330.664" font-family="Times,serif" font-size="14.00" fill="#000000">github.com/goreleaser/goreleaser/internal/pipeline/put</text>
</g>
<!-- _0&#45;&gt;_16 -->
<g id="edge16" class="edge">
<title>_0&#45;&gt;_16</title>
<path fill="none" stroke="#000000" d="M128.762,-1219.566C135.2758,-1111.6243 174.084,-558.9561 291.4464,-447.864 468.1516,-280.5996 780.4514,-295.8681 940.7156,-317.3504"/>
<polygon fill="#000000" stroke="#000000" points="940.6652,-320.8764 951.049,-318.7725 941.6196,-313.9418 940.6652,-320.8764"/>
</g>
<!-- _17 -->
<g id="node18" class="node">
<title>_17</title>
<ellipse fill="#afeeee" stroke="#afeeee" cx="1041.8012" cy="-1405.864" rx="215.269" ry="18"/>
<text text-anchor="middle" x="1041.8012" y="-1401.664" font-family="Times,serif" font-size="14.00" fill="#000000">github.com/goreleaser/goreleaser/internal/pipeline/release</text>
</g>
<!-- _0&#45;&gt;_17 -->
<g id="edge17" class="edge">
<title>_0&#45;&gt;_17</title>
<path fill="none" stroke="#000000" d="M140.4655,-1255.9897C165.1136,-1289.3033 222.9694,-1359.3677 291.4464,-1386.864 512.0574,-1475.4484 799.3016,-1447.426 946.174,-1424.005"/>
<polygon fill="#000000" stroke="#000000" points="946.7626,-1427.4553 956.0732,-1422.3993 945.6418,-1420.5456 946.7626,-1427.4553"/>
</g>
<!-- _18 -->
<g id="node19" class="node">
<title>_18</title>
<ellipse fill="#afeeee" stroke="#afeeee" cx="1534.6092" cy="-1535.864" rx="198.4073" ry="18"/>
<text text-anchor="middle" x="1534.6092" y="-1531.664" font-family="Times,serif" font-size="14.00" fill="#000000">github.com/goreleaser/goreleaser/internal/pipeline/s3</text>
</g>
<!-- _0&#45;&gt;_18 -->
<g id="edge18" class="edge">
<title>_0&#45;&gt;_18</title>
<path fill="none" stroke="#000000" d="M132.3263,-1256.2088C146.4185,-1308.4603 194.055,-1459.1671 291.4464,-1534.864 481.0575,-1682.2381 576.1778,-1640.3956 814.386,-1670.864 1014.8993,-1696.511 1105.8641,-1789.9412 1269.2163,-1670.864 1311.468,-1640.0642 1264.5557,-1591.7356 1305.2163,-1558.864 1312.7819,-1552.7477 1320.9788,-1547.5855 1329.619,-1543.2514"/>
<polygon fill="#000000" stroke="#000000" points="1331.16,-1546.395 1338.7755,-1539.0292 1328.2288,-1540.0383 1331.16,-1546.395"/>
</g>
<!-- _19 -->
<g id="node20" class="node">
<title>_19</title>
<ellipse fill="#afeeee" stroke="#afeeee" cx="1041.8012" cy="-1237.864" rx="211.4448" ry="18"/>
<text text-anchor="middle" x="1041.8012" y="-1233.664" font-family="Times,serif" font-size="14.00" fill="#000000">github.com/goreleaser/goreleaser/internal/pipeline/scoop</text>
</g>
<!-- _0&#45;&gt;_19 -->
<g id="edge19" class="edge">
<title>_0&#45;&gt;_19</title>
<path fill="none" stroke="#000000" d="M255.7843,-1237.864C401.8259,-1237.864 643.2023,-1237.864 820.0069,-1237.864"/>
<polygon fill="#000000" stroke="#000000" points="820.2294,-1241.3641 830.2294,-1237.864 820.2294,-1234.3641 820.2294,-1241.3641"/>
</g>
<!-- _20 -->
<g id="node21" class="node">
<title>_20</title>
<ellipse fill="#afeeee" stroke="#afeeee" cx="1534.6092" cy="-977.864" rx="205.1649" ry="18"/>
<text text-anchor="middle" x="1534.6092" y="-973.664" font-family="Times,serif" font-size="14.00" fill="#000000">github.com/goreleaser/goreleaser/internal/pipeline/sign</text>
</g>
<!-- _0&#45;&gt;_20 -->
<g id="edge20" class="edge">
<title>_0&#45;&gt;_20</title>
<path fill="none" stroke="#000000" d="M180.0834,-1221.3446C212.0434,-1211.6343 253.8544,-1199.5912 291.4464,-1190.864 737.279,-1087.3608 853.2022,-1081.7166 1305.2163,-1009.864 1339.3727,-1004.4345 1376.4714,-999.0412 1410.6798,-994.2727"/>
<polygon fill="#000000" stroke="#000000" points="1411.2961,-997.7208 1420.7201,-992.8793 1410.3339,-990.7872 1411.2961,-997.7208"/>
</g>
<!-- _21 -->
<g id="node22" class="node">
<title>_21</title>
<ellipse fill="#afeeee" stroke="#afeeee" cx="1534.6092" cy="-587.864" rx="222.9955" ry="18"/>
<text text-anchor="middle" x="1534.6092" y="-583.664" font-family="Times,serif" font-size="14.00" fill="#000000">github.com/goreleaser/goreleaser/internal/pipeline/snapcraft</text>
</g>
<!-- _0&#45;&gt;_21 -->
<g id="edge21" class="edge">
<title>_0&#45;&gt;_21</title>
<path fill="none" stroke="#000000" d="M129.6881,-1219.5632C140.1661,-1125.7284 192.7206,-699.9483 291.4464,-621.864 459.1709,-489.2072 1111.6632,-541.4885 1398.2889,-571.9309"/>
<polygon fill="#000000" stroke="#000000" points="1398.0139,-575.4213 1408.3293,-573.0042 1398.758,-568.461 1398.0139,-575.4213"/>
</g>
<!-- _22 -->
<g id="node23" class="node">
<title>_22</title>
<ellipse fill="#afeeee" stroke="#afeeee" cx="2835.421" cy="-1609.864" rx="168.0221" ry="18"/>
<text text-anchor="middle" x="2835.421" y="-1605.664" font-family="Times,serif" font-size="14.00" fill="#000000">github.com/goreleaser/goreleaser/pkg/config</text>
</g>
<!-- _0&#45;&gt;_22 -->
<g id="edge22" class="edge">
<title>_0&#45;&gt;_22</title>
<path fill="none" stroke="#000000" d="M128.0392,-1255.9003C130.5415,-1377.1962 150.9513,-2073.5757 291.4464,-2217.864 528.4617,-2461.2784 702.0559,-2363.864 1041.8012,-2363.864 1041.8012,-2363.864 1041.8012,-2363.864 2004.1858,-2363.864 2276.7639,-2363.864 2402.6568,-2477.0962 2614.7378,-2305.864 2724.3675,-2217.35 2810.0133,-1757.703 2830.6569,-1638.2547"/>
<polygon fill="#000000" stroke="#000000" points="2834.1605,-1638.5314 2832.399,-1628.0841 2827.2609,-1637.3496 2834.1605,-1638.5314"/>
</g>
<!-- _23 -->
<g id="node24" class="node">
<title>_23</title>
<ellipse fill="#afeeee" stroke="#afeeee" cx="2429.5537" cy="-1404.864" rx="171.8638" ry="18"/>
<text text-anchor="middle" x="2429.5537" y="-1400.664" font-family="Times,serif" font-size="14.00" fill="#000000">github.com/goreleaser/goreleaser/pkg/context</text>
</g>
<!-- _0&#45;&gt;_23 -->
<g id="edge23" class="edge">
<title>_0&#45;&gt;_23</title>
<path fill="none" stroke="#000000" d="M128.5079,-1256.0552C133.7828,-1369.7845 167.7154,-1982.4087 291.4464,-2111.864 528.1234,-2359.4907 699.2593,-2287.864 1041.8012,-2287.864 1041.8012,-2287.864 1041.8012,-2287.864 1534.6092,-2287.864 1835.3644,-2287.864 1993.2592,-2435.0574 2208.3695,-2224.864 2257.6566,-2176.7036 2228.5453,-1983.9329 2244.3695,-1916.864 2289.4477,-1725.8056 2383.2577,-1507.7861 2417.0678,-1432.2844"/>
<polygon fill="#000000" stroke="#000000" points="2420.3374,-1433.5476 2421.2491,-1422.992 2413.9538,-1430.6751 2420.3374,-1433.5476"/>
</g>
<!-- _2&#45;&gt;_23 -->
<g id="edge40" class="edge">
<title>_2&#45;&gt;_23</title>
<path fill="none" stroke="#000000" d="M1662.1861,-1806.4644C1833.8433,-1823.2099 2127.0633,-1840.6937 2208.3695,-1775.864 2259.2758,-1735.2738 2215.2235,-1692.0836 2244.3695,-1633.864 2286.1055,-1550.4958 2362.338,-1469.7091 2402.7501,-1430.1226"/>
<polygon fill="#000000" stroke="#000000" points="2405.5931,-1432.241 2410.3341,-1422.7661 2400.7193,-1427.2165 2405.5931,-1432.241"/>
</g>
<!-- _24 -->
<g id="node25" class="node">
<title>_24</title>
<ellipse fill="#afeeee" stroke="#afeeee" cx="2835.421" cy="-1102.864" rx="184.8667" ry="18"/>
<text text-anchor="middle" x="2835.421" y="-1098.664" font-family="Times,serif" font-size="14.00" fill="#000000">github.com/goreleaser/goreleaser/internal/artifact</text>
</g>
<!-- _2&#45;&gt;_24 -->
<g id="edge37" class="edge">
<title>_2&#45;&gt;_24</title>
<path fill="none" stroke="#000000" d="M1602.771,-1808.9732C1726.9138,-1836.9019 1996.6045,-1882.5635 2208.3695,-1812.864 2421.6092,-1742.6792 2467.6717,-1682.4772 2614.7378,-1512.864 2723.2569,-1387.7074 2799.4475,-1200.2081 2825.5311,-1130.3694"/>
<polygon fill="#000000" stroke="#000000" points="2828.8321,-1131.5338 2829.0138,-1120.9405 2822.2657,-1129.1084 2828.8321,-1131.5338"/>
</g>
<!-- _26 -->
<g id="node27" class="node">
<title>_26</title>
<ellipse fill="#afeeee" stroke="#afeeee" cx="2004.1858" cy="-1221.864" rx="175.7228" ry="18"/>
<text text-anchor="middle" x="2004.1858" y="-1217.664" font-family="Times,serif" font-size="14.00" fill="#000000">github.com/goreleaser/goreleaser/internal/tmpl</text>
</g>
<!-- _2&#45;&gt;_26 -->
<g id="edge38" class="edge">
<title>_2&#45;&gt;_26</title>
<path fill="none" stroke="#000000" d="M1560.1492,-1773.9462C1604.9039,-1741.7475 1698.9217,-1670.4707 1764.002,-1595.864 1866.5319,-1478.3258 1956.8843,-1313.2457 1990.373,-1248.9683"/>
<polygon fill="#000000" stroke="#000000" points="1993.5855,-1250.3759 1995.0748,-1239.8863 1987.3691,-1247.1577 1993.5855,-1250.3759"/>
</g>
<!-- _33 -->
<g id="node34" class="node">
<title>_33</title>
<ellipse fill="#afeeee" stroke="#afeeee" cx="2004.1858" cy="-1997.864" rx="171.8465" ry="18"/>
<text text-anchor="middle" x="2004.1858" y="-1993.664" font-family="Times,serif" font-size="14.00" fill="#000000">github.com/goreleaser/goreleaser/pkg/archive</text>
</g>
<!-- _2&#45;&gt;_33 -->
<g id="edge39" class="edge">
<title>_2&#45;&gt;_33</title>
<path fill="none" stroke="#000000" d="M1555.2309,-1809.9342C1597.7226,-1846.0784 1699.4983,-1927.126 1800.002,-1965.864 1820.253,-1973.6695 1842.3332,-1979.573 1864.2475,-1984.0375"/>
<polygon fill="#000000" stroke="#000000" points="1863.8136,-1987.5185 1874.2975,-1985.9891 1865.1481,-1980.6469 1863.8136,-1987.5185"/>
</g>
<!-- _3&#45;&gt;_1 -->
<g id="edge42" class="edge">
<title>_3&#45;&gt;_1</title>
<path fill="none" stroke="#000000" d="M1220.6192,-744.999C1366.7691,-754.1014 1578.7508,-767.3079 1764.002,-778.864 1787.4575,-780.3272 1812.2015,-781.8716 1836.5352,-783.3908"/>
<polygon fill="#000000" stroke="#000000" points="1836.3667,-786.887 1846.5654,-784.0171 1836.8029,-779.9006 1836.3667,-786.887"/>
</g>
<!-- _3&#45;&gt;_23 -->
<g id="edge43" class="edge">
<title>_3&#45;&gt;_23</title>
<path fill="none" stroke="#000000" d="M1093.1308,-716.3151C1144.0809,-696.5186 1221.3064,-659.7479 1269.2163,-604.864 1297.5476,-572.4088 1269.5421,-539.0166 1305.2163,-514.864 1474.0632,-400.5491 1568.8464,-455.7756 1764.002,-514.864 1782.4065,-520.4364 1782.1447,-531.7301 1800.002,-538.864 1971.0751,-607.2072 2085.3547,-472.7358 2208.3695,-609.864 2250.3011,-656.6064 2221.6769,-1115.3136 2244.3695,-1173.864 2278.2062,-1261.1677 2357.6533,-1341.1888 2400.6681,-1380.0867"/>
<polygon fill="#000000" stroke="#000000" points="2398.4667,-1382.8133 2408.2568,-1386.8637 2403.1294,-1377.5922 2398.4667,-1382.8133"/>
</g>
<!-- _30 -->
<g id="node31" class="node">
<title>_30</title>
<ellipse fill="#afeeee" stroke="#afeeee" cx="1534.6092" cy="-327.864" rx="173.3088" ry="18"/>
<text text-anchor="middle" x="1534.6092" y="-323.664" font-family="Times,serif" font-size="14.00" fill="#000000">github.com/goreleaser/goreleaser/internal/http</text>
</g>
<!-- _3&#45;&gt;_30 -->
<g id="edge41" class="edge">
<title>_3&#45;&gt;_30</title>
<path fill="none" stroke="#000000" d="M1048.2134,-715.5175C1071.3038,-652.5014 1156.7888,-443.8943 1305.2163,-354.864 1320.4492,-345.727 1337.2787,-338.9436 1354.6962,-333.9729"/>
<polygon fill="#000000" stroke="#000000" points="1355.6569,-337.3392 1364.4267,-331.3944 1353.8638,-330.5727 1355.6569,-337.3392"/>
</g>
<!-- _4&#45;&gt;_23 -->
<g id="edge44" class="edge">
<title>_4&#45;&gt;_23</title>
<path fill="none" stroke="#000000" d="M687.7434,-921.2838C1090.1705,-888.916 2152.1521,-808.7055 2208.3695,-858.864 2260.9416,-905.7701 2217.2724,-1108.8275 2244.3695,-1173.864 2280.4731,-1260.517 2359.3134,-1341.1 2401.5379,-1380.1715"/>
<polygon fill="#000000" stroke="#000000" points="2399.2362,-1382.8095 2408.9775,-1386.976 2403.9607,-1377.6442 2399.2362,-1382.8095"/>
</g>
<!-- _5&#45;&gt;_1 -->
<g id="edge47" class="edge">
<title>_5&#45;&gt;_1</title>
<path fill="none" stroke="#000000" d="M1178.7229,-796.2505C1219.3912,-792.7961 1264.0649,-789.5795 1305.2163,-787.864 1508.9441,-779.3713 1560.1132,-785.3177 1764.002,-787.864 1779.8903,-788.0624 1796.3683,-788.3346 1812.9089,-788.6543"/>
<polygon fill="#000000" stroke="#000000" points="1813.1434,-792.1596 1823.2111,-788.8593 1813.2827,-785.161 1813.1434,-792.1596"/>
</g>
<!-- _5&#45;&gt;_22 -->
<g id="edge49" class="edge">
<title>_5&#45;&gt;_22</title>
<path fill="none" stroke="#000000" d="M1207.9145,-799.004C1231.0231,-790.8579 1252.526,-778.7102 1269.2163,-760.864 1344.6929,-680.1604 1221.6169,-587.1198 1305.2163,-514.864 1459.4847,-381.5283 1568.8464,-455.7756 1764.002,-514.864 1782.4065,-520.4364 1782.1109,-531.8152 1800.002,-538.864 1971.123,-606.2832 2075.6522,-478.5303 2208.3695,-605.864 2265.3544,-660.5373 2212.7886,-707.4825 2244.3695,-779.864 2323.8172,-961.9531 2718.8425,-1463.4504 2814.5236,-1583.6993"/>
<polygon fill="#000000" stroke="#000000" points="2811.9191,-1586.0471 2820.8869,-1591.6888 2817.3946,-1581.6861 2811.9191,-1586.0471"/>
</g>
<!-- _5&#45;&gt;_23 -->
<g id="edge50" class="edge">
<title>_5&#45;&gt;_23</title>
<path fill="none" stroke="#000000" d="M1206.5442,-798.82C1230.0421,-790.7332 1252.0252,-778.652 1269.2163,-760.864 1331.9814,-695.9195 1235.926,-618.7957 1305.2163,-560.864 1383.4329,-495.4694 1673.0391,-514.8201 1764.002,-560.864 1788.1127,-573.0684 1777.0467,-595.6048 1800.002,-609.864 1956.5536,-707.1092 2084.8295,-545.1054 2208.3695,-681.864 2281.8554,-763.2127 2204.2782,-1071.8323 2244.3695,-1173.864 2278.6116,-1261.0095 2357.8872,-1341.0975 2400.7693,-1380.0472"/>
<polygon fill="#000000" stroke="#000000" points="2398.553,-1382.7609 2408.3338,-1386.8337 2403.2276,-1377.5505 2398.553,-1382.7609"/>
</g>
<!-- _5&#45;&gt;_24 -->
<g id="edge45" class="edge">
<title>_5&#45;&gt;_24</title>
<path fill="none" stroke="#000000" d="M1210.969,-799.2394C1233.1744,-790.9745 1253.6002,-778.7287 1269.2163,-760.864 1336.698,-683.6656 1246.0365,-384.5965 1305.2163,-300.864 1475.55,-59.8617 2385.1059,105.5136 2614.7378,-79.864 2776.2775,-210.272 2825.2696,-923.0907 2833.9235,-1074.5612"/>
<polygon fill="#000000" stroke="#000000" points="2830.4464,-1075.071 2834.4985,-1084.8603 2837.4355,-1074.6807 2830.4464,-1075.071"/>
</g>
<!-- _5&#45;&gt;_26 -->
<g id="edge48" class="edge">
<title>_5&#45;&gt;_26</title>
<path fill="none" stroke="#000000" d="M1048.4764,-828.1328C1072.1281,-889.8768 1158.4858,-1091.4578 1305.2163,-1172.864 1497.9124,-1279.772 1767.8933,-1259.9142 1909.2918,-1239.1636"/>
<polygon fill="#000000" stroke="#000000" points="1909.8776,-1242.615 1919.2475,-1237.6698 1908.8388,-1235.6925 1909.8776,-1242.615"/>
</g>
<!-- _28 -->
<g id="node29" class="node">
<title>_28</title>
<ellipse fill="#afeeee" stroke="#afeeee" cx="1534.6092" cy="-1405.864" rx="179.0801" ry="18"/>
<text text-anchor="middle" x="1534.6092" y="-1401.664" font-family="Times,serif" font-size="14.00" fill="#000000">github.com/goreleaser/goreleaser/internal/client</text>
</g>
<!-- _5&#45;&gt;_28 -->
<g id="edge46" class="edge">
<title>_5&#45;&gt;_28</title>
<path fill="none" stroke="#000000" d="M1054.8459,-828.0484C1093.6167,-882.96 1209.1753,-1053.0257 1269.2163,-1210.864 1296.366,-1282.2363 1248.745,-1327.4627 1305.2163,-1378.864 1317.3112,-1389.873 1331.3746,-1398.0594 1346.4724,-1404.0432"/>
<polygon fill="#000000" stroke="#000000" points="1345.4039,-1407.3787 1355.9982,-1407.4899 1347.7857,-1400.7963 1345.4039,-1407.3787"/>
</g>
<!-- _6&#45;&gt;_22 -->
<g id="edge55" class="edge">
<title>_6&#45;&gt;_22</title>
<path fill="none" stroke="#000000" d="M1052.7873,-1901.9062C1084.6535,-1952.5025 1182.686,-2096.314 1305.2163,-2161.864 1562.4026,-2299.4509 2377.2834,-2420.2463 2614.7378,-2250.864 2720.6707,-2175.2994 2808.2465,-1752.0561 2830.1459,-1638.116"/>
<polygon fill="#000000" stroke="#000000" points="2833.6251,-1638.5555 2832.0586,-1628.0772 2826.7488,-1637.2454 2833.6251,-1638.5555"/>
</g>
<!-- _6&#45;&gt;_23 -->
<g id="edge56" class="edge">
<title>_6&#45;&gt;_23</title>
<path fill="none" stroke="#000000" d="M1250.8011,-1883.6779C1575.6614,-1882.6004 2168.8549,-1877.1561 2208.3695,-1851.864 2361.5635,-1753.8091 2412.2763,-1515.6901 2425.5426,-1433.3998"/>
<polygon fill="#000000" stroke="#000000" points="2429.0373,-1433.7028 2427.1089,-1423.285 2422.1197,-1432.6315 2429.0373,-1433.7028"/>
</g>
<!-- _25 -->
<g id="node26" class="node">
<title>_25</title>
<ellipse fill="#afeeee" stroke="#afeeee" cx="1534.6092" cy="-2085.864" rx="214.8277" ry="18"/>
<text text-anchor="middle" x="1534.6092" y="-2081.664" font-family="Times,serif" font-size="14.00" fill="#000000">github.com/goreleaser/goreleaser/internal/builders/golang</text>
</g>
<!-- _6&#45;&gt;_25 -->
<g id="edge51" class="edge">
<title>_6&#45;&gt;_25</title>
<path fill="none" stroke="#000000" d="M1062.5963,-1901.9224C1104.9675,-1937.6054 1205.7303,-2016.8868 1305.2163,-2053.864 1325.318,-2061.3354 1346.9999,-2067.0826 1368.7313,-2071.4998"/>
<polygon fill="#000000" stroke="#000000" points="1368.2303,-2074.9678 1378.714,-2073.4371 1369.564,-2068.096 1368.2303,-2074.9678"/>
</g>
<!-- _6&#45;&gt;_26 -->
<g id="edge53" class="edge">
<title>_6&#45;&gt;_26</title>
<path fill="none" stroke="#000000" d="M1081.0213,-1866.005C1132.4389,-1842.6242 1225.472,-1800.431 1305.2163,-1764.864 1508.6895,-1674.1123 1591.6006,-1703.9843 1764.002,-1562.864 1876.7615,-1470.564 1960.6585,-1312.6659 1991.394,-1249.3324"/>
<polygon fill="#000000" stroke="#000000" points="1994.6991,-1250.5345 1995.8666,-1240.0042 1988.3871,-1247.508 1994.6991,-1250.5345"/>
</g>
<!-- _27 -->
<g id="node28" class="node">
<title>_27</title>
<ellipse fill="#afeeee" stroke="#afeeee" cx="2004.1858" cy="-2165.864" rx="164.1632" ry="18"/>
<text text-anchor="middle" x="2004.1858" y="-2161.664" font-family="Times,serif" font-size="14.00" fill="#000000">github.com/goreleaser/goreleaser/pkg/build</text>
</g>
<!-- _6&#45;&gt;_27 -->
<g id="edge54" class="edge">
<title>_6&#45;&gt;_27</title>
<path fill="none" stroke="#000000" d="M1055.6104,-1902.1396C1091.1171,-1947.517 1190.8686,-2065.1037 1305.2163,-2112.864 1493.1524,-2191.3605 1734.0906,-2189.875 1878.411,-2179.435"/>
<polygon fill="#000000" stroke="#000000" points="1878.9227,-2182.9066 1888.6331,-2178.6689 1878.3994,-2175.9262 1878.9227,-2182.9066"/>
</g>
<!-- _31 -->
<g id="node32" class="node">
<title>_31</title>
<ellipse fill="#afeeee" stroke="#afeeee" cx="2004.1858" cy="-1167.864" rx="204.3677" ry="18"/>
<text text-anchor="middle" x="2004.1858" y="-1163.664" font-family="Times,serif" font-size="14.00" fill="#000000">github.com/goreleaser/goreleaser/internal/semerrgroup</text>
</g>
<!-- _6&#45;&gt;_31 -->
<g id="edge52" class="edge">
<title>_6&#45;&gt;_31</title>
<path fill="none" stroke="#000000" d="M1071.84,-1866.0426C1122.5411,-1834.1262 1223.9859,-1761.9509 1269.2163,-1670.864 1303.5973,-1601.6264 1254.5077,-1383.2124 1305.2163,-1324.864 1443.038,-1166.2783 1565.2939,-1279.1234 1764.002,-1210.864 1780.5613,-1205.1756 1783.1501,-1199.616 1800.002,-1194.864 1817.2865,-1189.9901 1835.6478,-1185.9893 1853.9983,-1182.7067"/>
<polygon fill="#000000" stroke="#000000" points="1854.6233,-1186.1507 1863.8849,-1181.0055 1853.4362,-1179.2521 1854.6233,-1186.1507"/>
</g>
<!-- _7&#45;&gt;_1 -->
<g id="edge58" class="edge">
<title>_7&#45;&gt;_1</title>
<path fill="none" stroke="#000000" d="M1724.6543,-651.786C1738.7536,-657.3845 1752.0947,-664.6123 1764.002,-673.864 1797.3709,-699.7907 1766.8527,-735.657 1800.002,-761.864 1809.8855,-769.6777 1820.8991,-775.9499 1832.5468,-780.9565"/>
<polygon fill="#000000" stroke="#000000" points="1831.4284,-784.278 1842.0146,-784.7057 1834.0056,-777.7697 1831.4284,-784.278"/>
</g>
<!-- _7&#45;&gt;_23 -->
<g id="edge59" class="edge">
<title>_7&#45;&gt;_23</title>
<path fill="none" stroke="#000000" d="M1715.7155,-652.8233C1732.7017,-658.0224 1749.1095,-664.8825 1764.002,-673.864 1787.4507,-688.0057 1776.3184,-710.1194 1800.002,-723.864 1878.9243,-769.6662 2144.3866,-701.8043 2208.3695,-766.864 2272.0351,-831.6011 2210.5233,-1089.6106 2244.3695,-1173.864 2279.2722,-1260.747 2358.2682,-1340.9461 2400.9342,-1379.9817"/>
<polygon fill="#000000" stroke="#000000" points="2398.6938,-1382.6745 2408.4593,-1386.7838 2403.3878,-1377.4816 2398.6938,-1382.6745"/>
</g>
<!-- _29 -->
<g id="node30" class="node">
<title>_29</title>
<ellipse fill="#afeeee" stroke="#afeeee" cx="2004.1858" cy="-885.864" rx="168.9653" ry="18"/>
<text text-anchor="middle" x="2004.1858" y="-881.664" font-family="Times,serif" font-size="14.00" fill="#000000">github.com/goreleaser/goreleaser/internal/git</text>
</g>
<!-- _7&#45;&gt;_29 -->
<g id="edge57" class="edge">
<title>_7&#45;&gt;_29</title>
<path fill="none" stroke="#000000" d="M1556.6921,-660.0104C1600.5855,-695.3151 1702.9557,-773.8905 1800.002,-820.864 1839.9774,-840.2134 1887.0729,-855.6517 1925.9542,-866.6188"/>
<polygon fill="#000000" stroke="#000000" points="1925.0812,-870.0087 1935.653,-869.3104 1926.9531,-863.2637 1925.0812,-870.0087"/>
</g>
<!-- _8&#45;&gt;_23 -->
<g id="edge63" class="edge">
<title>_8&#45;&gt;_23</title>
<path fill="none" stroke="#000000" d="M1670.4155,-1131.3025C1839.2301,-1115.5225 2116.3507,-1097.9128 2208.3695,-1140.864 2236.0464,-1153.7826 2360.4463,-1314.2584 2409.5391,-1378.5163"/>
<polygon fill="#000000" stroke="#000000" points="2406.8328,-1380.7394 2415.6806,-1386.5676 2412.3984,-1376.4939 2406.8328,-1380.7394"/>
</g>
<!-- _8&#45;&gt;_24 -->
<g id="edge60" class="edge">
<title>_8&#45;&gt;_24</title>
<path fill="none" stroke="#000000" d="M1632.2942,-1129.5675C1682.2953,-1122.0015 1744.2293,-1113.8189 1800.002,-1109.864 2096.6161,-1088.8307 2442.2179,-1092.0564 2649.6584,-1096.9726"/>
<polygon fill="#000000" stroke="#000000" points="2649.6569,-1100.4735 2659.7383,-1097.2154 2649.8255,-1093.4755 2649.6569,-1100.4735"/>
</g>
<!-- _8&#45;&gt;_26 -->
<g id="edge62" class="edge">
<title>_8&#45;&gt;_26</title>
<path fill="none" stroke="#000000" d="M1619.28,-1162.6376C1671.3047,-1172.6597 1739.3785,-1185.2657 1800.002,-1194.864 1826.2295,-1199.0165 1854.4228,-1203.0319 1881.2342,-1206.6403"/>
<polygon fill="#000000" stroke="#000000" points="1881.06,-1210.1481 1891.4353,-1208.0028 1881.9867,-1203.2097 1881.06,-1210.1481"/>
</g>
<!-- _8&#45;&gt;_31 -->
<g id="edge61" class="edge">
<title>_8&#45;&gt;_31</title>
<path fill="none" stroke="#000000" d="M1731.7109,-1155.0984C1758.7512,-1156.3652 1786.4762,-1157.6642 1813.4006,-1158.9256"/>
<polygon fill="#000000" stroke="#000000" points="1813.5244,-1162.4351 1823.6773,-1159.4071 1813.8521,-1155.4428 1813.5244,-1162.4351"/>
</g>
<!-- _9&#45;&gt;_2 -->
<g id="edge64" class="edge">
<title>_9&#45;&gt;_2</title>
<path fill="none" stroke="#000000" d="M545.1615,-1378.0061C577.0238,-1432.5751 680.3246,-1596.0407 814.386,-1670.864 908.2411,-1723.247 1193.683,-1759.3182 1375.7753,-1777.7074"/>
<polygon fill="#000000" stroke="#000000" points="1375.6908,-1781.2164 1385.9901,-1778.7314 1376.3891,-1774.2513 1375.6908,-1781.2164"/>
</g>
<!-- _9&#45;&gt;_3 -->
<g id="edge65" class="edge">
<title>_9&#45;&gt;_3</title>
<path fill="none" stroke="#000000" d="M549.3455,-1341.6026C591.6031,-1287.1655 716.0235,-1119.8915 778.386,-960.864 807.8528,-885.7223 757.676,-840.2969 814.386,-782.864 828.7741,-768.2925 846.3837,-757.5709 865.3744,-749.7458"/>
<polygon fill="#000000" stroke="#000000" points="866.7151,-752.9803 874.7999,-746.1329 864.2096,-746.444 866.7151,-752.9803"/>
</g>
<!-- _9&#45;&gt;_5 -->
<g id="edge66" class="edge">
<title>_9&#45;&gt;_5</title>
<path fill="none" stroke="#000000" d="M551.493,-1341.8772C626.0903,-1260.9347 930.8126,-930.2932 1018.2461,-835.4226"/>
<polygon fill="#000000" stroke="#000000" points="1020.8916,-837.7167 1025.0949,-827.9913 1015.7442,-832.9727 1020.8916,-837.7167"/>
</g>
<!-- _9&#45;&gt;_6 -->
<g id="edge67" class="edge">
<title>_9&#45;&gt;_6</title>
<path fill="none" stroke="#000000" d="M544.4205,-1378.1318C576.0441,-1437.5854 683.1835,-1628.6392 814.386,-1748.864 868.2905,-1798.2582 943.1247,-1838.4368 991.9951,-1861.7533"/>
<polygon fill="#000000" stroke="#000000" points="990.5701,-1864.9509 1001.1079,-1866.0493 993.5551,-1858.6192 990.5701,-1864.9509"/>
</g>
<!-- _9&#45;&gt;_8 -->
<g id="edge68" class="edge">
<title>_9&#45;&gt;_8</title>
<path fill="none" stroke="#000000" d="M695.5252,-1347.6201C897.823,-1330.8958 1224.5672,-1299.0579 1269.2163,-1264.864 1302.4392,-1239.4208 1272.1204,-1203.472 1305.2163,-1177.864 1314.3788,-1170.7745 1324.3843,-1164.8755 1334.9271,-1159.9887"/>
<polygon fill="#000000" stroke="#000000" points="1336.5174,-1163.1148 1344.3226,-1155.9504 1333.7531,-1156.6837 1336.5174,-1163.1148"/>
</g>
<!-- _9&#45;&gt;_11 -->
<g id="edge69" class="edge">
<title>_9&#45;&gt;_11</title>
<path fill="none" stroke="#000000" d="M752.7593,-1358.1207C917.761,-1356.8003 1143.6997,-1354.9922 1310.2722,-1353.6593"/>
<polygon fill="#000000" stroke="#000000" points="1310.6841,-1357.1562 1320.6557,-1353.5762 1310.628,-1350.1564 1310.6841,-1357.1562"/>
</g>
<!-- _9&#45;&gt;_13 -->
<g id="edge70" class="edge">
<title>_9&#45;&gt;_13</title>
<path fill="none" stroke="#000000" d="M572.9438,-1377.6688C625.6561,-1404.0822 720.9138,-1458.3257 778.386,-1529.864 804.5943,-1562.4866 781.0303,-1591.5954 814.386,-1616.864 823.0605,-1623.4353 832.4798,-1628.9101 842.3854,-1633.4477"/>
<polygon fill="#000000" stroke="#000000" points="841.0385,-1636.6782 851.6117,-1637.356 843.7689,-1630.2327 841.0385,-1636.6782"/>
</g>
<!-- _9&#45;&gt;_15 -->
<g id="edge71" class="edge">
<title>_9&#45;&gt;_15</title>
<path fill="none" stroke="#000000" d="M549.7908,-1341.7697C593.2733,-1287.7923 720.722,-1121.6549 778.386,-960.864 816.8755,-853.5399 748.0612,-799.6051 814.386,-706.864 946.2736,-522.4475 1104.4624,-631.6199 1269.2163,-475.864 1292.3709,-453.974 1278.7689,-431.636 1305.2163,-413.864 1317.2158,-405.8007 1330.3694,-399.371 1344.1162,-394.2752"/>
<polygon fill="#000000" stroke="#000000" points="1345.4123,-397.5305 1353.7211,-390.9568 1343.1263,-390.9143 1345.4123,-397.5305"/>
</g>
<!-- _9&#45;&gt;_17 -->
<g id="edge73" class="edge">
<title>_9&#45;&gt;_17</title>
<path fill="none" stroke="#000000" d="M681.8687,-1373.2C745.6937,-1378.9921 820.5318,-1385.7837 885.386,-1391.6693"/>
<polygon fill="#000000" stroke="#000000" points="885.4304,-1395.1876 895.7058,-1392.6058 886.0631,-1388.2162 885.4304,-1395.1876"/>
</g>
<!-- _9&#45;&gt;_18 -->
<g id="edge74" class="edge">
<title>_9&#45;&gt;_18</title>
<path fill="none" stroke="#000000" d="M590.7983,-1377.3091C646.7976,-1394.1126 735.745,-1418.9693 814.386,-1432.864 1014.3372,-1468.1924 1080.4763,-1400.9923 1269.2163,-1475.864 1288.0578,-1483.3383 1286.5452,-1495.9739 1305.2163,-1503.864 1324.5614,-1512.039 1345.5611,-1518.2102 1366.735,-1522.855"/>
<polygon fill="#000000" stroke="#000000" points="1366.2991,-1526.3392 1376.8023,-1524.9489 1367.7245,-1519.4858 1366.2991,-1526.3392"/>
</g>
<!-- _9&#45;&gt;_19 -->
<g id="edge75" class="edge">
<title>_9&#45;&gt;_19</title>
<path fill="none" stroke="#000000" d="M605.9301,-1342.772C699.4435,-1320.2646 863.4456,-1280.7917 961.4134,-1257.2122"/>
<polygon fill="#000000" stroke="#000000" points="962.3646,-1260.5833 971.2679,-1254.8404 960.7265,-1253.7776 962.3646,-1260.5833"/>
</g>
<!-- _9&#45;&gt;_20 -->
<g id="edge76" class="edge">
<title>_9&#45;&gt;_20</title>
<path fill="none" stroke="#000000" d="M560.3665,-1341.7723C607.7453,-1309.1598 713.813,-1241.0997 814.386,-1210.864 911.6115,-1181.6347 1192.9245,-1234.8469 1269.2163,-1167.864 1323.3383,-1120.3459 1252.1611,-1058.5703 1305.2163,-1009.864 1314.2995,-1001.5254 1324.4978,-994.7253 1335.414,-989.2148"/>
<polygon fill="#000000" stroke="#000000" points="1337.147,-992.2691 1344.7436,-984.8838 1334.1996,-985.9198 1337.147,-992.2691"/>
</g>
<!-- _9&#45;&gt;_21 -->
<g id="edge77" class="edge">
<title>_9&#45;&gt;_21</title>
<path fill="none" stroke="#000000" d="M560.5989,-1341.9761C689.2014,-1252.3555 1257.4903,-855.7206 1269.2163,-836.864 1322.0003,-751.982 1233.0132,-683.9858 1305.2163,-614.864 1310.7924,-609.5259 1316.8269,-604.838 1323.2194,-600.7326"/>
<polygon fill="#000000" stroke="#000000" points="1325.298,-603.5709 1332.1489,-595.4891 1321.7534,-597.5346 1325.298,-603.5709"/>
</g>
<!-- _9&#45;&gt;_23 -->
<g id="edge79" class="edge">
<title>_9&#45;&gt;_23</title>
<path fill="none" stroke="#000000" d="M642.8845,-1375.5479C687.2728,-1385.449 737.6979,-1401.3891 778.386,-1426.864 798.9396,-1439.7326 792.7665,-1456.8801 814.386,-1467.864 995.3379,-1559.7976 1094.7502,-1405.1483 1269.2163,-1508.864 1294.0104,-1523.6035 1279.7849,-1549.2535 1305.2163,-1562.864 1484.994,-1659.0781 1560.443,-1574.7338 1764.002,-1562.864 1962.5091,-1551.2888 2017.3626,-1566.1397 2208.3695,-1510.864 2276.1521,-1491.2483 2348.8613,-1452.6118 2391.7169,-1427.7988"/>
<polygon fill="#000000" stroke="#000000" points="2393.529,-1430.7937 2400.3961,-1422.7256 2389.9965,-1424.7503 2393.529,-1430.7937"/>
</g>
<!-- _34 -->
<g id="node35" class="node">
<title>_34</title>
<ellipse fill="#afeeee" stroke="#afeeee" cx="1041.8012" cy="-1589.864" rx="215.2863" ry="18"/>
<text text-anchor="middle" x="1041.8012" y="-1585.664" font-family="Times,serif" font-size="14.00" fill="#000000">github.com/goreleaser/goreleaser/internal/pipeline/project</text>
</g>
<!-- _9&#45;&gt;_34 -->
<g id="edge72" class="edge">
<title>_9&#45;&gt;_34</title>
<path fill="none" stroke="#000000" d="M563.1639,-1377.8321C609.4532,-1407.6588 703.7705,-1470.0486 778.386,-1529.864 795.3213,-1543.4401 794.6574,-1553.8146 814.386,-1562.864 826.8906,-1568.5998 840.1695,-1573.2782 853.7849,-1577.0805"/>
<polygon fill="#000000" stroke="#000000" points="853.1913,-1580.5432 863.7523,-1579.6969 854.9686,-1573.7726 853.1913,-1580.5432"/>
</g>
<!-- _35 -->
<g id="node36" class="node">
<title>_35</title>
<ellipse fill="#afeeee" stroke="#afeeee" cx="1041.8012" cy="-1535.864" rx="221.5851" ry="18"/>
<text text-anchor="middle" x="1041.8012" y="-1531.664" font-family="Times,serif" font-size="14.00" fill="#000000">github.com/goreleaser/goreleaser/internal/pipeline/snapshot</text>
</g>
<!-- _9&#45;&gt;_35 -->
<g id="edge78" class="edge">
<title>_9&#45;&gt;_35</title>
<path fill="none" stroke="#000000" d="M562.1226,-1377.8697C610.599,-1409.017 716.0755,-1472.612 814.386,-1503.864 836.4956,-1510.8924 860.3033,-1516.379 883.895,-1520.6615"/>
<polygon fill="#000000" stroke="#000000" points="883.5338,-1524.1514 893.9869,-1522.4242 884.7382,-1517.2557 883.5338,-1524.1514"/>
</g>
<!-- _10&#45;&gt;_23 -->
<g id="edge80" class="edge">
<title>_10&#45;&gt;_23</title>
<path fill="none" stroke="#000000" d="M640.8909,-2100.2322C990.3547,-2149.7592 2090.7798,-2296.112 2208.3695,-2192.864 2254.8486,-2152.0537 2229.7645,-1976.9678 2244.3695,-1916.864 2290.7218,-1726.1107 2383.7387,-1507.9012 2417.204,-1432.317"/>
<polygon fill="#000000" stroke="#000000" points="2420.4756,-1433.5736 2421.3418,-1423.0142 2414.0798,-1430.7287 2420.4756,-1433.5736"/>
</g>
<!-- _11&#45;&gt;_1 -->
<g id="edge82" class="edge">
<title>_11&#45;&gt;_1</title>
<path fill="none" stroke="#000000" d="M1573.2685,-1333.9793C1626.2956,-1307.1926 1720.0155,-1251.2876 1764.002,-1172.864 1832.7184,-1050.3495 1710.7639,-967.3459 1800.002,-858.864 1819.1118,-835.6332 1846.5203,-820.5928 1875.0784,-810.8866"/>
<polygon fill="#000000" stroke="#000000" points="1876.3285,-814.1618 1884.7971,-807.7952 1874.2066,-807.4911 1876.3285,-814.1618"/>
</g>
<!-- _11&#45;&gt;_22 -->
<g id="edge85" class="edge">
<title>_11&#45;&gt;_22</title>
<path fill="none" stroke="#000000" d="M1688.2829,-1364.487C1713.773,-1368.1383 1739.7793,-1372.8328 1764.002,-1378.864 1780.6607,-1383.0118 1783.5454,-1387.9757 1800.002,-1392.864 2133.1809,-1491.8315 2539.5712,-1563.0597 2728.8731,-1593.4795"/>
<polygon fill="#000000" stroke="#000000" points="2728.3966,-1596.9477 2738.8243,-1595.0731 2729.5036,-1590.0358 2728.3966,-1596.9477"/>
</g>
<!-- _11&#45;&gt;_23 -->
<g id="edge86" class="edge">
<title>_11&#45;&gt;_23</title>
<path fill="none" stroke="#000000" d="M1710.087,-1362.2561C1872.5664,-1371.8784 2112.138,-1386.0662 2269.4976,-1395.3852"/>
<polygon fill="#000000" stroke="#000000" points="2269.5525,-1398.8945 2279.742,-1395.9919 2269.9664,-1391.9068 2269.5525,-1398.8945"/>
</g>
<!-- _11&#45;&gt;_24 -->
<g id="edge81" class="edge">
<title>_11&#45;&gt;_24</title>
<path fill="none" stroke="#000000" d="M1667.904,-1337.7207C1873.3737,-1314.2266 2278.8861,-1261.1212 2614.7378,-1175.864 2671.767,-1161.3869 2735.4194,-1139.7211 2779.6519,-1123.751"/>
<polygon fill="#000000" stroke="#000000" points="2780.8601,-1127.036 2789.0647,-1120.3326 2778.4706,-1120.4564 2780.8601,-1127.036"/>
</g>
<!-- _11&#45;&gt;_26 -->
<g id="edge84" class="edge">
<title>_11&#45;&gt;_26</title>
<path fill="none" stroke="#000000" d="M1718.095,-1342.4013C1734.4195,-1336.8722 1750.0287,-1329.5271 1764.002,-1319.864 1791.4839,-1300.8591 1772.6812,-1273.0998 1800.002,-1253.864 1812.0401,-1245.3883 1825.4646,-1238.8075 1839.5218,-1233.7319"/>
<polygon fill="#000000" stroke="#000000" points="1840.9677,-1236.9392 1849.3456,-1230.4537 1838.7519,-1230.2992 1840.9677,-1236.9392"/>
</g>
<!-- _11&#45;&gt;_31 -->
<g id="edge83" class="edge">
<title>_11&#45;&gt;_31</title>
<path fill="none" stroke="#000000" d="M1590.393,-1334.4369C1639.7497,-1317.0759 1711.83,-1286.8002 1764.002,-1243.864 1784.868,-1226.6919 1776.7451,-1208.6258 1800.002,-1194.864 1808.7147,-1189.7085 1817.9976,-1185.363 1827.6181,-1181.7116"/>
<polygon fill="#000000" stroke="#000000" points="1829.0729,-1184.91 1837.3426,-1178.2871 1826.7477,-1178.3074 1829.0729,-1184.91"/>
</g>
<!-- _12&#45;&gt;_23 -->
<g id="edge87" class="edge">
<title>_12&#45;&gt;_23</title>
<path fill="none" stroke="#000000" d="M774.6949,-1838.0719C1222.9204,-1843.1866 2148.2278,-1849.223 2208.3695,-1812.864 2351.931,-1726.073 2408.2798,-1510.5775 2424.3158,-1433.1403"/>
<polygon fill="#000000" stroke="#000000" points="2427.7831,-1433.6503 2426.3159,-1423.1576 2420.9195,-1432.2751 2427.7831,-1433.6503"/>
</g>
<!-- _13&#45;&gt;_1 -->
<g id="edge88" class="edge">
<title>_13&#45;&gt;_1</title>
<path fill="none" stroke="#000000" d="M1239.0031,-1639.2927C1250.1269,-1633.502 1260.3605,-1626.1369 1269.2163,-1616.864 1345.8482,-1536.6227 1233.7619,-1203.7485 1305.2163,-1118.864 1440.5225,-958.1267 1615.5686,-1153.5643 1764.002,-1004.864 1811.2172,-957.5639 1754.3401,-907.6653 1800.002,-858.864 1821.5609,-835.8229 1851.2487,-820.9145 1881.312,-811.2791"/>
<polygon fill="#000000" stroke="#000000" points="1882.5139,-814.5724 1891.0762,-808.3324 1880.4914,-807.8709 1882.5139,-814.5724"/>
</g>
<!-- _13&#45;&gt;_23 -->
<g id="edge89" class="edge">
<title>_13&#45;&gt;_23</title>
<path fill="none" stroke="#000000" d="M1228.1751,-1651.1444C1242.4413,-1655.161 1256.2985,-1660.3121 1269.2163,-1666.864 1290.5471,-1677.6829 1283.3676,-1697.1334 1305.2163,-1706.864 1396.8869,-1747.6906 2122.8845,-1756.4246 2208.3695,-1703.864 2238.1713,-1685.5403 2225.2703,-1663.1748 2244.3695,-1633.864 2295.6606,-1555.1496 2368.7276,-1471.4529 2405.885,-1430.4798"/>
<polygon fill="#000000" stroke="#000000" points="2408.672,-1432.6178 2412.8206,-1422.869 2403.498,-1427.9029 2408.672,-1432.6178"/>
</g>
<!-- _14&#45;&gt;_1 -->
<g id="edge91" class="edge">
<title>_14&#45;&gt;_1</title>
<path fill="none" stroke="#000000" d="M1596.481,-906.7351C1683.3452,-882.6872 1841.0666,-839.0227 1932.7931,-813.6287"/>
<polygon fill="#000000" stroke="#000000" points="1933.8467,-816.9687 1942.5504,-810.9275 1931.979,-810.2225 1933.8467,-816.9687"/>
</g>
<!-- _14&#45;&gt;_23 -->
<g id="edge93" class="edge">
<title>_14&#45;&gt;_23</title>
<path fill="none" stroke="#000000" d="M1734.167,-922.297C1907.4378,-925.2882 2140.858,-941.2188 2208.3695,-1002.864 2265.7229,-1055.2338 2211.1744,-1103.6495 2244.3695,-1173.864 2284.5118,-1258.7732 2361.6936,-1340.1572 2402.5891,-1379.7906"/>
<polygon fill="#000000" stroke="#000000" points="2400.385,-1382.5262 2410.0244,-1386.9231 2405.2308,-1377.4746 2400.385,-1382.5262"/>
</g>
<!-- _14&#45;&gt;_26 -->
<g id="edge92" class="edge">
<title>_14&#45;&gt;_26</title>
<path fill="none" stroke="#000000" d="M1730.0682,-927.753C1742.4956,-933.5863 1754.0052,-941.1561 1764.002,-950.864 1842.6419,-1027.2313 1721.9104,-1117.9361 1800.002,-1194.864 1807.3574,-1202.1098 1815.6512,-1208.0645 1824.5781,-1212.9273"/>
<polygon fill="#000000" stroke="#000000" points="1823.1886,-1216.1446 1833.7048,-1217.4334 1826.2876,-1209.8679 1823.1886,-1216.1446"/>
</g>
<!-- _14&#45;&gt;_29 -->
<g id="edge90" class="edge">
<title>_14&#45;&gt;_29</title>
<path fill="none" stroke="#000000" d="M1683.5086,-911.8145C1739.7653,-907.262 1803.6524,-902.092 1859.5155,-897.5713"/>
<polygon fill="#000000" stroke="#000000" points="1859.8025,-901.0596 1869.4876,-896.7643 1859.2378,-894.0824 1859.8025,-901.0596"/>
</g>
<!-- _15&#45;&gt;_1 -->
<g id="edge96" class="edge">
<title>_15&#45;&gt;_1</title>
<path fill="none" stroke="#000000" d="M1590.393,-399.2911C1639.7497,-416.6521 1711.83,-446.9278 1764.002,-489.864 1784.868,-507.0361 1783.5531,-517.4233 1800.002,-538.864 1865.1617,-623.7979 1945.2356,-722.1117 1982.8081,-767.9025"/>
<polygon fill="#000000" stroke="#000000" points="1980.2644,-770.3199 1989.316,-775.8263 1985.6739,-765.8772 1980.2644,-770.3199"/>
</g>
<!-- _15&#45;&gt;_22 -->
<g id="edge99" class="edge">
<title>_15&#45;&gt;_22</title>
<path fill="none" stroke="#000000" d="M1740.1635,-378.3817C1909.3116,-379.216 2133.0294,-389.9623 2208.3695,-437.864 2432.983,-580.6746 2761.9613,-1417.7786 2824.8279,-1581.9387"/>
<polygon fill="#000000" stroke="#000000" points="2821.7427,-1583.6706 2828.5801,-1591.7639 2828.2821,-1581.1733 2821.7427,-1583.6706"/>
</g>
<!-- _15&#45;&gt;_23 -->
<g id="edge100" class="edge">
<title>_15&#45;&gt;_23</title>
<path fill="none" stroke="#000000" d="M1600.4427,-399.0132C1653.8892,-412.3863 1731.3732,-430.5332 1800.002,-441.864 1890.0332,-456.7284 2139.7602,-424.7031 2208.3695,-484.864 2348.4596,-607.7037 2413.9494,-1235.1994 2427.051,-1376.5554"/>
<polygon fill="#000000" stroke="#000000" points="2423.5729,-1376.956 2427.9687,-1386.5958 2430.5439,-1376.3188 2423.5729,-1376.956"/>
</g>
<!-- _15&#45;&gt;_24 -->
<g id="edge94" class="edge">
<title>_15&#45;&gt;_24</title>
<path fill="none" stroke="#000000" d="M1732.3489,-375.8637C1743.8109,-370.4017 1754.5124,-363.5016 1764.002,-354.864 1820.4733,-303.4627 1740.6181,-234.8709 1800.002,-186.864 1940.9534,-72.9167 2477.1548,-106.8716 2614.7378,-224.864 2749.6291,-340.548 2818.4033,-936.9042 2832.6176,-1074.5117"/>
<polygon fill="#000000" stroke="#000000" points="2829.1563,-1075.0701 2833.6526,-1084.6635 2836.1202,-1074.36 2829.1563,-1075.0701"/>
</g>
<!-- _15&#45;&gt;_26 -->
<g id="edge98" class="edge">
<title>_15&#45;&gt;_26</title>
<path fill="none" stroke="#000000" d="M1574.3548,-399.6289C1628.2098,-426.0971 1722.4024,-481.4336 1764.002,-560.864 1796.7372,-623.3686 1752.0091,-1143.1426 1800.002,-1194.864 1806.7712,-1202.1591 1814.482,-1208.1871 1822.8495,-1213.1374"/>
<polygon fill="#000000" stroke="#000000" points="1821.3253,-1216.2912 1831.7952,-1217.9138 1824.6224,-1210.1162 1821.3253,-1216.2912"/>
</g>
<!-- _15&#45;&gt;_31 -->
<g id="edge97" class="edge">
<title>_15&#45;&gt;_31</title>
<path fill="none" stroke="#000000" d="M1573.4023,-399.6742C1626.5884,-426.3723 1720.496,-482.1728 1764.002,-560.864 1840.0919,-698.491 1740.4244,-767.3258 1800.002,-912.864 1840.0146,-1010.6083 1929.863,-1101.0858 1975.8675,-1143.1446"/>
<polygon fill="#000000" stroke="#000000" points="1973.6287,-1145.8389 1983.3934,-1149.9499 1978.3236,-1140.6468 1973.6287,-1145.8389"/>
</g>
<!-- _32 -->
<g id="node33" class="node">
<title>_32</title>
<ellipse fill="#afeeee" stroke="#afeeee" cx="2004.1858" cy="-511.864" rx="177.6524" ry="18"/>
<text text-anchor="middle" x="2004.1858" y="-507.664" font-family="Times,serif" font-size="14.00" fill="#000000">github.com/goreleaser/goreleaser/internal/linux</text>
</g>
<!-- _15&#45;&gt;_32 -->
<g id="edge95" class="edge">
<title>_15&#45;&gt;_32</title>
<path fill="none" stroke="#000000" d="M1716.6443,-390.8407C1733.4945,-396.4232 1749.6153,-403.915 1764.002,-413.864 1791.4839,-432.8689 1772.6812,-460.6282 1800.002,-479.864 1811.8613,-488.2138 1825.0662,-494.7246 1838.896,-499.7689"/>
<polygon fill="#000000" stroke="#000000" points="1837.9672,-503.1494 1848.5614,-503.0315 1840.206,-496.5171 1837.9672,-503.1494"/>
</g>
<!-- _36 -->
<g id="node37" class="node">
<title>_36</title>
<ellipse fill="#afeeee" stroke="#afeeee" cx="2429.5537" cy="-305.864" rx="110.1157" ry="18"/>
<text text-anchor="middle" x="2429.5537" y="-301.664" font-family="Times,serif" font-size="14.00" fill="#000000">github.com/goreleaser/nfpm</text>
</g>
<!-- _15&#45;&gt;_36 -->
<g id="edge101" class="edge">
<title>_15&#45;&gt;_36</title>
<path fill="none" stroke="#000000" d="M1683.6472,-369.2075C1863.6497,-353.9214 2162.0599,-328.58 2321.4111,-315.0476"/>
<polygon fill="#000000" stroke="#000000" points="2322.0355,-318.5073 2331.7035,-314.1736 2321.4432,-311.5324 2322.0355,-318.5073"/>
</g>
<!-- _37 -->
<g id="node38" class="node">
<title>_37</title>
<ellipse fill="#afeeee" stroke="#afeeee" cx="2004.1858" cy="-267.864" rx="125.0673" ry="18"/>
<text text-anchor="middle" x="2004.1858" y="-263.664" font-family="Times,serif" font-size="14.00" fill="#000000">github.com/goreleaser/nfpm/deb</text>
</g>
<!-- _15&#45;&gt;_37 -->
<g id="edge102" class="edge">
<title>_15&#45;&gt;_37</title>
<path fill="none" stroke="#000000" d="M1692.9683,-370.0396C1717.0217,-366.29 1741.3553,-361.3558 1764.002,-354.864 1781.0112,-349.9882 1783.6078,-344.5211 1800.002,-337.864 1846.7709,-318.8727 1900.8531,-300.4866 1941.6039,-287.3268"/>
<polygon fill="#000000" stroke="#000000" points="1942.6863,-290.6553 1951.137,-284.265 1940.5457,-283.9907 1942.6863,-290.6553"/>
</g>
<!-- _38 -->
<g id="node39" class="node">
<title>_38</title>
<ellipse fill="#afeeee" stroke="#afeeee" cx="2004.1858" cy="-213.864" rx="126.521" ry="18"/>
<text text-anchor="middle" x="2004.1858" y="-209.664" font-family="Times,serif" font-size="14.00" fill="#000000">github.com/goreleaser/nfpm/rpm</text>
</g>
<!-- _15&#45;&gt;_38 -->
<g id="edge103" class="edge">
<title>_15&#45;&gt;_38</title>
<path fill="none" stroke="#000000" d="M1730.0616,-375.4133C1742.2524,-370.1077 1753.7276,-363.3618 1764.002,-354.864 1804.9454,-321.0003 1759.3019,-275.0198 1800.002,-240.864 1821.1031,-223.1558 1847.9952,-213.6605 1875.2821,-209.0386"/>
<polygon fill="#000000" stroke="#000000" points="1875.9629,-212.4761 1885.343,-207.5501 1874.9384,-205.5514 1875.9629,-212.4761"/>
</g>
<!-- _16&#45;&gt;_1 -->
<g id="edge106" class="edge">
<title>_16&#45;&gt;_1</title>
<path fill="none" stroke="#000000" d="M1102.5517,-352.1201C1265.7493,-398.7218 1705.3277,-525.9518 1764.002,-560.864 1859.611,-617.7531 1946.5819,-719.9133 1984.3368,-767.7798"/>
<polygon fill="#000000" stroke="#000000" points="1981.6821,-770.067 1990.5963,-775.793 1987.1985,-765.7578 1981.6821,-770.067"/>
</g>
<!-- _16&#45;&gt;_23 -->
<g id="edge107" class="edge">
<title>_16&#45;&gt;_23</title>
<path fill="none" stroke="#000000" d="M1140.329,-319.0978C1189.6881,-311.9776 1250.457,-304.3834 1305.2163,-300.864 1508.7012,-287.786 1560.2925,-291.9419 1764.002,-300.864 1863.035,-305.2015 2134.2896,-273.9967 2208.3695,-339.864 2369.9595,-483.5399 2419.4445,-1222.3936 2428.0843,-1376.6252"/>
<polygon fill="#000000" stroke="#000000" points="2424.5945,-1376.91 2428.6368,-1386.7034 2431.584,-1376.5268 2424.5945,-1376.91"/>
</g>
<!-- _16&#45;&gt;_30 -->
<g id="edge105" class="edge">
<title>_16&#45;&gt;_30</title>
<path fill="none" stroke="#000000" d="M1241.1795,-332.032C1277.9057,-331.5103 1316.0795,-330.9681 1352.2716,-330.454"/>
<polygon fill="#000000" stroke="#000000" points="1352.475,-333.9515 1362.4242,-330.3098 1352.3755,-326.9523 1352.475,-333.9515"/>
</g>
<!-- _17&#45;&gt;_1 -->
<g id="edge111" class="edge">
<title>_17&#45;&gt;_1</title>
<path fill="none" stroke="#000000" d="M1095.9345,-1388.3531C1149.6921,-1367.8844 1229.6387,-1328.4632 1269.2163,-1264.864 1312.6297,-1195.101 1248.5492,-956.3657 1305.2163,-896.864 1324.6647,-876.4428 1676.9696,-832.1976 1873.8004,-808.9032"/>
<polygon fill="#000000" stroke="#000000" points="1874.4033,-812.3564 1883.9237,-807.7073 1873.5821,-805.4047 1874.4033,-812.3564"/>
</g>
<!-- _17&#45;&gt;_22 -->
<g id="edge113" class="edge">
<title>_17&#45;&gt;_22</title>
<path fill="none" stroke="#000000" d="M1129.3518,-1422.3374C1178.9149,-1436.5058 1237.2226,-1462.3515 1269.2163,-1508.864 1345.4185,-1619.6468 1215.0474,-2013.1185 1305.2163,-2112.864 1379.9078,-2195.4882 1688.9792,-2183.9465 1800.002,-2192.864 2160.9541,-2221.8562 2317.9582,-2394.3462 2614.7378,-2186.864 2711.0851,-2119.5065 2804.25,-1744.3924 2829.0308,-1637.9995"/>
<polygon fill="#000000" stroke="#000000" points="2832.4973,-1638.5434 2831.3394,-1628.012 2825.6772,-1636.9668 2832.4973,-1638.5434"/>
</g>
<!-- _17&#45;&gt;_23 -->
<g id="edge114" class="edge">
<title>_17&#45;&gt;_23</title>
<path fill="none" stroke="#000000" d="M1230.838,-1414.5162C1244.1333,-1418.281 1257.0669,-1422.996 1269.2163,-1428.864 1289.8766,-1438.8426 1284.0796,-1456.9388 1305.2163,-1465.864 1397.7208,-1504.925 2108.4692,-1444.0014 2208.3695,-1433.864 2244.0523,-1430.2431 2282.8635,-1425.4469 2317.8702,-1420.7995"/>
<polygon fill="#000000" stroke="#000000" points="2318.6713,-1424.2236 2328.1191,-1419.4289 2317.7434,-1417.2854 2318.6713,-1424.2236"/>
</g>
<!-- _17&#45;&gt;_24 -->
<g id="edge108" class="edge">
<title>_17&#45;&gt;_24</title>
<path fill="none" stroke="#000000" d="M1126.4377,-1422.4255C1176.0754,-1436.7136 1235.4839,-1462.6541 1269.2163,-1508.864 1350.9963,-1620.8942 1221.723,-1708.1049 1305.2163,-1818.864 1448.6035,-2009.0761 1566.4186,-1978.1809 1800.002,-2024.864 1888.7727,-2042.6054 2548.1786,-2086.2225 2614.7378,-2024.864 2650.9662,-1991.4664 2639.779,-1630.9036 2650.7378,-1582.864 2691.6103,-1403.6933 2786.1381,-1202.3569 2821.626,-1130.3101"/>
<polygon fill="#000000" stroke="#000000" points="2824.9265,-1131.5321 2826.2299,-1121.0178 2818.6541,-1128.4244 2824.9265,-1131.5321"/>
</g>
<!-- _17&#45;&gt;_28 -->
<g id="edge109" class="edge">
<title>_17&#45;&gt;_28</title>
<path fill="none" stroke="#000000" d="M1257.237,-1405.864C1286.429,-1405.864 1316.2101,-1405.864 1344.9063,-1405.864"/>
<polygon fill="#000000" stroke="#000000" points="1345.0085,-1409.3641 1355.0085,-1405.864 1345.0085,-1402.3641 1345.0085,-1409.3641"/>
</g>
<!-- _17&#45;&gt;_29 -->
<g id="edge110" class="edge">
<title>_17&#45;&gt;_29</title>
<path fill="none" stroke="#000000" d="M1091.442,-1388.1949C1143.6787,-1367.0164 1224.4075,-1326.4792 1269.2163,-1264.864 1308.524,-1210.8133 1258.0012,-1166.1641 1305.2163,-1118.864 1453.6497,-970.1637 1566.7631,-1077.2592 1764.002,-1004.864 1837.5176,-977.8806 1918.1676,-934.9514 1964.8058,-908.7001"/>
<polygon fill="#000000" stroke="#000000" points="1966.6906,-911.655 1973.6677,-903.6819 1963.2414,-905.5638 1966.6906,-911.655"/>
</g>
<!-- _17&#45;&gt;_31 -->
<g id="edge112" class="edge">
<title>_17&#45;&gt;_31</title>
<path fill="none" stroke="#000000" d="M1128.4961,-1389.3045C1175.5997,-1376.266 1231.7147,-1353.5801 1269.2163,-1314.864 1301.7906,-1281.2349 1267.8117,-1244.0224 1305.2163,-1215.864 1325.2548,-1200.7789 1609.7113,-1185.2036 1809.4857,-1176.0338"/>
<polygon fill="#000000" stroke="#000000" points="1809.6995,-1179.5278 1819.5293,-1175.5749 1809.3799,-1172.5351 1809.6995,-1179.5278"/>
</g>
<!-- _18&#45;&gt;_1 -->
<g id="edge116" class="edge">
<title>_18&#45;&gt;_1</title>
<path fill="none" stroke="#000000" d="M1622.5601,-1519.6406C1672.5898,-1505.5506 1731.5665,-1479.6996 1764.002,-1432.864 1836.7669,-1327.7941 1721.3779,-959.6244 1800.002,-858.864 1818.1988,-835.544 1844.7891,-820.4396 1872.8037,-810.6971"/>
<polygon fill="#000000" stroke="#000000" points="1873.9206,-814.0144 1882.3489,-807.5945 1871.7567,-807.3572 1873.9206,-814.0144"/>
</g>
<!-- _18&#45;&gt;_22 -->
<g id="edge119" class="edge">
<title>_18&#45;&gt;_22</title>
<path fill="none" stroke="#000000" d="M1606.5119,-1552.7011C1659.6373,-1564.3349 1733.9054,-1578.9186 1800.002,-1585.864 2101.9634,-1617.5942 2456.0651,-1617.9074 2662.1448,-1614.4442"/>
<polygon fill="#000000" stroke="#000000" points="2662.2119,-1617.9436 2672.1499,-1614.2711 2662.0908,-1610.9447 2662.2119,-1617.9436"/>
</g>
<!-- _18&#45;&gt;_23 -->
<g id="edge120" class="edge">
<title>_18&#45;&gt;_23</title>
<path fill="none" stroke="#000000" d="M1715.8231,-1528.4582C1852.2658,-1520.5191 2043.3676,-1504.3536 2208.3695,-1471.864 2265.0983,-1460.6939 2328.045,-1440.8699 2372.2348,-1425.6738"/>
<polygon fill="#000000" stroke="#000000" points="2373.6279,-1428.8952 2381.9284,-1422.3111 2371.3336,-1422.2818 2373.6279,-1428.8952"/>
</g>
<!-- _18&#45;&gt;_24 -->
<g id="edge115" class="edge">
<title>_18&#45;&gt;_24</title>
<path fill="none" stroke="#000000" d="M1617.6246,-1552.2738C1810.8898,-1585.6801 2298.463,-1641.793 2614.7378,-1431.864 2730.3238,-1355.1432 2800.7695,-1195.0709 2825.4504,-1130.6271"/>
<polygon fill="#000000" stroke="#000000" points="2828.7769,-1131.7248 2829.0185,-1121.1327 2822.2243,-1129.2622 2828.7769,-1131.7248"/>
</g>
<!-- _18&#45;&gt;_26 -->
<g id="edge118" class="edge">
<title>_18&#45;&gt;_26</title>
<path fill="none" stroke="#000000" d="M1584.6705,-1518.368C1632.6684,-1500.4665 1706.1677,-1470.0498 1764.002,-1432.864 1851.244,-1376.7699 1939.0991,-1290.1396 1980.1864,-1247.4424"/>
<polygon fill="#000000" stroke="#000000" points="1982.9226,-1249.6452 1987.3034,-1239.9985 1977.863,-1244.8078 1982.9226,-1249.6452"/>
</g>
<!-- _18&#45;&gt;_31 -->
<g id="edge117" class="edge">
<title>_18&#45;&gt;_31</title>
<path fill="none" stroke="#000000" d="M1617.989,-1519.4853C1668.1173,-1505.198 1728.8235,-1479.1926 1764.002,-1432.864 1828.6981,-1347.6621 1723.6528,-1269.8023 1800.002,-1194.864 1804.9742,-1189.9837 1810.3723,-1185.6899 1816.1027,-1181.9215"/>
<polygon fill="#000000" stroke="#000000" points="1817.9362,-1184.9032 1824.7253,-1176.7694 1814.3457,-1178.8942 1817.9362,-1184.9032"/>
</g>
<!-- _19&#45;&gt;_1 -->
<g id="edge123" class="edge">
<title>_19&#45;&gt;_1</title>
<path fill="none" stroke="#000000" d="M1175.1541,-1223.8643C1210.6668,-1213.6518 1245.6583,-1196.4929 1269.2163,-1167.864 1317.774,-1108.8543 1249.6056,-878.2801 1305.2163,-825.864 1341.3017,-791.8516 1615.7188,-788.2091 1809.7539,-790.032"/>
<polygon fill="#000000" stroke="#000000" points="1809.766,-793.5322 1819.8004,-790.1319 1809.8357,-786.5325 1809.766,-793.5322"/>
</g>
<!-- _19&#45;&gt;_23 -->
<g id="edge125" class="edge">
<title>_19&#45;&gt;_23</title>
<path fill="none" stroke="#000000" d="M1081.0614,-1255.702C1129.355,-1279.0125 1211.9595,-1323.466 1269.2163,-1378.864 1289.9461,-1398.9208 1279.7849,-1419.2535 1305.2163,-1432.864 1346.6677,-1455.0481 1962.3014,-1427.9951 2264.5735,-1413.2411"/>
<polygon fill="#000000" stroke="#000000" points="2264.9335,-1416.7278 2274.7505,-1412.7432 2264.5914,-1409.7361 2264.9335,-1416.7278"/>
</g>
<!-- _19&#45;&gt;_24 -->
<g id="edge121" class="edge">
<title>_19&#45;&gt;_24</title>
<path fill="none" stroke="#000000" d="M1221.3634,-1228.2708C1238.587,-1222.1885 1254.9288,-1213.9367 1269.2163,-1202.864 1301.3211,-1177.9831 1271.9762,-1142.2064 1305.2163,-1118.864 1476.0982,-998.8648 2035.5625,-1089.099 2244.3695,-1088.864 2408.9775,-1088.6788 2450.2123,-1083.6505 2614.7378,-1088.864 2634.7701,-1089.4988 2655.8098,-1090.4569 2676.613,-1091.5801"/>
<polygon fill="#000000" stroke="#000000" points="2676.6228,-1095.0859 2686.801,-1092.144 2677.0098,-1088.0966 2676.6228,-1095.0859"/>
</g>
<!-- _19&#45;&gt;_26 -->
<g id="edge124" class="edge">
<title>_19&#45;&gt;_26</title>
<path fill="none" stroke="#000000" d="M1172.143,-1252.0539C1204.1011,-1256.6708 1238.0683,-1262.5455 1269.2163,-1269.864 1285.6347,-1273.7216 1288.5686,-1279.1625 1305.2163,-1281.864 1506.4881,-1314.5259 1571.134,-1348.0385 1764.002,-1281.864 1783.1746,-1275.2857 1781.398,-1261.9112 1800.002,-1253.864 1818.3271,-1245.9374 1838.3327,-1239.9449 1858.4225,-1235.42"/>
<polygon fill="#000000" stroke="#000000" points="1859.2357,-1238.8254 1868.2845,-1233.3146 1857.7742,-1231.9796 1859.2357,-1238.8254"/>
</g>
<!-- _19&#45;&gt;_28 -->
<g id="edge122" class="edge">
<title>_19&#45;&gt;_28</title>
<path fill="none" stroke="#000000" d="M1067.2661,-1255.7463C1112.6813,-1286.6343 1211.6842,-1349.4882 1305.2163,-1378.864 1326.8916,-1385.6716 1350.2084,-1390.7884 1373.3785,-1394.6294"/>
<polygon fill="#000000" stroke="#000000" points="1372.8702,-1398.0924 1383.2944,-1396.1987 1373.9644,-1391.1785 1372.8702,-1398.0924"/>
</g>
<!-- _20&#45;&gt;_1 -->
<g id="edge127" class="edge">
<title>_20&#45;&gt;_1</title>
<path fill="none" stroke="#000000" d="M1727.1936,-971.5287C1740.3569,-966.2739 1752.8135,-959.5025 1764.002,-950.864 1798.7564,-924.0306 1767.9651,-888.8896 1800.002,-858.864 1824.3549,-836.04 1856.717,-821.2303 1888.4834,-811.6209"/>
<polygon fill="#000000" stroke="#000000" points="1889.6652,-814.9231 1898.3132,-808.8025 1887.7359,-808.1942 1889.6652,-814.9231"/>
</g>
<!-- _20&#45;&gt;_23 -->
<g id="edge128" class="edge">
<title>_20&#45;&gt;_23</title>
<path fill="none" stroke="#000000" d="M1672.5797,-991.1989C1844.0778,-1010.0756 2124.4498,-1049.1977 2208.3695,-1109.864 2234.818,-1128.9838 2226.102,-1146.8199 2244.3695,-1173.864 2297.3705,-1252.3294 2369.986,-1337.4856 2406.5411,-1379.0713"/>
<polygon fill="#000000" stroke="#000000" points="2404.1138,-1381.6104 2413.3548,-1386.7926 2409.3625,-1376.9788 2404.1138,-1381.6104"/>
</g>
<!-- _20&#45;&gt;_24 -->
<g id="edge126" class="edge">
<title>_20&#45;&gt;_24</title>
<path fill="none" stroke="#000000" d="M1651.4041,-963.0129C1851.8182,-941.1755 2272.6794,-911.3187 2614.7378,-993.864 2684.931,-1010.803 2758.6109,-1052.8717 2800.5909,-1079.5145"/>
<polygon fill="#000000" stroke="#000000" points="2798.7497,-1082.4916 2809.0551,-1084.951 2802.5327,-1076.6019 2798.7497,-1082.4916"/>
</g>
<!-- _21&#45;&gt;_1 -->
<g id="edge131" class="edge">
<title>_21&#45;&gt;_1</title>
<path fill="none" stroke="#000000" d="M1733.4983,-596.0546C1744.3957,-601.0635 1754.6818,-607.2578 1764.002,-614.864 1803.5282,-647.1214 1764.1306,-687.5858 1800.002,-723.864 1825.0621,-749.2083 1859.6854,-765.3827 1893.3066,-775.7026"/>
<polygon fill="#000000" stroke="#000000" points="1892.6439,-779.1549 1903.2237,-778.5907 1894.6012,-772.4341 1892.6439,-779.1549"/>
</g>
<!-- _21&#45;&gt;_23 -->
<g id="edge134" class="edge">
<title>_21&#45;&gt;_23</title>
<path fill="none" stroke="#000000" d="M1729.6943,-596.724C1741.8239,-601.4973 1753.3972,-607.4625 1764.002,-614.864 1793.0145,-635.1132 1770.7449,-665.9699 1800.002,-685.864 1875.3693,-737.1118 2144.3424,-659.0019 2208.3695,-723.864 2278.8451,-795.2586 2207.3648,-1080.6189 2244.3695,-1173.864 2278.9073,-1260.8927 2358.0577,-1341.0302 2400.8431,-1380.0181"/>
<polygon fill="#000000" stroke="#000000" points="2398.616,-1382.7224 2408.3899,-1386.8115 2403.2992,-1377.5198 2398.616,-1382.7224"/>
</g>
<!-- _21&#45;&gt;_24 -->
<g id="edge129" class="edge">
<title>_21&#45;&gt;_24</title>
<path fill="none" stroke="#000000" d="M1739.5919,-595.0076C1876.0938,-605.1885 2057.4204,-629.2984 2208.3695,-685.864 2466.9142,-782.7492 2725.6218,-1003.5703 2808.2724,-1077.9105"/>
<polygon fill="#000000" stroke="#000000" points="2805.9498,-1080.5291 2815.7153,-1084.6384 2810.6439,-1075.3361 2805.9498,-1080.5291"/>
</g>
<!-- _21&#45;&gt;_26 -->
<g id="edge133" class="edge">
<title>_21&#45;&gt;_26</title>
<path fill="none" stroke="#000000" d="M1739.0208,-595.1481C1748.1365,-600.4943 1756.5602,-606.9999 1764.002,-614.864 1852.7621,-708.6616 1711.9152,-1100.4338 1800.002,-1194.864 1806.7904,-1202.1413 1814.5162,-1208.1553 1822.8952,-1213.0948"/>
<polygon fill="#000000" stroke="#000000" points="1821.3796,-1216.253 1831.8517,-1217.8612 1824.6682,-1210.0735 1821.3796,-1216.253"/>
</g>
<!-- _21&#45;&gt;_31 -->
<g id="edge132" class="edge">
<title>_21&#45;&gt;_31</title>
<path fill="none" stroke="#000000" d="M1737.964,-595.3878C1747.4136,-600.6538 1756.1924,-607.0783 1764.002,-614.864 1811.2407,-661.9584 1774.1676,-851.3663 1800.002,-912.864 1840.9075,-1010.238 1930.3497,-1100.8839 1976.0665,-1143.0621"/>
<polygon fill="#000000" stroke="#000000" points="1973.7985,-1145.7307 1983.5439,-1149.8875 1978.5178,-1140.5607 1973.7985,-1145.7307"/>
</g>
<!-- _21&#45;&gt;_32 -->
<g id="edge130" class="edge">
<title>_21&#45;&gt;_32</title>
<path fill="none" stroke="#000000" d="M1634.1943,-571.7464C1712.1636,-559.1272 1820.3089,-541.6241 1899.5449,-528.7999"/>
<polygon fill="#000000" stroke="#000000" points="1900.2361,-532.2337 1909.5484,-527.1809 1899.1176,-525.3236 1900.2361,-532.2337"/>
</g>
<!-- _23&#45;&gt;_22 -->
<g id="edge143" class="edge">
<title>_23&#45;&gt;_22</title>
<path fill="none" stroke="#000000" d="M2464.509,-1422.5196C2538.3827,-1459.8326 2710.2382,-1546.6353 2791.433,-1587.6461"/>
<polygon fill="#000000" stroke="#000000" points="2789.9019,-1590.7938 2800.4059,-1592.1782 2793.0578,-1584.5455 2789.9019,-1590.7938"/>
</g>
<!-- _23&#45;&gt;_24 -->
<g id="edge142" class="edge">
<title>_23&#45;&gt;_24</title>
<path fill="none" stroke="#000000" d="M2458.3638,-1386.9308C2495.2826,-1363.6795 2560.9388,-1321.411 2614.7378,-1281.864 2685.9118,-1229.5448 2765.4876,-1162.8408 2806.8899,-1127.4724"/>
<polygon fill="#000000" stroke="#000000" points="2809.3279,-1129.9926 2814.6476,-1120.8301 2804.7752,-1124.6754 2809.3279,-1129.9926"/>
</g>
<!-- _25&#45;&gt;_22 -->
<g id="edge27" class="edge">
<title>_25&#45;&gt;_22</title>
<path fill="none" stroke="#000000" d="M1700.56,-2097.2953C1984.449,-2115.3993 2540.0752,-2143.9606 2614.7378,-2095.864 2780.2128,-1989.2674 2823.019,-1724.9663 2832.7983,-1638.0597"/>
<polygon fill="#000000" stroke="#000000" points="2836.3007,-1638.2228 2833.8789,-1627.9085 2829.34,-1637.4818 2836.3007,-1638.2228"/>
</g>
<!-- _25&#45;&gt;_23 -->
<g id="edge28" class="edge">
<title>_25&#45;&gt;_23</title>
<path fill="none" stroke="#000000" d="M1569.3244,-2067.965C1619.165,-2042.9345 1714.4344,-1997.5539 1800.002,-1970.864 1976.6412,-1915.7674 2063.2642,-2004.6747 2208.3695,-1889.864 2361.6766,-1768.5639 2412.5797,-1517.2171 2425.6931,-1433.0338"/>
<polygon fill="#000000" stroke="#000000" points="2429.1832,-1433.3609 2427.2052,-1422.9524 2422.2606,-1432.3226 2429.1832,-1433.3609"/>
</g>
<!-- _25&#45;&gt;_24 -->
<g id="edge24" class="edge">
<title>_25&#45;&gt;_24</title>
<path fill="none" stroke="#000000" d="M1748.5945,-2087.5865C2054.5861,-2089.0103 2583.9268,-2087.1797 2614.7378,-2057.864 2653.0833,-2021.3795 2639.1111,-1634.5004 2650.7378,-1582.864 2691.1064,-1403.579 2785.9405,-1202.3122 2821.5679,-1130.2969"/>
<polygon fill="#000000" stroke="#000000" points="2824.8682,-1131.5208 2826.1903,-1121.0088 2818.6014,-1128.402 2824.8682,-1131.5208"/>
</g>
<!-- _25&#45;&gt;_26 -->
<g id="edge25" class="edge">
<title>_25&#45;&gt;_26</title>
<path fill="none" stroke="#000000" d="M1553.9445,-2067.8126C1596.7391,-2027.0018 1700.6776,-1923.0486 1764.002,-1818.864 1887.51,-1615.6624 1971.6756,-1337.6613 1996.5409,-1249.7132"/>
<polygon fill="#000000" stroke="#000000" points="1999.9492,-1250.5213 1999.2779,-1239.9478 1993.2089,-1248.6321 1999.9492,-1250.5213"/>
</g>
<!-- _25&#45;&gt;_27 -->
<g id="edge26" class="edge">
<title>_25&#45;&gt;_27</title>
<path fill="none" stroke="#000000" d="M1676.631,-2099.3625C1705.8411,-2103.8948 1736.1651,-2109.9072 1764.002,-2117.864 1780.8368,-2122.676 1783.2083,-2128.9103 1800.002,-2133.864 1824.9493,-2141.2229 1852.14,-2146.98 1878.3031,-2151.4525"/>
<polygon fill="#000000" stroke="#000000" points="1877.8357,-2154.9227 1888.2733,-2153.1044 1878.9799,-2148.0168 1877.8357,-2154.9227"/>
</g>
<!-- _26&#45;&gt;_23 -->
<g id="edge137" class="edge">
<title>_26&#45;&gt;_23</title>
<path fill="none" stroke="#000000" d="M2060.8917,-1238.9171C2102.3235,-1251.9501 2159.5566,-1271.1516 2208.3695,-1291.864 2273.4087,-1319.4615 2345.7982,-1358.021 2389.4873,-1382.2059"/>
<polygon fill="#000000" stroke="#000000" points="2387.9207,-1385.3394 2398.3615,-1387.1394 2391.322,-1379.2213 2387.9207,-1385.3394"/>
</g>
<!-- _26&#45;&gt;_24 -->
<g id="edge136" class="edge">
<title>_26&#45;&gt;_24</title>
<path fill="none" stroke="#000000" d="M2113.3698,-1207.7176C2144.1081,-1203.6559 2177.559,-1199.1611 2208.3695,-1194.864 2389.6687,-1169.5784 2600.1543,-1138.3023 2725.3201,-1119.5012"/>
<polygon fill="#000000" stroke="#000000" points="2725.9303,-1122.9489 2735.2991,-1118.0015 2724.8899,-1116.0266 2725.9303,-1122.9489"/>
</g>
<!-- _27&#45;&gt;_22 -->
<g id="edge140" class="edge">
<title>_27&#45;&gt;_22</title>
<path fill="none" stroke="#000000" d="M2066.919,-2182.5027C2185.8816,-2210.109 2447.311,-2251.4501 2614.7378,-2133.864 2787.4507,-2012.5654 2825.6033,-1728.3695 2833.4879,-1637.9875"/>
<polygon fill="#000000" stroke="#000000" points="2836.982,-1638.2015 2834.3064,-1627.9501 2830.0051,-1637.6325 2836.982,-1638.2015"/>
</g>
<!-- _27&#45;&gt;_23 -->
<g id="edge141" class="edge">
<title>_27&#45;&gt;_23</title>
<path fill="none" stroke="#000000" d="M2043.7561,-2148.2498C2089.6711,-2125.8823 2164.6525,-2083.0814 2208.3695,-2024.864 2238.7514,-1984.4049 2227.7637,-1964.6578 2244.3695,-1916.864 2308.9455,-1731.0063 2390.9396,-1508.8897 2419.3328,-1432.3559"/>
<polygon fill="#000000" stroke="#000000" points="2422.6277,-1433.5371 2422.8267,-1422.9441 2416.0652,-1431.101 2422.6277,-1433.5371"/>
</g>
<!-- _28&#45;&gt;_22 -->
<g id="edge30" class="edge">
<title>_28&#45;&gt;_22</title>
<path fill="none" stroke="#000000" d="M1680.3365,-1395.3488C1955.429,-1376.4833 2531.2337,-1342.0464 2614.7378,-1377.864 2713.5724,-1420.2573 2789.0566,-1531.0683 2820.0396,-1582.6806"/>
<polygon fill="#000000" stroke="#000000" points="2817.2059,-1584.7655 2825.3025,-1591.5989 2823.2345,-1581.2079 2817.2059,-1584.7655"/>
</g>
<!-- _28&#45;&gt;_23 -->
<g id="edge31" class="edge">
<title>_28&#45;&gt;_23</title>
<path fill="none" stroke="#000000" d="M1714.1005,-1405.6634C1869.0078,-1405.4904 2091.7502,-1405.2415 2247.422,-1405.0675"/>
<polygon fill="#000000" stroke="#000000" points="2247.5814,-1408.5674 2257.5774,-1405.0562 2247.5735,-1401.5674 2247.5814,-1408.5674"/>
</g>
<!-- _28&#45;&gt;_26 -->
<g id="edge29" class="edge">
<title>_28&#45;&gt;_26</title>
<path fill="none" stroke="#000000" d="M1707.8053,-1401.0705C1727.5572,-1396.0556 1746.7606,-1388.9004 1764.002,-1378.864 1787.3568,-1365.2689 1779.5409,-1347.5166 1800.002,-1329.864 1844.4139,-1291.548 1904.7314,-1261.7597 1948.2806,-1243.2626"/>
<polygon fill="#000000" stroke="#000000" points="1949.7064,-1246.4602 1957.5832,-1239.3744 1947.0069,-1240.0016 1949.7064,-1246.4602"/>
</g>
<!-- _30&#45;&gt;_1 -->
<g id="edge33" class="edge">
<title>_30&#45;&gt;_1</title>
<path fill="none" stroke="#000000" d="M1682.2,-318.4144C1712.35,-323.3539 1741.6485,-334.149 1764.002,-354.864 1825.1213,-411.5035 1764.9474,-463.2679 1800.002,-538.864 1844.5458,-634.9239 1932.7177,-726.4987 1977.1908,-769.039"/>
<polygon fill="#000000" stroke="#000000" points="1974.7874,-771.5834 1984.4536,-775.9211 1979.6022,-766.5023 1974.7874,-771.5834"/>
</g>
<!-- _30&#45;&gt;_22 -->
<g id="edge35" class="edge">
<title>_30&#45;&gt;_22</title>
<path fill="none" stroke="#000000" d="M1558.5475,-309.8695C1603.1658,-277.5869 1703.3054,-210.9563 1800.002,-186.864 1975.8745,-143.0448 2490.0479,-93.3205 2614.7378,-224.864 2649.3536,-261.3825 2640.5673,-1080.585 2650.7378,-1129.864 2687.8831,-1309.8444 2784.6769,-1510.6885 2821.1963,-1582.5113"/>
<polygon fill="#000000" stroke="#000000" points="2818.2653,-1584.4666 2825.9369,-1591.7739 2824.4966,-1581.2774 2818.2653,-1584.4666"/>
</g>
<!-- _30&#45;&gt;_23 -->
<g id="edge36" class="edge">
<title>_30&#45;&gt;_23</title>
<path fill="none" stroke="#000000" d="M1695.6938,-334.5877C1871.3681,-345.3609 2137.0904,-372.8597 2208.3695,-441.864 2348.4583,-577.482 2414.1627,-1231.6083 2427.1233,-1376.4332"/>
<polygon fill="#000000" stroke="#000000" points="2423.6635,-1377.0435 2428.0293,-1386.697 2430.6364,-1376.4279 2423.6635,-1377.0435"/>
</g>
<!-- _30&#45;&gt;_24 -->
<g id="edge32" class="edge">
<title>_30&#45;&gt;_24</title>
<path fill="none" stroke="#000000" d="M1549.2265,-309.7794C1585.8477,-266.1027 1686.7468,-155.5458 1800.002,-115.864 1885.4362,-85.93 2544.2137,-61.1067 2614.7378,-117.864 2770.4053,-243.1442 2823.8527,-926.8376 2833.6697,-1074.6707"/>
<polygon fill="#000000" stroke="#000000" points="2830.1833,-1074.9939 2834.3257,-1084.7454 2837.1685,-1074.539 2830.1833,-1074.9939"/>
</g>
<!-- _30&#45;&gt;_31 -->
<g id="edge34" class="edge">
<title>_30&#45;&gt;_31</title>
<path fill="none" stroke="#000000" d="M1633.1662,-313.0405C1679.2846,-311.9752 1731.1609,-320.2436 1764.002,-354.864 1806.7602,-399.9388 1777.5466,-854.9351 1800.002,-912.864 1838.0785,-1011.0912 1928.4004,-1101.0276 1975.102,-1142.9885"/>
<polygon fill="#000000" stroke="#000000" points="1972.9496,-1145.758 1982.7507,-1149.7816 1977.5979,-1140.5242 1972.9496,-1145.758"/>
</g>
<!-- _39 -->
<g id="node40" class="node">
<title>_39</title>
<ellipse fill="#afeeee" stroke="#afeeee" cx="2429.5537" cy="-1943.864" rx="183.9149" ry="18"/>
<text text-anchor="middle" x="2429.5537" y="-1939.664" font-family="Times,serif" font-size="14.00" fill="#000000">github.com/goreleaser/goreleaser/pkg/archive/tar</text>
</g>
<!-- _33&#45;&gt;_39 -->
<g id="edge138" class="edge">
<title>_33&#45;&gt;_39</title>
<path fill="none" stroke="#000000" d="M2113.7286,-1983.9577C2172.8392,-1976.4536 2245.9746,-1967.1692 2306.9769,-1959.425"/>
<polygon fill="#000000" stroke="#000000" points="2307.568,-1962.8781 2317.0476,-1958.1465 2306.6864,-1955.9339 2307.568,-1962.8781"/>
</g>
<!-- _40 -->
<g id="node41" class="node">
<title>_40</title>
<ellipse fill="#afeeee" stroke="#afeeee" cx="2429.5537" cy="-1997.864" rx="185.3685" ry="18"/>
<text text-anchor="middle" x="2429.5537" y="-1993.664" font-family="Times,serif" font-size="14.00" fill="#000000">github.com/goreleaser/goreleaser/pkg/archive/zip</text>
</g>
<!-- _33&#45;&gt;_40 -->
<g id="edge139" class="edge">
<title>_33&#45;&gt;_40</title>
<path fill="none" stroke="#000000" d="M2176.2795,-1997.864C2195.3138,-1997.864 2214.7987,-1997.864 2234.0933,-1997.864"/>
<polygon fill="#000000" stroke="#000000" points="2234.1624,-2001.3641 2244.1623,-1997.864 2234.1623,-1994.3641 2234.1624,-2001.3641"/>
</g>
<!-- _34&#45;&gt;_23 -->
<g id="edge104" class="edge">
<title>_34&#45;&gt;_23</title>
<path fill="none" stroke="#000000" d="M1227.0257,-1599.1399C1241.7794,-1603.6523 1256.0487,-1609.456 1269.2163,-1616.864 1291.8424,-1629.5933 1281.878,-1651.493 1305.2163,-1662.864 1485.645,-1750.7733 2026.1003,-1740.8906 2208.3695,-1656.864 2261.5276,-1632.358 2367.6673,-1490.8354 2410.7397,-1431.2725"/>
<polygon fill="#000000" stroke="#000000" points="2413.6193,-1433.263 2416.6232,-1423.1029 2407.939,-1429.1722 2413.6193,-1433.263"/>
</g>
<!-- _35&#45;&gt;_23 -->
<g id="edge135" class="edge">
<title>_35&#45;&gt;_23</title>
<path fill="none" stroke="#000000" d="M1234.9303,-1544.746C1247.0558,-1549.5063 1258.624,-1555.4632 1269.2163,-1562.864 1298.2186,-1583.1278 1275.0681,-1615.3482 1305.2163,-1633.864 1390.7325,-1686.3845 2115.9925,-1663.0803 2208.3695,-1623.864 2303.8969,-1583.3103 2380.5751,-1480.3543 2412.9243,-1431.445"/>
<polygon fill="#000000" stroke="#000000" points="2415.9199,-1433.2587 2418.4433,-1422.9687 2410.0538,-1429.4391 2415.9199,-1433.2587"/>
</g>
<!-- _37&#45;&gt;_36 -->
<g id="edge144" class="edge">
<title>_37&#45;&gt;_36</title>
<path fill="none" stroke="#000000" d="M2110.7008,-277.3795C2175.4054,-283.1598 2257.7426,-290.5154 2322.538,-296.3038"/>
<polygon fill="#000000" stroke="#000000" points="2322.5094,-299.8151 2332.7812,-297.2189 2323.1323,-292.8429 2322.5094,-299.8151"/>
</g>
<!-- _41 -->
<g id="node42" class="node">
<title>_41</title>
<ellipse fill="#afeeee" stroke="#afeeee" cx="2429.5537" cy="-251.864" rx="128.4745" ry="18"/>
<text text-anchor="middle" x="2429.5537" y="-247.664" font-family="Times,serif" font-size="14.00" fill="#000000">github.com/goreleaser/nfpm/glob</text>
</g>
<!-- _37&#45;&gt;_41 -->
<g id="edge145" class="edge">
<title>_37&#45;&gt;_41</title>
<path fill="none" stroke="#000000" d="M2125.5099,-263.3005C2178.564,-261.3049 2240.9824,-258.957 2295.415,-256.9096"/>
<polygon fill="#000000" stroke="#000000" points="2295.6205,-260.4044 2305.4818,-256.5309 2295.3573,-253.4094 2295.6205,-260.4044"/>
</g>
<!-- _38&#45;&gt;_36 -->
<g id="edge146" class="edge">
<title>_38&#45;&gt;_36</title>
<path fill="none" stroke="#000000" d="M2129.4361,-216.8569C2156.5189,-221.1596 2184.2444,-228.5502 2208.3695,-240.864 2229.0908,-251.4405 2223.7191,-268.1499 2244.3695,-278.864 2264.9356,-289.5344 2288.4137,-296.3551 2311.5855,-300.643"/>
<polygon fill="#000000" stroke="#000000" points="2311.0425,-304.1008 2321.4882,-302.3294 2312.2177,-297.2001 2311.0425,-304.1008"/>
</g>
<!-- _38&#45;&gt;_41 -->
<g id="edge147" class="edge">
<title>_38&#45;&gt;_41</title>
<path fill="none" stroke="#000000" d="M2111.524,-223.453C2172.2565,-228.8785 2248.321,-235.6737 2310.8317,-241.258"/>
<polygon fill="#000000" stroke="#000000" points="2310.8688,-244.7752 2321.1406,-242.179 2311.4917,-237.803 2310.8688,-244.7752"/>
</g>
</g>
</svg>
