<?xml version="1.0" encoding="UTF-8" standalone="no"?>
<!DOCTYPE svg PUBLIC "-//W3C//DTD SVG 1.1//EN"
 "http://www.w3.org/Graphics/SVG/1.1/DTD/svg11.dtd">
<!-- Generated by graphviz version 2.40.1 (20161225.0304)
 -->
<!-- Title: godep Pages: 1 -->
<svg width="3361pt" height="2320pt"
 viewBox="0.00 0.00 3360.81 2320.28" xmlns="http://www.w3.org/2000/svg" xmlns:xlink="http://www.w3.org/1999/xlink">
<g id="graph0" class="graph" transform="scale(1 1) rotate(0) translate(4 2316.2829)">
<title>godep</title>
<polygon fill="#ffffff" stroke="transparent" points="-4,4 -4,-2316.2829 3356.8058,-2316.2829 3356.8058,4 -4,4"/>
<!-- _0 -->
<g id="node1" class="node">
<title>_0</title>
<ellipse fill="#afeeee" stroke="#afeeee" cx="127.7232" cy="-478.389" rx="127.9468" ry="18"/>
<text text-anchor="middle" x="127.7232" y="-474.189" font-family="Times,serif" font-size="14.00" fill="#000000">github.com/goreleaser/goreleaser</text>
</g>
<!-- _1 -->
<g id="node2" class="node">
<title>_1</title>
<ellipse fill="#afeeee" stroke="#afeeee" cx="2336.8873" cy="-774.389" rx="174.7451" ry="18"/>
<text text-anchor="middle" x="2336.8873" y="-770.189" font-family="Times,serif" font-size="14.00" fill="#000000">github.com/goreleaser/goreleaser/internal/pipe</text>
</g>
<!-- _0&#45;&gt;_1 -->
<g id="edge1" class="edge">
<title>_0&#45;&gt;_1</title>
<path fill="none" stroke="#000000" d="M131.5196,-496.6474C162.1284,-638.3049 381.8023,-1556.389 933.9221,-1556.389 933.9221,-1556.389 933.9221,-1556.389 1414.2853,-1556.389 1726.9594,-1556.389 1896.3382,-1625.4282 2096.7035,-1385.389 2174.6242,-1292.0394 2057.7458,-935.1341 2132.7035,-839.389 2151.3497,-815.5718 2178.7489,-800.3268 2207.4599,-790.6114"/>
<polygon fill="#000000" stroke="#000000" points="2208.7544,-793.8731 2217.2363,-787.5242 2206.6465,-787.198 2208.7544,-793.8731"/>
</g>
<!-- _2 -->
<g id="node3" class="node">
<title>_2</title>
<ellipse fill="#afeeee" stroke="#afeeee" cx="479.5798" cy="-859.389" rx="188.2669" ry="18"/>
<text text-anchor="middle" x="479.5798" y="-855.189" font-family="Times,serif" font-size="14.00" fill="#000000">github.com/goreleaser/goreleaser/internal/pipeline</text>
</g>
<!-- _0&#45;&gt;_2 -->
<g id="edge2" class="edge">
<title>_0&#45;&gt;_2</title>
<path fill="none" stroke="#000000" d="M144.222,-496.2544C201.1148,-557.8595 389.2643,-761.5929 455.9174,-833.7667"/>
<polygon fill="#000000" stroke="#000000" points="453.3514,-836.147 462.7072,-841.1189 458.4939,-831.3978 453.3514,-836.147"/>
</g>
<!-- _3 -->
<g id="node4" class="node">
<title>_3</title>
<ellipse fill="#afeeee" stroke="#afeeee" cx="3168.1225" cy="-1334.389" rx="168.0221" ry="18"/>
<text text-anchor="middle" x="3168.1225" y="-1330.189" font-family="Times,serif" font-size="14.00" fill="#000000">github.com/goreleaser/goreleaser/pkg/config</text>
</g>
<!-- _0&#45;&gt;_3 -->
<g id="edge3" class="edge">
<title>_0&#45;&gt;_3</title>
<path fill="none" stroke="#000000" d="M129.3913,-460.3685C136.173,-398.4335 167.5535,-193.0784 291.4464,-101.389 522.4485,69.5686 646.54,-28.389 933.9221,-28.389 933.9221,-28.389 933.9221,-28.389 2336.8873,-28.389 2636.3514,-28.389 2778.904,-65.8519 2947.4393,-313.389 3063.6876,-484.1293 3147.7916,-1159.4515 3164.9106,-1306.165"/>
<polygon fill="#000000" stroke="#000000" points="3161.442,-1306.6394 3166.0694,-1316.1703 3168.3956,-1305.834 3161.442,-1306.6394"/>
</g>
<!-- _4 -->
<g id="node5" class="node">
<title>_4</title>
<ellipse fill="#afeeee" stroke="#afeeee" cx="2762.2552" cy="-1080.389" rx="171.8638" ry="18"/>
<text text-anchor="middle" x="2762.2552" y="-1076.189" font-family="Times,serif" font-size="14.00" fill="#000000">github.com/goreleaser/goreleaser/pkg/context</text>
</g>
<!-- _0&#45;&gt;_4 -->
<g id="edge4" class="edge">
<title>_0&#45;&gt;_4</title>
<path fill="none" stroke="#000000" d="M146.0245,-460.2812C213.1935,-395.1485 455.1961,-172.0143 703.7132,-84.389 800.5004,-50.2626 831.2948,-66.389 933.9221,-66.389 933.9221,-66.389 933.9221,-66.389 1880.5715,-66.389 2027.4629,-66.389 2428.2459,1.6725 2541.071,-92.389 2695.0106,-220.7273 2750.206,-904.4111 2760.4254,-1052.2056"/>
<polygon fill="#000000" stroke="#000000" points="2756.9398,-1052.5373 2761.109,-1062.2774 2763.9237,-1052.0633 2756.9398,-1052.5373"/>
</g>
<!-- _2&#45;&gt;_4 -->
<g id="edge134" class="edge">
<title>_2&#45;&gt;_4</title>
<path fill="none" stroke="#000000" d="M482.4534,-841.3013C499.0483,-739.2879 586.0034,-237.1467 703.7132,-145.389 828.4574,-48.1478 1256.1178,-104.389 1414.2853,-104.389 1414.2853,-104.389 1414.2853,-104.389 1880.5715,-104.389 1953.9907,-104.389 2484.2701,-76.8699 2541.071,-123.389 2691.025,-246.199 2749.074,-905.533 2760.1961,-1051.6851"/>
<polygon fill="#000000" stroke="#000000" points="2756.7347,-1052.3332 2760.9706,-1062.0444 2763.7152,-1051.8112 2756.7347,-1052.3332"/>
</g>
<!-- _14 -->
<g id="node15" class="node">
<title>_14</title>
<ellipse fill="#afeeee" stroke="#afeeee" cx="1880.5715" cy="-2124.389" rx="203.2009" ry="18"/>
<text text-anchor="middle" x="1880.5715" y="-2120.189" font-family="Times,serif" font-size="14.00" fill="#000000">github.com/goreleaser/goreleaser/internal/pipe/archive</text>
</g>
<!-- _2&#45;&gt;_14 -->
<g id="edge114" class="edge">
<title>_2&#45;&gt;_14</title>
<path fill="none" stroke="#000000" d="M482.2797,-877.4349C499.0716,-987.6824 592.1399,-1570.1866 703.7132,-1706.389 949.2474,-2006.1234 1425.4496,-2091.079 1690.6376,-2115.0558"/>
<polygon fill="#000000" stroke="#000000" points="1690.4924,-2118.5565 1700.7618,-2115.9508 1691.1089,-2111.5837 1690.4924,-2118.5565"/>
</g>
<!-- _16 -->
<g id="node17" class="node">
<title>_16</title>
<ellipse fill="#afeeee" stroke="#afeeee" cx="1414.2853" cy="-736.389" rx="214.3086" ry="18"/>
<text text-anchor="middle" x="1414.2853" y="-732.189" font-family="Times,serif" font-size="14.00" fill="#000000">github.com/goreleaser/goreleaser/internal/pipe/artifactory</text>
</g>
<!-- _2&#45;&gt;_16 -->
<g id="edge115" class="edge">
<title>_2&#45;&gt;_16</title>
<path fill="none" stroke="#000000" d="M525.6084,-841.9063C570.3921,-825.6925 640.7092,-802.3262 703.7132,-790.389 866.3423,-759.5762 1053.062,-746.221 1194.2741,-740.492"/>
<polygon fill="#000000" stroke="#000000" points="1194.5081,-743.9856 1204.3618,-740.0926 1194.2311,-736.9911 1194.5081,-743.9856"/>
</g>
<!-- _17 -->
<g id="node18" class="node">
<title>_17</title>
<ellipse fill="#afeeee" stroke="#afeeee" cx="933.9221" cy="-882.389" rx="199.8264" ry="18"/>
<text text-anchor="middle" x="933.9221" y="-878.189" font-family="Times,serif" font-size="14.00" fill="#000000">github.com/goreleaser/goreleaser/internal/pipe/before</text>
</g>
<!-- _2&#45;&gt;_17 -->
<g id="edge116" class="edge">
<title>_2&#45;&gt;_17</title>
<path fill="none" stroke="#000000" d="M646.1802,-867.8228C679.7189,-869.5206 715.1577,-871.3146 749.27,-873.0414"/>
<polygon fill="#000000" stroke="#000000" points="749.1659,-876.5406 759.3301,-873.5507 749.5198,-869.5495 749.1659,-876.5406"/>
</g>
<!-- _18 -->
<g id="node19" class="node">
<title>_18</title>
<ellipse fill="#afeeee" stroke="#afeeee" cx="1414.2853" cy="-1740.389" rx="195.0156" ry="18"/>
<text text-anchor="middle" x="1414.2853" y="-1736.189" font-family="Times,serif" font-size="14.00" fill="#000000">github.com/goreleaser/goreleaser/internal/pipe/brew</text>
</g>
<!-- _2&#45;&gt;_18 -->
<g id="edge117" class="edge">
<title>_2&#45;&gt;_18</title>
<path fill="none" stroke="#000000" d="M480.4701,-877.4615C485.5347,-960.5103 517.567,-1309.3618 703.7132,-1494.389 794.6635,-1584.7926 1164.5061,-1681.3202 1331.6171,-1721.3297"/>
<polygon fill="#000000" stroke="#000000" points="1330.8195,-1724.7375 1341.3586,-1723.6529 1332.4434,-1717.9285 1330.8195,-1724.7375"/>
</g>
<!-- _19 -->
<g id="node20" class="node">
<title>_19</title>
<ellipse fill="#afeeee" stroke="#afeeee" cx="1414.2853" cy="-1433.389" rx="195.5174" ry="18"/>
<text text-anchor="middle" x="1414.2853" y="-1429.189" font-family="Times,serif" font-size="14.00" fill="#000000">github.com/goreleaser/goreleaser/internal/pipe/build</text>
</g>
<!-- _2&#45;&gt;_19 -->
<g id="edge118" class="edge">
<title>_2&#45;&gt;_19</title>
<path fill="none" stroke="#000000" d="M481.2788,-877.4057C489.3832,-952.1785 531.2107,-1239.9459 703.7132,-1364.389 782.2653,-1421.0564 1029.7627,-1434.2491 1210.6339,-1435.9297"/>
<polygon fill="#000000" stroke="#000000" points="1210.7909,-1439.431 1220.8192,-1436.0129 1210.8481,-1432.4312 1210.7909,-1439.431"/>
</g>
<!-- _20 -->
<g id="node21" class="node">
<title>_20</title>
<ellipse fill="#afeeee" stroke="#afeeee" cx="1880.5715" cy="-226.389" rx="213.8414" ry="18"/>
<text text-anchor="middle" x="1880.5715" y="-222.189" font-family="Times,serif" font-size="14.00" fill="#000000">github.com/goreleaser/goreleaser/internal/pipe/changelog</text>
</g>
<!-- _2&#45;&gt;_20 -->
<g id="edge119" class="edge">
<title>_2&#45;&gt;_20</title>
<path fill="none" stroke="#000000" d="M484.0626,-841.1514C500.7271,-777.4317 565.3993,-563.1006 703.7132,-461.389 791.6473,-396.7251 1556.9387,-275.2936 1664.4396,-256.389 1692.4747,-251.4589 1722.6725,-246.8384 1751.3482,-242.7704"/>
<polygon fill="#000000" stroke="#000000" points="1752.006,-246.2125 1761.4216,-241.355 1751.0319,-239.2806 1752.006,-246.2125"/>
</g>
<!-- _21 -->
<g id="node22" class="node">
<title>_21</title>
<ellipse fill="#afeeee" stroke="#afeeee" cx="1880.5715" cy="-1358.389" rx="216.264" ry="18"/>
<text text-anchor="middle" x="1880.5715" y="-1354.189" font-family="Times,serif" font-size="14.00" fill="#000000">github.com/goreleaser/goreleaser/internal/pipe/checksums</text>
</g>
<!-- _2&#45;&gt;_21 -->
<g id="edge120" class="edge">
<title>_2&#45;&gt;_21</title>
<path fill="none" stroke="#000000" d="M484.451,-877.6547C501.9771,-939.464 568.0955,-1141.8912 703.7132,-1231.389 855.0752,-1331.277 1357.1137,-1353.7981 1654.346,-1358.1525"/>
<polygon fill="#000000" stroke="#000000" points="1654.3455,-1361.6527 1664.3938,-1358.2939 1654.4441,-1354.6534 1654.3455,-1361.6527"/>
</g>
<!-- _22 -->
<g id="node23" class="node">
<title>_22</title>
<ellipse fill="#afeeee" stroke="#afeeee" cx="933.9221" cy="-1140.389" rx="205.1476" ry="18"/>
<text text-anchor="middle" x="933.9221" y="-1136.189" font-family="Times,serif" font-size="14.00" fill="#000000">github.com/goreleaser/goreleaser/internal/pipe/defaults</text>
</g>
<!-- _2&#45;&gt;_22 -->
<g id="edge121" class="edge">
<title>_2&#45;&gt;_22</title>
<path fill="none" stroke="#000000" d="M492.7829,-877.5538C524.3116,-919.5804 608.4958,-1024.0675 703.7132,-1078.389 739.9219,-1099.0461 783.2715,-1113.0457 822.5389,-1122.4289"/>
<polygon fill="#000000" stroke="#000000" points="821.8958,-1125.8725 832.4274,-1124.7162 823.4734,-1119.0525 821.8958,-1125.8725"/>
</g>
<!-- _23 -->
<g id="node24" class="node">
<title>_23</title>
<ellipse fill="#afeeee" stroke="#afeeee" cx="1880.5715" cy="-1304.389" rx="201.28" ry="18"/>
<text text-anchor="middle" x="1880.5715" y="-1300.189" font-family="Times,serif" font-size="14.00" fill="#000000">github.com/goreleaser/goreleaser/internal/pipe/docker</text>
</g>
<!-- _2&#45;&gt;_23 -->
<g id="edge123" class="edge">
<title>_2&#45;&gt;_23</title>
<path fill="none" stroke="#000000" d="M486.7451,-877.4275C509.3176,-931.6725 584.5982,-1094.0751 703.7132,-1167.389 861.1995,-1264.32 1378.0237,-1292.6735 1671.7226,-1300.9647"/>
<polygon fill="#000000" stroke="#000000" points="1671.9822,-1304.4731 1682.0752,-1301.2513 1672.176,-1297.4758 1671.9822,-1304.4731"/>
</g>
<!-- _24 -->
<g id="node25" class="node">
<title>_24</title>
<ellipse fill="#afeeee" stroke="#afeeee" cx="1414.2853" cy="-682.389" rx="190.1963" ry="18"/>
<text text-anchor="middle" x="1414.2853" y="-678.189" font-family="Times,serif" font-size="14.00" fill="#000000">github.com/goreleaser/goreleaser/internal/pipe/env</text>
</g>
<!-- _2&#45;&gt;_24 -->
<g id="edge125" class="edge">
<title>_2&#45;&gt;_24</title>
<path fill="none" stroke="#000000" d="M504.2464,-841.3581C543.9585,-813.4323 625.5496,-760.5319 703.7132,-737.389 876.0556,-686.3613 1081.6041,-675.5344 1227.1826,-675.7157"/>
<polygon fill="#000000" stroke="#000000" points="1227.5486,-679.2167 1237.5593,-675.7473 1227.5701,-672.2167 1227.5486,-679.2167"/>
</g>
<!-- _25 -->
<g id="node26" class="node">
<title>_25</title>
<ellipse fill="#afeeee" stroke="#afeeee" cx="1880.5715" cy="-862.389" rx="195.9933" ry="18"/>
<text text-anchor="middle" x="1880.5715" y="-858.189" font-family="Times,serif" font-size="14.00" fill="#000000">github.com/goreleaser/goreleaser/internal/pipe/nfpm</text>
</g>
<!-- _2&#45;&gt;_25 -->
<g id="edge127" class="edge">
<title>_2&#45;&gt;_25</title>
<path fill="none" stroke="#000000" d="M664.2654,-855.8321C677.6147,-855.6551 690.8707,-855.5036 703.7132,-855.389 1045.2427,-852.3417 1442.5359,-856.2587 1677.1484,-859.3442"/>
<polygon fill="#000000" stroke="#000000" points="1677.1112,-862.8439 1687.1566,-859.4766 1677.2038,-855.8445 1677.1112,-862.8439"/>
</g>
<!-- _27 -->
<g id="node28" class="node">
<title>_27</title>
<ellipse fill="#afeeee" stroke="#afeeee" cx="1414.2853" cy="-790.389" rx="201.7473" ry="18"/>
<text text-anchor="middle" x="1414.2853" y="-786.189" font-family="Times,serif" font-size="14.00" fill="#000000">github.com/goreleaser/goreleaser/internal/pipe/release</text>
</g>
<!-- _2&#45;&gt;_27 -->
<g id="edge129" class="edge">
<title>_2&#45;&gt;_27</title>
<path fill="none" stroke="#000000" d="M562.8141,-843.2341C604.8889,-835.684 656.8401,-827.2959 703.7132,-822.389 871.4773,-804.8268 1062.5159,-796.8956 1204.2275,-793.3177"/>
<polygon fill="#000000" stroke="#000000" points="1204.4341,-796.8138 1214.3445,-793.0676 1204.261,-789.8159 1204.4341,-796.8138"/>
</g>
<!-- _28 -->
<g id="node29" class="node">
<title>_28</title>
<ellipse fill="#afeeee" stroke="#afeeee" cx="1880.5715" cy="-1694.389" rx="185.3857" ry="18"/>
<text text-anchor="middle" x="1880.5715" y="-1690.189" font-family="Times,serif" font-size="14.00" fill="#000000">github.com/goreleaser/goreleaser/internal/pipe/s3</text>
</g>
<!-- _2&#45;&gt;_28 -->
<g id="edge130" class="edge">
<title>_2&#45;&gt;_28</title>
<path fill="none" stroke="#000000" d="M480.8478,-877.6417C487.3489,-956.1923 524.0434,-1268.0228 703.7132,-1413.389 865.239,-1544.0754 982.4007,-1393.6738 1164.1311,-1494.389 1185.0508,-1505.9828 1179.7845,-1521.8165 1200.1311,-1534.389 1382.2287,-1646.9101 1454.9958,-1618.1868 1664.4396,-1662.389 1694.0333,-1668.6346 1726.1596,-1674.094 1756.3699,-1678.6511"/>
<polygon fill="#000000" stroke="#000000" points="1756.1293,-1682.1537 1766.5352,-1680.1618 1757.1584,-1675.2297 1756.1293,-1682.1537"/>
</g>
<!-- _29 -->
<g id="node30" class="node">
<title>_29</title>
<ellipse fill="#afeeee" stroke="#afeeee" cx="1414.2853" cy="-1794.389" rx="197.9228" ry="18"/>
<text text-anchor="middle" x="1414.2853" y="-1790.189" font-family="Times,serif" font-size="14.00" fill="#000000">github.com/goreleaser/goreleaser/internal/pipe/scoop</text>
</g>
<!-- _2&#45;&gt;_29 -->
<g id="edge131" class="edge">
<title>_2&#45;&gt;_29</title>
<path fill="none" stroke="#000000" d="M482.7828,-877.6407C501.1899,-980.6475 596.4459,-1488.608 703.7132,-1599.389 833.9992,-1733.9427 1047.6792,-1778.3718 1206.7497,-1791.7527"/>
<polygon fill="#000000" stroke="#000000" points="1206.8983,-1795.2759 1217.147,-1792.5898 1207.4601,-1788.2985 1206.8983,-1795.2759"/>
</g>
<!-- _30 -->
<g id="node31" class="node">
<title>_30</title>
<ellipse fill="#afeeee" stroke="#afeeee" cx="1880.5715" cy="-1098.389" rx="192.143" ry="18"/>
<text text-anchor="middle" x="1880.5715" y="-1094.189" font-family="Times,serif" font-size="14.00" fill="#000000">github.com/goreleaser/goreleaser/internal/pipe/sign</text>
</g>
<!-- _2&#45;&gt;_30 -->
<g id="edge132" class="edge">
<title>_2&#45;&gt;_30</title>
<path fill="none" stroke="#000000" d="M518.3927,-877.0372C562.4147,-896.316 636.7878,-926.6729 703.7132,-943.389 1054.1431,-1030.9165 1476.373,-1071.2481 1707.8271,-1087.981"/>
<polygon fill="#000000" stroke="#000000" points="1707.7976,-1091.4878 1718.0223,-1088.7117 1708.2981,-1084.5057 1707.7976,-1091.4878"/>
</g>
<!-- _31 -->
<g id="node32" class="node">
<title>_31</title>
<ellipse fill="#afeeee" stroke="#afeeee" cx="1880.5715" cy="-961.389" rx="209.974" ry="18"/>
<text text-anchor="middle" x="1880.5715" y="-957.189" font-family="Times,serif" font-size="14.00" fill="#000000">github.com/goreleaser/goreleaser/internal/pipe/snapcraft</text>
</g>
<!-- _2&#45;&gt;_31 -->
<g id="edge133" class="edge">
<title>_2&#45;&gt;_31</title>
<path fill="none" stroke="#000000" d="M542.3302,-876.4871C586.9784,-887.8885 648.5791,-902.0787 703.7132,-909.389 1035.7469,-953.4137 1424.5971,-962.3917 1661.6794,-963.1466"/>
<polygon fill="#000000" stroke="#000000" points="1661.7914,-966.6468 1671.8009,-963.1741 1661.8105,-959.6468 1661.7914,-966.6468"/>
</g>
<!-- _33 -->
<g id="node34" class="node">
<title>_33</title>
<ellipse fill="#afeeee" stroke="#afeeee" cx="933.9221" cy="-313.389" rx="190.2136" ry="18"/>
<text text-anchor="middle" x="933.9221" y="-309.189" font-family="Times,serif" font-size="14.00" fill="#000000">github.com/goreleaser/goreleaser/internal/pipe/dist</text>
</g>
<!-- _2&#45;&gt;_33 -->
<g id="edge122" class="edge">
<title>_2&#45;&gt;_33</title>
<path fill="none" stroke="#000000" d="M482.9352,-840.919C496.6176,-770.9142 554.7186,-519.2768 703.7132,-388.389 736.3112,-359.7525 780.0498,-342.0157 820.6448,-331.0445"/>
<polygon fill="#000000" stroke="#000000" points="821.5367,-334.429 830.3402,-328.5341 819.7821,-327.6525 821.5367,-334.429"/>
</g>
<!-- _34 -->
<g id="node35" class="node">
<title>_34</title>
<ellipse fill="#afeeee" stroke="#afeeee" cx="933.9221" cy="-172.389" rx="230.4181" ry="18"/>
<text text-anchor="middle" x="933.9221" y="-168.189" font-family="Times,serif" font-size="14.00" fill="#000000">github.com/goreleaser/goreleaser/internal/pipe/effectiveconfig</text>
</g>
<!-- _2&#45;&gt;_34 -->
<g id="edge124" class="edge">
<title>_2&#45;&gt;_34</title>
<path fill="none" stroke="#000000" d="M481.8749,-841.2628C492.4845,-764.4086 543.2964,-461.3961 703.7132,-286.389 745.9677,-240.2913 810.9951,-210.4916 861.1738,-192.9653"/>
<polygon fill="#000000" stroke="#000000" points="862.3423,-196.2649 870.6806,-189.7285 860.0861,-189.6384 862.3423,-196.2649"/>
</g>
<!-- _35 -->
<g id="node36" class="node">
<title>_35</title>
<ellipse fill="#afeeee" stroke="#afeeee" cx="1880.5715" cy="-404.389" rx="186.8306" ry="18"/>
<text text-anchor="middle" x="1880.5715" y="-400.189" font-family="Times,serif" font-size="14.00" fill="#000000">github.com/goreleaser/goreleaser/internal/pipe/git</text>
</g>
<!-- _2&#45;&gt;_35 -->
<g id="edge126" class="edge">
<title>_2&#45;&gt;_35</title>
<path fill="none" stroke="#000000" d="M486.0879,-841.2573C507.2706,-785.1815 580.1033,-613.9286 703.7132,-540.389 789.1613,-489.5531 1416.9627,-437.9211 1719.0474,-415.6992"/>
<polygon fill="#000000" stroke="#000000" points="1719.4962,-419.1758 1729.2133,-414.9534 1718.984,-412.1945 1719.4962,-419.1758"/>
</g>
<!-- _36 -->
<g id="node37" class="node">
<title>_36</title>
<ellipse fill="#afeeee" stroke="#afeeee" cx="1414.2853" cy="-519.389" rx="188.76" ry="18"/>
<text text-anchor="middle" x="1414.2853" y="-515.189" font-family="Times,serif" font-size="14.00" fill="#000000">github.com/goreleaser/goreleaser/internal/pipe/put</text>
</g>
<!-- _2&#45;&gt;_36 -->
<g id="edge128" class="edge">
<title>_2&#45;&gt;_36</title>
<path fill="none" stroke="#000000" d="M495.2498,-841.4291C529.1966,-803.7381 613.7521,-716.2567 703.7132,-672.389 880.9767,-585.9501 1106.6311,-548.0287 1255.528,-531.6014"/>
<polygon fill="#000000" stroke="#000000" points="1256.1037,-535.0596 1265.6685,-530.5028 1255.3497,-528.1003 1256.1037,-535.0596"/>
</g>
<!-- _4&#45;&gt;_3 -->
<g id="edge142" class="edge">
<title>_4&#45;&gt;_3</title>
<path fill="none" stroke="#000000" d="M2790.795,-1098.2498C2862.5503,-1143.1557 3050.4716,-1260.7607 3130.817,-1311.0425"/>
<polygon fill="#000000" stroke="#000000" points="3129.2806,-1314.2098 3139.6143,-1316.548 3132.9942,-1308.276 3129.2806,-1314.2098"/>
</g>
<!-- _5 -->
<g id="node6" class="node">
<title>_5</title>
<ellipse fill="#afeeee" stroke="#afeeee" cx="3168.1225" cy="-1579.389" rx="184.8667" ry="18"/>
<text text-anchor="middle" x="3168.1225" y="-1575.189" font-family="Times,serif" font-size="14.00" fill="#000000">github.com/goreleaser/goreleaser/internal/artifact</text>
</g>
<!-- _4&#45;&gt;_5 -->
<g id="edge141" class="edge">
<title>_4&#45;&gt;_5</title>
<path fill="none" stroke="#000000" d="M2776.2634,-1098.6495C2810.8938,-1143.6894 2903.5208,-1263.5349 2983.4393,-1361.389 3040.8269,-1431.6558 3110.483,-1512.7942 3145.5841,-1553.4027"/>
<polygon fill="#000000" stroke="#000000" points="3143.1418,-1555.9292 3152.3315,-1561.2018 3148.4356,-1551.3493 3143.1418,-1555.9292"/>
</g>
<!-- _6 -->
<g id="node7" class="node">
<title>_6</title>
<ellipse fill="#afeeee" stroke="#afeeee" cx="1880.5715" cy="-1602.389" rx="214.8277" ry="18"/>
<text text-anchor="middle" x="1880.5715" y="-1598.189" font-family="Times,serif" font-size="14.00" fill="#000000">github.com/goreleaser/goreleaser/internal/builders/golang</text>
</g>
<!-- _6&#45;&gt;_3 -->
<g id="edge8" class="edge">
<title>_6&#45;&gt;_3</title>
<path fill="none" stroke="#000000" d="M2011.9287,-1616.6511C2050.7672,-1620.251 2093.4048,-1623.6003 2132.7035,-1625.389 2314.0125,-1633.6416 2371.9207,-1691.1857 2541.071,-1625.389 2561.2996,-1617.5204 2558.2645,-1603.2253 2577.071,-1592.389 2726.5287,-1506.2715 2791.2033,-1549.4925 2947.4393,-1476.389 3019.2461,-1442.7903 3095.3978,-1389.2586 3136.8103,-1358.416"/>
<polygon fill="#000000" stroke="#000000" points="3138.9612,-1361.1779 3144.862,-1352.3785 3134.7617,-1355.5775 3138.9612,-1361.1779"/>
</g>
<!-- _6&#45;&gt;_4 -->
<g id="edge9" class="edge">
<title>_6&#45;&gt;_4</title>
<path fill="none" stroke="#000000" d="M2007.0781,-1587.7872C2036.6966,-1583.2319 2067.9809,-1577.4881 2096.7035,-1570.389 2299.9022,-1520.1663 2375.9395,-1543.0111 2541.071,-1414.389 2651.4843,-1328.3874 2724.9837,-1171.2111 2751.3778,-1107.8981"/>
<polygon fill="#000000" stroke="#000000" points="2754.6481,-1109.148 2755.2079,-1098.568 2748.1725,-1106.4897 2754.6481,-1109.148"/>
</g>
<!-- _6&#45;&gt;_5 -->
<g id="edge5" class="edge">
<title>_6&#45;&gt;_5</title>
<path fill="none" stroke="#000000" d="M2059.8972,-1612.372C2072.6096,-1615.8291 2085.0096,-1620.1109 2096.7035,-1625.389 2116.4868,-1634.3184 2112.4749,-1650.5204 2132.7035,-1658.389 2301.4398,-1724.0247 2769.0548,-1689.3558 2947.4393,-1658.389 3009.8197,-1647.5601 3077.8882,-1620.7143 3121.6902,-1601.3199"/>
<polygon fill="#000000" stroke="#000000" points="3123.2339,-1604.4635 3130.9284,-1597.1803 3120.3714,-1598.0755 3123.2339,-1604.4635"/>
</g>
<!-- _7 -->
<g id="node8" class="node">
<title>_7</title>
<ellipse fill="#afeeee" stroke="#afeeee" cx="2336.8873" cy="-1728.389" rx="175.7228" ry="18"/>
<text text-anchor="middle" x="2336.8873" y="-1724.189" font-family="Times,serif" font-size="14.00" fill="#000000">github.com/goreleaser/goreleaser/internal/tmpl</text>
</g>
<!-- _6&#45;&gt;_7 -->
<g id="edge6" class="edge">
<title>_6&#45;&gt;_7</title>
<path fill="none" stroke="#000000" d="M2052.9697,-1613.1576C2068.4911,-1618.4161 2083.3606,-1625.3415 2096.7035,-1634.389 2123.0762,-1652.2717 2106.4068,-1678.3948 2132.7035,-1696.389 2145.1528,-1704.9077 2159.0198,-1711.4915 2173.5031,-1716.5462"/>
<polygon fill="#000000" stroke="#000000" points="2172.5092,-1719.9032 2183.1011,-1719.6519 2174.6644,-1713.2432 2172.5092,-1719.9032"/>
</g>
<!-- _8 -->
<g id="node9" class="node">
<title>_8</title>
<ellipse fill="#afeeee" stroke="#afeeee" cx="2336.8873" cy="-1598.389" rx="164.1632" ry="18"/>
<text text-anchor="middle" x="2336.8873" y="-1594.189" font-family="Times,serif" font-size="14.00" fill="#000000">github.com/goreleaser/goreleaser/pkg/build</text>
</g>
<!-- _6&#45;&gt;_8 -->
<g id="edge7" class="edge">
<title>_6&#45;&gt;_8</title>
<path fill="none" stroke="#000000" d="M2094.3666,-1600.5149C2117.3785,-1600.3132 2140.5859,-1600.1098 2163.0477,-1599.9129"/>
<polygon fill="#000000" stroke="#000000" points="2163.3432,-1603.4105 2173.3121,-1599.8229 2163.2818,-1596.4108 2163.3432,-1603.4105"/>
</g>
<!-- _7&#45;&gt;_4 -->
<g id="edge136" class="edge">
<title>_7&#45;&gt;_4</title>
<path fill="none" stroke="#000000" d="M2395.8283,-1711.2921C2440.9014,-1695.5238 2501.7895,-1668.017 2541.071,-1625.389 2688.0401,-1465.8992 2743.3889,-1195.9147 2757.9811,-1108.5611"/>
<polygon fill="#000000" stroke="#000000" points="2761.4496,-1109.0369 2759.598,-1098.6052 2754.5402,-1107.9148 2761.4496,-1109.0369"/>
</g>
<!-- _7&#45;&gt;_5 -->
<g id="edge135" class="edge">
<title>_7&#45;&gt;_5</title>
<path fill="none" stroke="#000000" d="M2484.0554,-1738.2683C2609.5244,-1742.5591 2793.4768,-1738.9875 2947.4393,-1696.389 3018.844,-1676.6327 3093.231,-1631.1357 3134.817,-1603.0546"/>
<polygon fill="#000000" stroke="#000000" points="3136.8967,-1605.8727 3143.1802,-1597.3423 3132.9485,-1600.0923 3136.8967,-1605.8727"/>
</g>
<!-- _8&#45;&gt;_3 -->
<g id="edge139" class="edge">
<title>_8&#45;&gt;_3</title>
<path fill="none" stroke="#000000" d="M2390.4674,-1581.372C2537.47,-1534.684 2946.6481,-1404.7292 3104.6948,-1354.5336"/>
<polygon fill="#000000" stroke="#000000" points="3105.8156,-1357.85 3114.287,-1351.4872 3103.6966,-1351.1784 3105.8156,-1357.85"/>
</g>
<!-- _8&#45;&gt;_4 -->
<g id="edge140" class="edge">
<title>_8&#45;&gt;_4</title>
<path fill="none" stroke="#000000" d="M2369.7771,-1580.6533C2412.9998,-1556.1477 2489.4663,-1508.5397 2541.071,-1452.389 2644.0792,-1340.3067 2722.5774,-1172.6378 2750.8441,-1107.5648"/>
<polygon fill="#000000" stroke="#000000" points="2754.0604,-1108.945 2754.7966,-1098.3758 2747.63,-1106.179 2754.0604,-1108.945"/>
</g>
<!-- _9 -->
<g id="node10" class="node">
<title>_9</title>
<ellipse fill="#afeeee" stroke="#afeeee" cx="1880.5715" cy="-1926.389" rx="179.0801" ry="18"/>
<text text-anchor="middle" x="1880.5715" y="-1922.189" font-family="Times,serif" font-size="14.00" fill="#000000">github.com/goreleaser/goreleaser/internal/client</text>
</g>
<!-- _9&#45;&gt;_3 -->
<g id="edge11" class="edge">
<title>_9&#45;&gt;_3</title>
<path fill="none" stroke="#000000" d="M1958.0797,-1942.669C2083.5495,-1965.7879 2337.6146,-1999.099 2541.071,-1939.389 2747.036,-1878.9429 2819.4079,-1850.6773 2947.4393,-1678.389 2982.1777,-1631.6425 2956.0001,-1603.7611 2983.4393,-1552.389 3025.6141,-1473.4287 3100.1069,-1397.4576 3140.3928,-1359.5015"/>
<polygon fill="#000000" stroke="#000000" points="3143.0504,-1361.8087 3147.9742,-1352.4275 3138.2749,-1356.6906 3143.0504,-1361.8087"/>
</g>
<!-- _9&#45;&gt;_4 -->
<g id="edge12" class="edge">
<title>_9&#45;&gt;_4</title>
<path fill="none" stroke="#000000" d="M2008.4623,-1939.0662C2177.0865,-1952.923 2461.7208,-1965.5303 2541.071,-1902.389 2671.2652,-1798.7898 2743.5472,-1241.5012 2759.0688,-1108.7753"/>
<polygon fill="#000000" stroke="#000000" points="2762.5726,-1108.9432 2760.2433,-1098.6076 2755.6189,-1108.1399 2762.5726,-1108.9432"/>
</g>
<!-- _9&#45;&gt;_7 -->
<g id="edge10" class="edge">
<title>_9&#45;&gt;_7</title>
<path fill="none" stroke="#000000" d="M1921.0665,-1908.8178C2004.7005,-1872.5282 2196.2756,-1789.4018 2287.2155,-1749.9421"/>
<polygon fill="#000000" stroke="#000000" points="2288.7026,-1753.1122 2296.483,-1745.9208 2285.9162,-1746.6906 2288.7026,-1753.1122"/>
</g>
<!-- _10 -->
<g id="node11" class="node">
<title>_10</title>
<ellipse fill="#afeeee" stroke="#afeeee" cx="2336.8873" cy="-264.389" rx="168.9653" ry="18"/>
<text text-anchor="middle" x="2336.8873" y="-260.189" font-family="Times,serif" font-size="14.00" fill="#000000">github.com/goreleaser/goreleaser/internal/git</text>
</g>
<!-- _11 -->
<g id="node12" class="node">
<title>_11</title>
<ellipse fill="#afeeee" stroke="#afeeee" cx="1880.5715" cy="-496.389" rx="173.3088" ry="18"/>
<text text-anchor="middle" x="1880.5715" y="-492.189" font-family="Times,serif" font-size="14.00" fill="#000000">github.com/goreleaser/goreleaser/internal/http</text>
</g>
<!-- _11&#45;&gt;_1 -->
<g id="edge14" class="edge">
<title>_11&#45;&gt;_1</title>
<path fill="none" stroke="#000000" d="M2030.153,-505.548C2053.2279,-510.5996 2076.1812,-517.9082 2096.7035,-528.389 2149.9029,-555.5582 2266.739,-690.6236 2315.1806,-748.2569"/>
<polygon fill="#000000" stroke="#000000" points="2312.7107,-750.7589 2321.8158,-756.1763 2318.0764,-746.2633 2312.7107,-750.7589"/>
</g>
<!-- _11&#45;&gt;_3 -->
<g id="edge16" class="edge">
<title>_11&#45;&gt;_3</title>
<path fill="none" stroke="#000000" d="M1950.678,-479.7983C1993.7141,-468.5218 2049.4503,-451.9327 2096.7035,-431.389 2113.6908,-424.0037 2114.8222,-415.2232 2132.7035,-410.389 2487.1667,-314.5602 2694.6058,-281.1137 2947.4393,-547.389 3056.8597,-662.6267 3143.7368,-1178.6206 3163.7623,-1305.9276"/>
<polygon fill="#000000" stroke="#000000" points="3160.3417,-1306.7082 3165.3418,-1316.0489 3167.258,-1305.6288 3160.3417,-1306.7082"/>
</g>
<!-- _11&#45;&gt;_4 -->
<g id="edge17" class="edge">
<title>_11&#45;&gt;_4</title>
<path fill="none" stroke="#000000" d="M2002.2002,-509.2838C2181.1415,-529.1883 2498.831,-568.4385 2541.071,-600.389 2695.6541,-717.316 2745.7274,-968.1022 2758.5117,-1052.2233"/>
<polygon fill="#000000" stroke="#000000" points="2755.0748,-1052.91 2759.9835,-1062.2991 2762.0012,-1051.8982 2755.0748,-1052.91"/>
</g>
<!-- _11&#45;&gt;_5 -->
<g id="edge13" class="edge">
<title>_11&#45;&gt;_5</title>
<path fill="none" stroke="#000000" d="M1948.8282,-479.7861C1999.2727,-468.4008 2069.8202,-454.3215 2132.7035,-448.389 2313.3978,-431.3421 2359.7715,-439.9307 2541.071,-448.389 2586.3708,-450.5024 2916.2192,-453.4977 2947.4393,-486.389 3014.4277,-556.9632 2948.0725,-1270.7394 2983.4393,-1361.389 3015.8569,-1444.4795 3093.8462,-1518.395 3137.3975,-1555.0328"/>
<polygon fill="#000000" stroke="#000000" points="3135.1797,-1557.7405 3145.1099,-1561.4339 3139.6503,-1552.3541 3135.1797,-1557.7405"/>
</g>
<!-- _12 -->
<g id="node13" class="node">
<title>_12</title>
<ellipse fill="#afeeee" stroke="#afeeee" cx="2336.8873" cy="-1202.389" rx="204.3677" ry="18"/>
<text text-anchor="middle" x="2336.8873" y="-1198.189" font-family="Times,serif" font-size="14.00" fill="#000000">github.com/goreleaser/goreleaser/internal/semerrgroup</text>
</g>
<!-- _11&#45;&gt;_12 -->
<g id="edge15" class="edge">
<title>_11&#45;&gt;_12</title>
<path fill="none" stroke="#000000" d="M1895.9518,-514.3967C1936.2932,-562.7009 2045.5554,-700.6365 2096.7035,-835.389 2132.7973,-930.4802 2078.4865,-975.3332 2132.7035,-1061.389 2168.4404,-1118.1124 2236.1847,-1157.9775 2283.8145,-1180.5187"/>
<polygon fill="#000000" stroke="#000000" points="2282.5115,-1183.7722 2293.0568,-1184.7958 2285.4514,-1177.4195 2282.5115,-1183.7722"/>
</g>
<!-- _13 -->
<g id="node14" class="node">
<title>_13</title>
<ellipse fill="#afeeee" stroke="#afeeee" cx="2336.8873" cy="-866.389" rx="177.6524" ry="18"/>
<text text-anchor="middle" x="2336.8873" y="-862.189" font-family="Times,serif" font-size="14.00" fill="#000000">github.com/goreleaser/goreleaser/internal/linux</text>
</g>
<!-- _14&#45;&gt;_4 -->
<g id="edge21" class="edge">
<title>_14&#45;&gt;_4</title>
<path fill="none" stroke="#000000" d="M2064.9006,-2116.7025C2235.828,-2105.7046 2473.6147,-2079.283 2541.071,-2016.389 2679.7367,-1887.1019 2746.4357,-1250.6887 2759.7342,-1108.5684"/>
<polygon fill="#000000" stroke="#000000" points="2763.2309,-1108.7644 2760.6652,-1098.485 2756.2606,-1108.1208 2763.2309,-1108.7644"/>
</g>
<!-- _14&#45;&gt;_5 -->
<g id="edge18" class="edge">
<title>_14&#45;&gt;_5</title>
<path fill="none" stroke="#000000" d="M1933.4604,-2141.8939C1983.985,-2157.6872 2062.6042,-2179.8567 2132.7035,-2189.389 2222.4085,-2201.5874 2873.4394,-2249.5407 2947.4393,-2197.389 3050.0672,-2125.0618 3139.5631,-1719.1658 3162.4634,-1607.7068"/>
<polygon fill="#000000" stroke="#000000" points="3165.9608,-1608.0723 3164.5276,-1597.5748 3159.1017,-1606.6748 3165.9608,-1608.0723"/>
</g>
<!-- _14&#45;&gt;_7 -->
<g id="edge19" class="edge">
<title>_14&#45;&gt;_7</title>
<path fill="none" stroke="#000000" d="M1904.762,-2106.2991C1945.2843,-2075.7657 2029.0931,-2011.6263 2096.7035,-1953.389 2177.5652,-1883.7375 2268.2928,-1795.9448 2311.4419,-1753.5632"/>
<polygon fill="#000000" stroke="#000000" points="2314.0139,-1755.9426 2318.6871,-1746.4341 2309.1043,-1750.953 2314.0139,-1755.9426"/>
</g>
<!-- _15 -->
<g id="node16" class="node">
<title>_15</title>
<ellipse fill="#afeeee" stroke="#afeeee" cx="2336.8873" cy="-2162.389" rx="171.8465" ry="18"/>
<text text-anchor="middle" x="2336.8873" y="-2158.189" font-family="Times,serif" font-size="14.00" fill="#000000">github.com/goreleaser/goreleaser/pkg/archive</text>
</g>
<!-- _14&#45;&gt;_15 -->
<g id="edge20" class="edge">
<title>_14&#45;&gt;_15</title>
<path fill="none" stroke="#000000" d="M2028.7242,-2136.7265C2081.1652,-2141.0936 2140.0627,-2145.9983 2192.2111,-2150.341"/>
<polygon fill="#000000" stroke="#000000" points="2191.9502,-2153.8313 2202.2062,-2151.1734 2192.5312,-2146.8555 2191.9502,-2153.8313"/>
</g>
<!-- _37 -->
<g id="node38" class="node">
<title>_37</title>
<ellipse fill="#afeeee" stroke="#afeeee" cx="2762.2552" cy="-2170.389" rx="183.9149" ry="18"/>
<text text-anchor="middle" x="2762.2552" y="-2166.189" font-family="Times,serif" font-size="14.00" fill="#000000">github.com/goreleaser/goreleaser/pkg/archive/tar</text>
</g>
<!-- _15&#45;&gt;_37 -->
<g id="edge137" class="edge">
<title>_15&#45;&gt;_37</title>
<path fill="none" stroke="#000000" d="M2506.2261,-2165.5738C2527.6269,-2165.9763 2549.6391,-2166.3903 2571.3456,-2166.7985"/>
<polygon fill="#000000" stroke="#000000" points="2571.5679,-2170.3032 2581.632,-2166.992 2571.6996,-2163.3045 2571.5679,-2170.3032"/>
</g>
<!-- _38 -->
<g id="node39" class="node">
<title>_38</title>
<ellipse fill="#afeeee" stroke="#afeeee" cx="2762.2552" cy="-2116.389" rx="185.3685" ry="18"/>
<text text-anchor="middle" x="2762.2552" y="-2112.189" font-family="Times,serif" font-size="14.00" fill="#000000">github.com/goreleaser/goreleaser/pkg/archive/zip</text>
</g>
<!-- _15&#45;&gt;_38 -->
<g id="edge138" class="edge">
<title>_15&#45;&gt;_38</title>
<path fill="none" stroke="#000000" d="M2456.5079,-2149.453C2509.9453,-2143.6742 2573.1462,-2136.8396 2628.1765,-2130.8885"/>
<polygon fill="#000000" stroke="#000000" points="2628.7869,-2134.343 2638.3526,-2129.788 2628.0343,-2127.3836 2628.7869,-2134.343"/>
</g>
<!-- _16&#45;&gt;_1 -->
<g id="edge23" class="edge">
<title>_16&#45;&gt;_1</title>
<path fill="none" stroke="#000000" d="M1571.018,-748.6836C1601.9671,-750.8242 1634.217,-752.8529 1664.4396,-754.389 1830.1574,-762.8118 2019.0425,-768.0456 2154.3431,-771.0359"/>
<polygon fill="#000000" stroke="#000000" points="2154.3247,-774.5362 2164.399,-771.2562 2154.4781,-767.5379 2154.3247,-774.5362"/>
</g>
<!-- _16&#45;&gt;_4 -->
<g id="edge24" class="edge">
<title>_16&#45;&gt;_4</title>
<path fill="none" stroke="#000000" d="M1528.8474,-721.1537C1780.0088,-689.9707 2370.3017,-629.4431 2541.071,-724.389 2671.4261,-796.865 2734.8356,-981.5141 2754.9334,-1052.2386"/>
<polygon fill="#000000" stroke="#000000" points="2751.6493,-1053.4947 2757.6893,-1062.1993 2758.3959,-1051.628 2751.6493,-1053.4947"/>
</g>
<!-- _16&#45;&gt;_11 -->
<g id="edge22" class="edge">
<title>_16&#45;&gt;_11</title>
<path fill="none" stroke="#000000" d="M1601.6271,-727.345C1611.2632,-722.5129 1620.3039,-716.5939 1628.4396,-709.389 1677.5041,-665.9381 1619.6652,-614.2489 1664.4396,-566.389 1689.3775,-539.7326 1724.5319,-523.201 1759.2567,-512.9576"/>
<polygon fill="#000000" stroke="#000000" points="1760.3383,-516.2896 1769.0306,-510.232 1758.4579,-509.5469 1760.3383,-516.2896"/>
</g>
<!-- _17&#45;&gt;_4 -->
<g id="edge25" class="edge">
<title>_17&#45;&gt;_4</title>
<path fill="none" stroke="#000000" d="M1134.0686,-882.2769C1504.3457,-883.8553 2282.1421,-896.0182 2541.071,-968.389 2611.1196,-987.9676 2685.064,-1030.4984 2727.2406,-1057.1502"/>
<polygon fill="#000000" stroke="#000000" points="2725.4339,-1060.1493 2735.7456,-1062.5825 2729.2019,-1054.2499 2725.4339,-1060.1493"/>
</g>
<!-- _18&#45;&gt;_1 -->
<g id="edge28" class="edge">
<title>_18&#45;&gt;_1</title>
<path fill="none" stroke="#000000" d="M1433.0058,-1722.3871C1475.2073,-1680.6449 1578.0041,-1572.2492 1628.4396,-1460.389 1662.5109,-1384.8228 1610.191,-1340.0644 1664.4396,-1277.389 1797.7171,-1123.4088 1968.8186,-1283.8764 2096.7035,-1125.389 2177.1551,-1025.6856 2050.7686,-937.8771 2132.7035,-839.389 2152.4546,-815.6476 2180.8673,-800.4687 2210.2472,-790.7956"/>
<polygon fill="#000000" stroke="#000000" points="2211.287,-794.1376 2219.8103,-787.8445 2209.2229,-787.4489 2211.287,-794.1376"/>
</g>
<!-- _18&#45;&gt;_3 -->
<g id="edge30" class="edge">
<title>_18&#45;&gt;_3</title>
<path fill="none" stroke="#000000" d="M1597.6303,-1746.6784C1608.8429,-1752.0119 1619.2757,-1758.8088 1628.4396,-1767.389 1689.9039,-1824.9382 1600.4142,-1898.7033 1664.4396,-1953.389 1812.5935,-2079.9309 2349.3811,-2004.2797 2541.071,-1969.389 2730.9368,-1934.8304 2827.1273,-1967.2807 2947.4393,-1816.389 3021.2649,-1723.7991 2935.2404,-1660.5554 2983.4393,-1552.389 3019.761,-1470.877 3096.2407,-1396.2685 3138.4979,-1359.1164"/>
<polygon fill="#000000" stroke="#000000" points="3140.9669,-1361.6079 3146.2219,-1352.4081 3136.3768,-1356.3228 3140.9669,-1361.6079"/>
</g>
<!-- _18&#45;&gt;_4 -->
<g id="edge31" class="edge">
<title>_18&#45;&gt;_4</title>
<path fill="none" stroke="#000000" d="M1542.4252,-1753.9812C1820.8135,-1782.2605 2462.2661,-1840.1834 2541.071,-1782.389 2544.696,-1779.7305 2713.0359,-1238.7343 2753.5524,-1108.3953"/>
<polygon fill="#000000" stroke="#000000" points="2756.9312,-1109.3166 2756.5571,-1098.7284 2750.2466,-1107.2389 2756.9312,-1109.3166"/>
</g>
<!-- _18&#45;&gt;_5 -->
<g id="edge26" class="edge">
<title>_18&#45;&gt;_5</title>
<path fill="none" stroke="#000000" d="M1598.7819,-1746.2467C1609.6515,-1751.7012 1619.698,-1758.6419 1628.4396,-1767.389 1719.3131,-1858.3199 1568.0464,-1969.3316 1664.4396,-2054.389 1737.4747,-2118.8352 2447.6811,-2082.0613 2541.071,-2054.389 2822.9991,-1970.8512 3074.2424,-1691.8441 3146.9964,-1605.2498"/>
<polygon fill="#000000" stroke="#000000" points="3149.7569,-1607.4044 3153.4749,-1597.4834 3144.3816,-1602.9204 3149.7569,-1607.4044"/>
</g>
<!-- _18&#45;&gt;_7 -->
<g id="edge29" class="edge">
<title>_18&#45;&gt;_7</title>
<path fill="none" stroke="#000000" d="M1607.412,-1737.8771C1767.6724,-1735.7926 1994.0897,-1732.8477 2152.0202,-1730.7935"/>
<polygon fill="#000000" stroke="#000000" points="2152.3687,-1734.2894 2162.3223,-1730.6595 2152.2776,-1727.29 2152.3687,-1734.2894"/>
</g>
<!-- _18&#45;&gt;_9 -->
<g id="edge27" class="edge">
<title>_18&#45;&gt;_9</title>
<path fill="none" stroke="#000000" d="M1595.7998,-1747.1235C1607.5838,-1752.3157 1618.6351,-1758.9618 1628.4396,-1767.389 1672.9316,-1805.6309 1620.3627,-1855.6694 1664.4396,-1894.389 1675.1602,-1903.8066 1687.3973,-1911.1474 1700.4736,-1916.8184"/>
<polygon fill="#000000" stroke="#000000" points="1699.5482,-1920.2169 1710.1338,-1920.6585 1702.134,-1913.712 1699.5482,-1920.2169"/>
</g>
<!-- _19&#45;&gt;_3 -->
<g id="edge36" class="edge">
<title>_19&#45;&gt;_3</title>
<path fill="none" stroke="#000000" d="M1608.5377,-1435.6942C1745.1531,-1436.3339 1932.2036,-1435.2396 2096.7035,-1427.389 2439.4346,-1411.0325 2842.2281,-1370.2342 3042.2329,-1348.5146"/>
<polygon fill="#000000" stroke="#000000" points="3042.6251,-1351.9927 3052.1876,-1347.4311 3041.8676,-1345.0338 3042.6251,-1351.9927"/>
</g>
<!-- _19&#45;&gt;_4 -->
<g id="edge37" class="edge">
<title>_19&#45;&gt;_4</title>
<path fill="none" stroke="#000000" d="M1598.9178,-1427.4247C1897.1577,-1416.6071 2459.8856,-1390.8555 2541.071,-1348.389 2646.4314,-1293.277 2720.6655,-1164.1667 2749.2484,-1107.6711"/>
<polygon fill="#000000" stroke="#000000" points="2752.4288,-1109.1359 2753.7479,-1098.6235 2746.1611,-1106.0188 2752.4288,-1109.1359"/>
</g>
<!-- _19&#45;&gt;_6 -->
<g id="edge32" class="edge">
<title>_19&#45;&gt;_6</title>
<path fill="none" stroke="#000000" d="M1517.8848,-1448.669C1554.7258,-1457.3096 1595.26,-1470.7087 1628.4396,-1491.389 1649.0192,-1504.216 1644.1786,-1519.0645 1664.4396,-1532.389 1700.5914,-1556.164 1745.4487,-1572.417 1784.9117,-1583.2288"/>
<polygon fill="#000000" stroke="#000000" points="1784.2563,-1586.6761 1794.8198,-1585.8617 1786.0541,-1579.9109 1784.2563,-1586.6761"/>
</g>
<!-- _19&#45;&gt;_7 -->
<g id="edge34" class="edge">
<title>_19&#45;&gt;_7</title>
<path fill="none" stroke="#000000" d="M1547.182,-1446.6523C1577.1598,-1455.3657 1606.5483,-1469.293 1628.4396,-1491.389 1673.0512,-1536.4177 1616.0267,-1588.4748 1664.4396,-1629.389 1738.0901,-1691.6319 2007.2574,-1631.3618 2096.7035,-1667.389 2115.7613,-1675.0651 2113.9167,-1688.0716 2132.7035,-1696.389 2150.6668,-1704.3418 2170.2857,-1710.3566 2190.0305,-1714.8985"/>
<polygon fill="#000000" stroke="#000000" points="2189.5261,-1718.3706 2200.0416,-1717.0767 2191.0143,-1711.5306 2189.5261,-1718.3706"/>
</g>
<!-- _19&#45;&gt;_8 -->
<g id="edge35" class="edge">
<title>_19&#45;&gt;_8</title>
<path fill="none" stroke="#000000" d="M1477.6973,-1450.4466C1528.0654,-1463.6084 1600.4281,-1481.6588 1664.4396,-1494.389 1858.0114,-1532.8854 2085.3265,-1565.4293 2219.8992,-1583.3943"/>
<polygon fill="#000000" stroke="#000000" points="2219.4516,-1586.8655 2229.826,-1584.7155 2220.3752,-1579.9267 2219.4516,-1586.8655"/>
</g>
<!-- _19&#45;&gt;_12 -->
<g id="edge33" class="edge">
<title>_19&#45;&gt;_12</title>
<path fill="none" stroke="#000000" d="M1435.6446,-1415.3236C1476.8223,-1381.6357 1571.3692,-1309.7198 1664.4396,-1277.389 1812.0719,-1226.1046 1987.879,-1207.8688 2122.7003,-1202.1821"/>
<polygon fill="#000000" stroke="#000000" points="2122.8926,-1205.6773 2132.744,-1201.7784 2122.6115,-1198.6829 2122.8926,-1205.6773"/>
</g>
<!-- _20&#45;&gt;_1 -->
<g id="edge39" class="edge">
<title>_20&#45;&gt;_1</title>
<path fill="none" stroke="#000000" d="M1914.5681,-244.1825C1960.1331,-269.2638 2041.6407,-318.5825 2096.7035,-377.389 2209.0067,-497.3278 2294.8264,-678.1651 2325.0724,-746.7198"/>
<polygon fill="#000000" stroke="#000000" points="2321.9162,-748.2378 2329.1283,-755.9991 2328.3303,-745.4343 2321.9162,-748.2378"/>
</g>
<!-- _20&#45;&gt;_4 -->
<g id="edge40" class="edge">
<title>_20&#45;&gt;_4</title>
<path fill="none" stroke="#000000" d="M2070.0881,-218.0637C2252.0946,-211.8956 2504.7019,-208.8451 2541.071,-237.389 2675.3568,-342.7817 2744.7545,-917.2912 2759.3264,-1052.078"/>
<polygon fill="#000000" stroke="#000000" points="2755.8483,-1052.4709 2760.3898,-1062.043 2762.8088,-1051.728 2755.8483,-1052.4709"/>
</g>
<!-- _20&#45;&gt;_10 -->
<g id="edge38" class="edge">
<title>_20&#45;&gt;_10</title>
<path fill="none" stroke="#000000" d="M2032.8352,-239.0689C2084.5896,-243.3788 2142.2238,-248.1783 2193.279,-252.4299"/>
<polygon fill="#000000" stroke="#000000" points="2193.1427,-255.9306 2203.3987,-253.2727 2193.7236,-248.9548 2193.1427,-255.9306"/>
</g>
<!-- _21&#45;&gt;_4 -->
<g id="edge44" class="edge">
<title>_21&#45;&gt;_4</title>
<path fill="none" stroke="#000000" d="M2025.5633,-1371.7625C2164.3869,-1378.5011 2376.4561,-1372.5968 2541.071,-1296.389 2634.1527,-1253.2972 2711.5218,-1154.1715 2744.7657,-1106.6849"/>
<polygon fill="#000000" stroke="#000000" points="2747.6536,-1108.6624 2750.4534,-1098.4442 2741.8925,-1104.6861 2747.6536,-1108.6624"/>
</g>
<!-- _21&#45;&gt;_5 -->
<g id="edge41" class="edge">
<title>_21&#45;&gt;_5</title>
<path fill="none" stroke="#000000" d="M1916.1228,-1376.3324C1960.5593,-1399.5827 2037.9168,-1442.8166 2096.7035,-1490.389 2114.7882,-1505.0238 2111.5648,-1518.6735 2132.7035,-1528.389 2206.8083,-1562.4484 2695.0608,-1573.8443 2973.838,-1577.5954"/>
<polygon fill="#000000" stroke="#000000" points="2974.0307,-1581.0982 2984.0762,-1577.731 2974.1234,-1574.0988 2974.0307,-1581.0982"/>
</g>
<!-- _21&#45;&gt;_7 -->
<g id="edge43" class="edge">
<title>_21&#45;&gt;_7</title>
<path fill="none" stroke="#000000" d="M1900.7177,-1376.5686C1940.2534,-1412.6745 2029.9578,-1496.7396 2096.7035,-1575.389 2114.4216,-1596.2671 2111.8836,-1607.6025 2132.7035,-1625.389 2175.7831,-1662.192 2234.2834,-1689.9706 2277.6249,-1707.3496"/>
<polygon fill="#000000" stroke="#000000" points="2276.5983,-1710.7069 2287.1853,-1711.1137 2279.1627,-1704.1935 2276.5983,-1710.7069"/>
</g>
<!-- _21&#45;&gt;_12 -->
<g id="edge42" class="edge">
<title>_21&#45;&gt;_12</title>
<path fill="none" stroke="#000000" d="M2036.4378,-1345.9155C2056.9631,-1342.244 2077.5183,-1337.5045 2096.7035,-1331.389 2175.1293,-1306.39 2257.8418,-1255.8251 2302.8253,-1225.9657"/>
<polygon fill="#000000" stroke="#000000" points="2304.9467,-1228.7574 2311.3064,-1220.2836 2301.0505,-1222.9419 2304.9467,-1228.7574"/>
</g>
<!-- _22&#45;&gt;_4 -->
<g id="edge60" class="edge">
<title>_22&#45;&gt;_4</title>
<path fill="none" stroke="#000000" d="M1076.9104,-1127.4603C1116.7956,-1123.8642 1160.151,-1119.9648 1200.1311,-1116.389 1390.4784,-1099.3648 1439.2095,-1105.1075 1628.4396,-1078.389 1644.5792,-1076.1102 1648.215,-1072.9518 1664.4396,-1071.389 1855.6718,-1052.9695 1904.5906,-1070.0901 2096.7035,-1071.389 2260.9895,-1072.4998 2448.0707,-1075.1526 2581.9591,-1077.2921"/>
<polygon fill="#000000" stroke="#000000" points="2582.2587,-1080.7972 2592.3136,-1077.4582 2582.3711,-1073.7981 2582.2587,-1080.7972"/>
</g>
<!-- _22&#45;&gt;_14 -->
<g id="edge45" class="edge">
<title>_22&#45;&gt;_14</title>
<path fill="none" stroke="#000000" d="M936.3525,-1158.5265C948.6033,-1243.5712 1010.6595,-1607.6642 1200.1311,-1821.389 1343.4659,-1983.0714 1459.2842,-1916.955 1628.4396,-2051.389 1647.4241,-2066.4767 1643.1424,-2080.7925 1664.4396,-2092.389 1678.4404,-2100.0125 1693.6693,-2105.9954 1709.3457,-2110.6709"/>
<polygon fill="#000000" stroke="#000000" points="1708.5841,-2114.0921 1719.1573,-2113.416 1710.4702,-2107.351 1708.5841,-2114.0921"/>
</g>
<!-- _22&#45;&gt;_16 -->
<g id="edge46" class="edge">
<title>_22&#45;&gt;_16</title>
<path fill="none" stroke="#000000" d="M959.519,-1122.3324C1007.4394,-1087.1214 1110.6657,-1004.3656 1164.1311,-909.389 1196.9155,-851.1503 1150.206,-807.8194 1200.1311,-763.389 1205.7123,-758.422 1211.7232,-754.065 1218.0628,-750.2529"/>
<polygon fill="#000000" stroke="#000000" points="1219.8301,-753.2754 1226.9022,-745.3864 1216.454,-747.1433 1219.8301,-753.2754"/>
</g>
<!-- _22&#45;&gt;_18 -->
<g id="edge47" class="edge">
<title>_22&#45;&gt;_18</title>
<path fill="none" stroke="#000000" d="M945.1832,-1158.4868C980.2228,-1214.3186 1091.4922,-1388.0272 1200.1311,-1519.389 1262.637,-1594.9687 1345.6196,-1675.7952 1387.5703,-1715.4795"/>
<polygon fill="#000000" stroke="#000000" points="1385.2344,-1718.0875 1394.9118,-1722.4002 1390.036,-1712.9939 1385.2344,-1718.0875"/>
</g>
<!-- _22&#45;&gt;_19 -->
<g id="edge48" class="edge">
<title>_22&#45;&gt;_19</title>
<path fill="none" stroke="#000000" d="M963.2479,-1158.2764C1046.3401,-1208.9589 1283.3272,-1353.5104 1376.2466,-1410.1871"/>
<polygon fill="#000000" stroke="#000000" points="1374.6791,-1413.3307 1385.0389,-1415.55 1378.3243,-1407.3546 1374.6791,-1413.3307"/>
</g>
<!-- _22&#45;&gt;_21 -->
<g id="edge49" class="edge">
<title>_22&#45;&gt;_21</title>
<path fill="none" stroke="#000000" d="M970.9576,-1158.3024C1021.5969,-1182.1198 1115.7969,-1224.0333 1200.1311,-1248.389 1401.5309,-1306.5532 1457.1814,-1299.9408 1664.4396,-1331.389 1690.2148,-1335.3 1717.7824,-1339.0627 1744.3074,-1342.4733"/>
<polygon fill="#000000" stroke="#000000" points="1744.054,-1345.9692 1754.4165,-1343.7628 1744.9398,-1339.0255 1744.054,-1345.9692"/>
</g>
<!-- _22&#45;&gt;_23 -->
<g id="edge50" class="edge">
<title>_22&#45;&gt;_23</title>
<path fill="none" stroke="#000000" d="M987.1004,-1157.8095C1040.4027,-1174.5943 1125.0998,-1199.4369 1200.1311,-1213.389 1388.2231,-1248.3648 1443.5113,-1207.364 1628.4396,-1256.389 1645.3641,-1260.8757 1647.6251,-1267.5064 1664.4396,-1272.389 1688.2368,-1279.2992 1713.9632,-1284.7665 1739.0845,-1289.0773"/>
<polygon fill="#000000" stroke="#000000" points="1738.6121,-1292.5467 1749.0507,-1290.7335 1739.7598,-1285.6414 1738.6121,-1292.5467"/>
</g>
<!-- _22&#45;&gt;_24 -->
<g id="edge51" class="edge">
<title>_22&#45;&gt;_24</title>
<path fill="none" stroke="#000000" d="M960.4639,-1122.3663C1009.4962,-1087.516 1113.8463,-1005.768 1164.1311,-909.389 1205.9089,-829.315 1134.6073,-771.549 1200.1311,-709.389 1207.2437,-702.6415 1215.1392,-696.9912 1223.5832,-692.2842"/>
<polygon fill="#000000" stroke="#000000" points="1225.2439,-695.3664 1232.5716,-687.7141 1222.0713,-689.1266 1225.2439,-695.3664"/>
</g>
<!-- _22&#45;&gt;_25 -->
<g id="edge52" class="edge">
<title>_22&#45;&gt;_25</title>
<path fill="none" stroke="#000000" d="M954.606,-1122.2889C997.226,-1086.0903 1099.3107,-1004.9486 1200.1311,-966.389 1358.0272,-906.0005 1549.1908,-880.5951 1688.6438,-869.9502"/>
<polygon fill="#000000" stroke="#000000" points="1689.3021,-873.4109 1699.0147,-869.1784 1688.7825,-866.4302 1689.3021,-873.4109"/>
</g>
<!-- _26 -->
<g id="node27" class="node">
<title>_26</title>
<ellipse fill="#afeeee" stroke="#afeeee" cx="2336.8873" cy="-1034.389" rx="201.7645" ry="18"/>
<text text-anchor="middle" x="2336.8873" y="-1030.189" font-family="Times,serif" font-size="14.00" fill="#000000">github.com/goreleaser/goreleaser/internal/pipe/project</text>
</g>
<!-- _22&#45;&gt;_26 -->
<g id="edge53" class="edge">
<title>_22&#45;&gt;_26</title>
<path fill="none" stroke="#000000" d="M1010.5053,-1123.6232C1063.5397,-1112.4574 1135.877,-1098.106 1200.1311,-1088.389 1405.3501,-1057.3543 1457.2197,-1050.1325 1664.4396,-1038.389 1820.2135,-1029.5611 1996.6079,-1028.8602 2129.6401,-1030.2068"/>
<polygon fill="#000000" stroke="#000000" points="2129.9114,-1033.7098 2139.948,-1030.3161 2129.9857,-1026.7102 2129.9114,-1033.7098"/>
</g>
<!-- _22&#45;&gt;_27 -->
<g id="edge54" class="edge">
<title>_22&#45;&gt;_27</title>
<path fill="none" stroke="#000000" d="M950.5832,-1122.1718C990.5276,-1079.2245 1096.1747,-969.8829 1200.1311,-898.389 1251.8611,-862.8127 1316.9428,-831.6797 1361.7046,-812.0969"/>
<polygon fill="#000000" stroke="#000000" points="1363.1523,-815.2841 1370.9357,-808.096 1360.3685,-808.8614 1363.1523,-815.2841"/>
</g>
<!-- _22&#45;&gt;_28 -->
<g id="edge55" class="edge">
<title>_22&#45;&gt;_28</title>
<path fill="none" stroke="#000000" d="M943.6304,-1158.4998C973.8365,-1213.0706 1071.8692,-1377.263 1200.1311,-1460.389 1366.0267,-1567.9053 1479.1835,-1450.7598 1628.4396,-1580.389 1658.4902,-1606.488 1632.8033,-1638.2365 1664.4396,-1662.389 1675.9531,-1671.1789 1688.841,-1678.0585 1702.437,-1683.4021"/>
<polygon fill="#000000" stroke="#000000" points="1701.3604,-1686.7347 1711.9545,-1686.8607 1703.7513,-1680.1557 1701.3604,-1686.7347"/>
</g>
<!-- _22&#45;&gt;_29 -->
<g id="edge56" class="edge">
<title>_22&#45;&gt;_29</title>
<path fill="none" stroke="#000000" d="M941.7429,-1158.5396C971.1619,-1226.8569 1077.8948,-1475.0835 1164.1311,-1680.389 1180.3366,-1718.97 1166.867,-1741.9998 1200.1311,-1767.389 1208.0622,-1773.4426 1216.6601,-1778.529 1225.7003,-1782.784"/>
<polygon fill="#000000" stroke="#000000" points="1224.3126,-1785.9971 1234.8795,-1786.7669 1227.099,-1779.5756 1224.3126,-1785.9971"/>
</g>
<!-- _22&#45;&gt;_30 -->
<g id="edge57" class="edge">
<title>_22&#45;&gt;_30</title>
<path fill="none" stroke="#000000" d="M1131.5876,-1135.4893C1270.611,-1131.5708 1460.9736,-1125.2573 1628.4396,-1116.389 1658.7891,-1114.7818 1691.1701,-1112.7269 1722.2624,-1110.5841"/>
<polygon fill="#000000" stroke="#000000" points="1722.5746,-1114.0709 1732.3078,-1109.8857 1722.0891,-1107.0878 1722.5746,-1114.0709"/>
</g>
<!-- _22&#45;&gt;_31 -->
<g id="edge58" class="edge">
<title>_22&#45;&gt;_31</title>
<path fill="none" stroke="#000000" d="M962.0813,-1122.4431C1009.2114,-1093.4451 1107.9897,-1037.0488 1200.1311,-1012.389 1286.5098,-989.2715 1507.6365,-975.6837 1674.5501,-968.4253"/>
<polygon fill="#000000" stroke="#000000" points="1675.1207,-971.9041 1684.9611,-967.9777 1674.82,-964.9106 1675.1207,-971.9041"/>
</g>
<!-- _32 -->
<g id="node33" class="node">
<title>_32</title>
<ellipse fill="#afeeee" stroke="#afeeee" cx="1414.2853" cy="-1186.389" rx="208.0635" ry="18"/>
<text text-anchor="middle" x="1414.2853" y="-1182.189" font-family="Times,serif" font-size="14.00" fill="#000000">github.com/goreleaser/goreleaser/internal/pipe/snapshot</text>
</g>
<!-- _22&#45;&gt;_32 -->
<g id="edge59" class="edge">
<title>_22&#45;&gt;_32</title>
<path fill="none" stroke="#000000" d="M1072.8631,-1153.6941C1132.839,-1159.4375 1203.1242,-1166.168 1264.2831,-1172.0247"/>
<polygon fill="#000000" stroke="#000000" points="1264.1209,-1175.5251 1274.409,-1172.9943 1264.7882,-1168.5569 1264.1209,-1175.5251"/>
</g>
<!-- _23&#45;&gt;_1 -->
<g id="edge63" class="edge">
<title>_23&#45;&gt;_1</title>
<path fill="none" stroke="#000000" d="M2004.2876,-1290.1601C2039.2052,-1280.0251 2073.8652,-1262.9666 2096.7035,-1234.389 2151.7302,-1165.5341 2077.5041,-908.1056 2132.7035,-839.389 2151.7512,-815.6769 2179.4582,-800.4809 2208.3507,-790.7799"/>
<polygon fill="#000000" stroke="#000000" points="2209.6893,-794.0283 2218.1838,-787.6963 2207.5946,-787.349 2209.6893,-794.0283"/>
</g>
<!-- _23&#45;&gt;_3 -->
<g id="edge66" class="edge">
<title>_23&#45;&gt;_3</title>
<path fill="none" stroke="#000000" d="M2075.773,-1308.9372C2325.5315,-1314.7566 2754.3844,-1324.7489 2993.7026,-1330.325"/>
<polygon fill="#000000" stroke="#000000" points="2993.8177,-1333.8286 3003.8966,-1330.5625 2993.9809,-1326.8305 2993.8177,-1333.8286"/>
</g>
<!-- _23&#45;&gt;_4 -->
<g id="edge67" class="edge">
<title>_23&#45;&gt;_4</title>
<path fill="none" stroke="#000000" d="M2082.0436,-1305.0654C2245.0818,-1303.1332 2460.3809,-1294.2449 2541.071,-1262.389 2626.931,-1228.4921 2704.5685,-1148.0628 2740.7654,-1106.404"/>
<polygon fill="#000000" stroke="#000000" points="2743.5917,-1108.4848 2747.4424,-1098.6145 2738.2769,-1103.9291 2743.5917,-1108.4848"/>
</g>
<!-- _23&#45;&gt;_5 -->
<g id="edge62" class="edge">
<title>_23&#45;&gt;_5</title>
<path fill="none" stroke="#000000" d="M2009.1864,-1318.242C2038.0648,-1321.9673 2068.5008,-1326.3772 2096.7035,-1331.389 2476.1133,-1398.8129 2923.242,-1514.0748 3095.4747,-1559.8336"/>
<polygon fill="#000000" stroke="#000000" points="3094.6281,-1563.23 3105.1919,-1562.419 3096.428,-1556.4654 3094.6281,-1563.23"/>
</g>
<!-- _23&#45;&gt;_7 -->
<g id="edge65" class="edge">
<title>_23&#45;&gt;_7</title>
<path fill="none" stroke="#000000" d="M2068.7773,-1311.0644C2078.9813,-1316.4047 2088.4245,-1323.0899 2096.7035,-1331.389 2189.6754,-1424.5878 2056.9965,-1517.6939 2132.7035,-1625.389 2162.2721,-1667.4511 2214.1738,-1693.3151 2258.248,-1708.6056"/>
<polygon fill="#000000" stroke="#000000" points="2257.2177,-1711.9515 2267.8115,-1711.8028 2259.4372,-1705.3127 2257.2177,-1711.9515"/>
</g>
<!-- _23&#45;&gt;_12 -->
<g id="edge64" class="edge">
<title>_23&#45;&gt;_12</title>
<path fill="none" stroke="#000000" d="M1955.4118,-1287.66C2036.7666,-1269.4748 2166.5263,-1240.4697 2251.7221,-1221.4259"/>
<polygon fill="#000000" stroke="#000000" points="2252.6308,-1224.8093 2261.6264,-1219.212 2251.1037,-1217.9779 2252.6308,-1224.8093"/>
</g>
<!-- _24&#45;&gt;_1 -->
<g id="edge69" class="edge">
<title>_24&#45;&gt;_1</title>
<path fill="none" stroke="#000000" d="M1545.4919,-695.4727C1719.3471,-712.8092 2024.564,-743.2448 2200.8257,-760.8212"/>
<polygon fill="#000000" stroke="#000000" points="2200.6451,-764.3205 2210.9431,-761.8301 2201.3398,-757.355 2200.6451,-764.3205"/>
</g>
<!-- _24&#45;&gt;_4 -->
<g id="edge70" class="edge">
<title>_24&#45;&gt;_4</title>
<path fill="none" stroke="#000000" d="M1519.9908,-667.366C1766.4784,-634.4822 2371.2867,-566.8342 2541.071,-668.389 2686.4647,-755.3548 2741.7949,-974.3137 2757.281,-1052.2815"/>
<polygon fill="#000000" stroke="#000000" points="2753.8852,-1053.1576 2759.207,-1062.3189 2760.7598,-1051.8385 2753.8852,-1053.1576"/>
</g>
<!-- _25&#45;&gt;_1 -->
<g id="edge77" class="edge">
<title>_25&#45;&gt;_1</title>
<path fill="none" stroke="#000000" d="M2024.4145,-850.1617C2049.0179,-845.5217 2073.9595,-839.1451 2096.7035,-830.389 2114.6491,-823.4802 2114.7873,-813.3737 2132.7035,-806.389 2152.6345,-798.6188 2174.3564,-792.7322 2195.954,-788.2733"/>
<polygon fill="#000000" stroke="#000000" points="2196.7257,-791.6886 2205.8616,-786.3234 2195.3739,-784.8204 2196.7257,-791.6886"/>
</g>
<!-- _25&#45;&gt;_3 -->
<g id="edge80" class="edge">
<title>_25&#45;&gt;_3</title>
<path fill="none" stroke="#000000" d="M1896.9308,-844.1632C1934.0808,-804.3151 2029.6192,-710.2979 2132.7035,-676.389 2476.6766,-563.2414 2653.4894,-464.9337 2947.4393,-676.389 3055.815,-754.35 3141.9257,-1190.3908 3163.1102,-1306.1639"/>
<polygon fill="#000000" stroke="#000000" points="3159.7282,-1307.13 3164.9562,-1316.3451 3166.6159,-1305.8811 3159.7282,-1307.13"/>
</g>
<!-- _25&#45;&gt;_4 -->
<g id="edge81" class="edge">
<title>_25&#45;&gt;_4</title>
<path fill="none" stroke="#000000" d="M1988.9429,-847.3714C2150.358,-826.8861 2445.2215,-797.2591 2541.071,-839.389 2642.3496,-883.9052 2717.5681,-1000.2226 2747.7423,-1053.2896"/>
<polygon fill="#000000" stroke="#000000" points="2744.7521,-1055.1135 2752.6862,-1062.135 2750.8625,-1051.6983 2744.7521,-1055.1135"/>
</g>
<!-- _25&#45;&gt;_5 -->
<g id="edge75" class="edge">
<title>_25&#45;&gt;_5</title>
<path fill="none" stroke="#000000" d="M1909.0259,-844.4533C1954.2943,-817.0934 2046.4327,-766.1346 2132.7035,-747.389 2496.8507,-668.2643 2736.4552,-638.2252 2947.4393,-945.389 2999.9752,-1021.874 2947.7684,-1275.7294 2983.4393,-1361.389 3017.6553,-1443.5548 3094.6388,-1517.6383 3137.6266,-1554.6024"/>
<polygon fill="#000000" stroke="#000000" points="3135.6048,-1557.4771 3145.494,-1561.279 3140.1342,-1552.1399 3135.6048,-1557.4771"/>
</g>
<!-- _25&#45;&gt;_7 -->
<g id="edge79" class="edge">
<title>_25&#45;&gt;_7</title>
<path fill="none" stroke="#000000" d="M2002.4992,-876.5282C2038.315,-886.8697 2073.9459,-904.4926 2096.7035,-934.389 2189.8376,-1056.7383 2048.7173,-1496.5883 2132.7035,-1625.389 2160.4331,-1667.9149 2211.4022,-1693.6557 2255.4773,-1708.7695"/>
<polygon fill="#000000" stroke="#000000" points="2254.463,-1712.1204 2265.0561,-1711.9273 2256.6546,-1705.4723 2254.463,-1712.1204"/>
</g>
<!-- _25&#45;&gt;_12 -->
<g id="edge78" class="edge">
<title>_25&#45;&gt;_12</title>
<path fill="none" stroke="#000000" d="M1990.2941,-877.3932C2028.467,-887.6999 2068.6954,-905.0811 2096.7035,-934.389 2137.2371,-976.8037 2098.5517,-1013.6854 2132.7035,-1061.389 2172.2,-1116.5582 2240.3836,-1157.2138 2287.0057,-1180.3321"/>
<polygon fill="#000000" stroke="#000000" points="2285.5042,-1183.4938 2296.0278,-1184.721 2288.5664,-1177.1991 2285.5042,-1183.4938"/>
</g>
<!-- _25&#45;&gt;_13 -->
<g id="edge76" class="edge">
<title>_25&#45;&gt;_13</title>
<path fill="none" stroke="#000000" d="M2075.7451,-864.0999C2100.2119,-864.3144 2125.1957,-864.5334 2149.5388,-864.7467"/>
<polygon fill="#000000" stroke="#000000" points="2149.5308,-868.2467 2159.5611,-864.8346 2149.5922,-861.247 2149.5308,-868.2467"/>
</g>
<!-- _26&#45;&gt;_4 -->
<g id="edge82" class="edge">
<title>_26&#45;&gt;_4</title>
<path fill="none" stroke="#000000" d="M2465.3772,-1048.2841C2518.2233,-1053.999 2579.3394,-1060.6082 2632.3333,-1066.3391"/>
<polygon fill="#000000" stroke="#000000" points="2632.1556,-1069.8402 2642.474,-1067.4357 2632.9083,-1062.8807 2632.1556,-1069.8402"/>
</g>
<!-- _27&#45;&gt;_1 -->
<g id="edge89" class="edge">
<title>_27&#45;&gt;_1</title>
<path fill="none" stroke="#000000" d="M1609.2336,-795.1316C1745.7652,-797.4321 1932.4332,-798.5358 2096.7035,-792.389 2128.0934,-791.2144 2161.7425,-789.1793 2193.6222,-786.8898"/>
<polygon fill="#000000" stroke="#000000" points="2194.1872,-790.3579 2203.9054,-786.1382 2193.6769,-783.3765 2194.1872,-790.3579"/>
</g>
<!-- _27&#45;&gt;_3 -->
<g id="edge91" class="edge">
<title>_27&#45;&gt;_3</title>
<path fill="none" stroke="#000000" d="M1601.5393,-783.5625C1611.3944,-778.2392 1620.4898,-771.6009 1628.4396,-763.389 1688.3614,-701.4923 1602.0101,-436.7555 1664.4396,-377.389 1716.1157,-328.2484 2891.8279,-293.7507 2947.4393,-338.389 3104.9248,-464.7999 3156.9512,-1156.3383 3166.4363,-1305.8712"/>
<polygon fill="#000000" stroke="#000000" points="3162.956,-1306.2981 3167.0694,-1316.0618 3169.9425,-1305.864 3162.956,-1306.2981"/>
</g>
<!-- _27&#45;&gt;_4 -->
<g id="edge92" class="edge">
<title>_27&#45;&gt;_4</title>
<path fill="none" stroke="#000000" d="M1552.9778,-777.3048C1835.0426,-751.8179 2456.1307,-701.8375 2541.071,-747.389 2665.3141,-814.0177 2731.649,-984.5726 2753.7484,-1052.1745"/>
<polygon fill="#000000" stroke="#000000" points="2750.5437,-1053.6453 2756.9174,-1062.1085 2757.2126,-1051.5178 2750.5437,-1053.6453"/>
</g>
<!-- _27&#45;&gt;_5 -->
<g id="edge86" class="edge">
<title>_27&#45;&gt;_5</title>
<path fill="none" stroke="#000000" d="M1577.4197,-779.7607C1595.0327,-775.7074 1612.3731,-770.3735 1628.4396,-763.389 1647.5401,-755.0856 1645.2097,-741.3884 1664.4396,-733.389 2191.1559,-514.2808 2536.2188,-299.9953 2947.4393,-695.389 3000.8595,-746.7532 2956.0595,-1292.5243 2983.4393,-1361.389 3016.3914,-1444.2689 3094.1644,-1518.2697 3137.5395,-1554.9769"/>
<polygon fill="#000000" stroke="#000000" points="3135.3007,-1557.6672 3145.2197,-1561.3906 3139.7876,-1552.2943 3135.3007,-1557.6672"/>
</g>
<!-- _27&#45;&gt;_9 -->
<g id="edge87" class="edge">
<title>_27&#45;&gt;_9</title>
<path fill="none" stroke="#000000" d="M1429.0317,-808.5242C1469.7263,-859.783 1583.552,-1011.621 1628.4396,-1159.389 1664.8137,-1279.1311 1611.3736,-1608.0522 1664.4396,-1721.389 1703.1021,-1803.9633 1791.0184,-1870.0299 1842.0122,-1903.1629"/>
<polygon fill="#000000" stroke="#000000" points="1840.1656,-1906.1365 1850.4749,-1908.5794 1843.9392,-1900.2407 1840.1656,-1906.1365"/>
</g>
<!-- _27&#45;&gt;_10 -->
<g id="edge88" class="edge">
<title>_27&#45;&gt;_10</title>
<path fill="none" stroke="#000000" d="M1602.1756,-783.4458C1611.8073,-778.1316 1620.6852,-771.5288 1628.4396,-763.389 1700.2338,-688.0271 1589.7666,-368.8995 1664.4396,-296.389 1699.3289,-262.5102 1973.0898,-259.1577 2160.3715,-260.9586"/>
<polygon fill="#000000" stroke="#000000" points="2160.5837,-264.4608 2170.6189,-261.0631 2160.6551,-257.4612 2160.5837,-264.4608"/>
</g>
<!-- _27&#45;&gt;_12 -->
<g id="edge90" class="edge">
<title>_27&#45;&gt;_12</title>
<path fill="none" stroke="#000000" d="M1421.5708,-808.6367C1445.8397,-866.7436 1530.0845,-1048.1586 1664.4396,-1125.389 1741.6878,-1169.793 1963.3935,-1188.6094 2131.2978,-1196.5713"/>
<polygon fill="#000000" stroke="#000000" points="2131.3673,-1200.0782 2141.5188,-1197.0457 2131.6919,-1193.0857 2131.3673,-1200.0782"/>
</g>
<!-- _28&#45;&gt;_1 -->
<g id="edge94" class="edge">
<title>_28&#45;&gt;_1</title>
<path fill="none" stroke="#000000" d="M2012.2294,-1681.7107C2044.6169,-1672.1158 2075.927,-1656.0436 2096.7035,-1629.389 2150.7229,-1560.0865 2079.2423,-909.1231 2132.7035,-839.389 2150.9545,-815.5827 2177.9656,-800.3246 2206.4076,-790.5916"/>
<polygon fill="#000000" stroke="#000000" points="2207.6354,-793.8737 2216.0974,-787.4983 2205.5066,-787.2053 2207.6354,-793.8737"/>
</g>
<!-- _28&#45;&gt;_3 -->
<g id="edge97" class="edge">
<title>_28&#45;&gt;_3</title>
<path fill="none" stroke="#000000" d="M1918.3784,-1712.1025C1966.7867,-1733.7145 2053.8529,-1769.024 2132.7035,-1782.389 2311.6479,-1812.7198 2365.732,-1829.264 2541.071,-1782.389 2818.4214,-1708.2425 3071.3729,-1443.6422 3145.9689,-1359.9566"/>
<polygon fill="#000000" stroke="#000000" points="3148.6191,-1362.2432 3152.6259,-1352.4352 3143.3773,-1357.6037 3148.6191,-1362.2432"/>
</g>
<!-- _28&#45;&gt;_4 -->
<g id="edge98" class="edge">
<title>_28&#45;&gt;_4</title>
<path fill="none" stroke="#000000" d="M1935.4643,-1711.6672C1986.0824,-1726.6377 2063.6127,-1747.1501 2132.7035,-1755.389 2222.8134,-1766.1345 2470.3204,-1812.2187 2541.071,-1755.389 2598.9124,-1708.9285 2556.4107,-1663.6445 2577.071,-1592.389 2631.7375,-1403.8501 2719.5791,-1184.2622 2750.7942,-1108.0788"/>
<polygon fill="#000000" stroke="#000000" points="2754.0845,-1109.2802 2754.6482,-1098.7003 2747.6098,-1106.6195 2754.0845,-1109.2802"/>
</g>
<!-- _28&#45;&gt;_5 -->
<g id="edge93" class="edge">
<title>_28&#45;&gt;_5</title>
<path fill="none" stroke="#000000" d="M1905.0515,-1712.4415C1948.3094,-1743.0919 2042.2626,-1804.1465 2132.7035,-1826.389 2308.9484,-1869.7338 2360.7696,-1847.1839 2541.071,-1826.389 2725.3274,-1805.138 2777.8105,-1806.4096 2947.4393,-1731.389 3023.0672,-1697.9416 3100.067,-1637.6599 3140.0716,-1603.9345"/>
<polygon fill="#000000" stroke="#000000" points="3142.4514,-1606.5052 3147.8005,-1597.3598 3137.9158,-1601.1734 3142.4514,-1606.5052"/>
</g>
<!-- _28&#45;&gt;_7 -->
<g id="edge96" class="edge">
<title>_28&#45;&gt;_7</title>
<path fill="none" stroke="#000000" d="M2027.7792,-1705.3574C2077.8371,-1709.0872 2133.8682,-1713.2621 2184.335,-1717.0224"/>
<polygon fill="#000000" stroke="#000000" points="2184.1183,-1720.5158 2194.3508,-1717.7686 2184.6385,-1713.5352 2184.1183,-1720.5158"/>
</g>
<!-- _28&#45;&gt;_12 -->
<g id="edge95" class="edge">
<title>_28&#45;&gt;_12</title>
<path fill="none" stroke="#000000" d="M1986.1388,-1679.5231C2024.0621,-1670.0674 2065.2022,-1654.6177 2096.7035,-1629.389 2105.6892,-1622.1925 2271.354,-1321.5991 2322.1829,-1229.1554"/>
<polygon fill="#000000" stroke="#000000" points="2325.2525,-1230.8371 2327.0025,-1220.3878 2319.1182,-1227.465 2325.2525,-1230.8371"/>
</g>
<!-- _29&#45;&gt;_1 -->
<g id="edge101" class="edge">
<title>_29&#45;&gt;_1</title>
<path fill="none" stroke="#000000" d="M1598.688,-1787.6773C1609.5071,-1782.404 1619.5736,-1775.739 1628.4396,-1767.389 1691.6427,-1707.8647 1610.4567,-1643.3863 1664.4396,-1575.389 1794.9237,-1411.0302 1976.2677,-1557.2469 2096.7035,-1385.389 2166.4873,-1285.8099 2057.7458,-935.1341 2132.7035,-839.389 2151.3497,-815.5718 2178.7489,-800.3268 2207.4599,-790.6114"/>
<polygon fill="#000000" stroke="#000000" points="2208.7544,-793.8731 2217.2363,-787.5242 2206.6465,-787.198 2208.7544,-793.8731"/>
</g>
<!-- _29&#45;&gt;_4 -->
<g id="edge103" class="edge">
<title>_29&#45;&gt;_4</title>
<path fill="none" stroke="#000000" d="M1601.912,-1800.1486C1611.4149,-1804.7644 1620.3542,-1810.4463 1628.4396,-1817.389 1675.8772,-1858.1224 1614.8919,-1915.2504 1664.4396,-1953.389 1741.6349,-2012.809 2465.0261,-2000.2744 2541.071,-1939.389 2676.8411,-1830.6846 2745.2193,-1245.0375 2759.429,-1108.7449"/>
<polygon fill="#000000" stroke="#000000" points="2762.9227,-1108.9847 2760.4645,-1098.679 2755.9594,-1108.2683 2762.9227,-1108.9847"/>
</g>
<!-- _29&#45;&gt;_5 -->
<g id="edge99" class="edge">
<title>_29&#45;&gt;_5</title>
<path fill="none" stroke="#000000" d="M1420.7971,-1812.3958C1443.5299,-1872.3966 1525.6174,-2066.5129 1664.4396,-2151.389 1908.0604,-2300.3392 2715.0538,-2388.3234 2947.4393,-2222.389 3053.6315,-2146.5627 3141.0186,-1722.0177 3162.8619,-1607.7277"/>
<polygon fill="#000000" stroke="#000000" points="3166.3469,-1608.1348 3164.7696,-1597.6581 3159.4693,-1606.8318 3166.3469,-1608.1348"/>
</g>
<!-- _29&#45;&gt;_7 -->
<g id="edge102" class="edge">
<title>_29&#45;&gt;_7</title>
<path fill="none" stroke="#000000" d="M1574.6072,-1783.8096C1712.9206,-1774.5718 1918.0187,-1760.6095 2096.7035,-1747.389 2126.4049,-1745.1915 2158.1643,-1742.7466 2188.5394,-1740.3619"/>
<polygon fill="#000000" stroke="#000000" points="2189.0878,-1743.8297 2198.7824,-1739.5559 2188.5387,-1736.8512 2189.0878,-1743.8297"/>
</g>
<!-- _29&#45;&gt;_9 -->
<g id="edge100" class="edge">
<title>_29&#45;&gt;_9</title>
<path fill="none" stroke="#000000" d="M1451.0707,-1812.2631C1499.0426,-1834.8267 1586.0956,-1873.242 1664.4396,-1894.389 1690.94,-1901.5421 1719.728,-1907.2082 1747.393,-1911.6563"/>
<polygon fill="#000000" stroke="#000000" points="1747.1076,-1915.1541 1757.5282,-1913.2405 1748.1887,-1908.2381 1747.1076,-1915.1541"/>
</g>
<!-- _30&#45;&gt;_1 -->
<g id="edge105" class="edge">
<title>_30&#45;&gt;_1</title>
<path fill="none" stroke="#000000" d="M1945.641,-1081.3848C1994.3277,-1065.323 2058.7972,-1036.3788 2096.7035,-988.389 2138.9319,-934.9274 2086.2733,-889.245 2132.7035,-839.389 2154.5515,-815.929 2184.8269,-800.8978 2215.3805,-791.2792"/>
<polygon fill="#000000" stroke="#000000" points="2216.7048,-794.5374 2225.2999,-788.3426 2214.7177,-787.8253 2216.7048,-794.5374"/>
</g>
<!-- _30&#45;&gt;_4 -->
<g id="edge106" class="edge">
<title>_30&#45;&gt;_4</title>
<path fill="none" stroke="#000000" d="M2072.1115,-1100.1182C2203.9911,-1100.6002 2383.2049,-1099.8587 2541.071,-1094.389 2563.4302,-1093.6143 2587.043,-1092.4693 2610.1864,-1091.1622"/>
<polygon fill="#000000" stroke="#000000" points="2610.6426,-1094.6418 2620.4245,-1090.5719 2610.2396,-1087.6534 2610.6426,-1094.6418"/>
</g>
<!-- _30&#45;&gt;_5 -->
<g id="edge104" class="edge">
<title>_30&#45;&gt;_5</title>
<path fill="none" stroke="#000000" d="M2037.9296,-1108.716C2203.1815,-1120.9824 2451.2848,-1143.8294 2541.071,-1175.389 2798.5314,-1265.8856 3057.0224,-1481.1502 3140.388,-1554.4491"/>
<polygon fill="#000000" stroke="#000000" points="3138.3164,-1557.2893 3148.127,-1561.2895 3142.9522,-1552.0444 3138.3164,-1557.2893"/>
</g>
<!-- _31&#45;&gt;_1 -->
<g id="edge109" class="edge">
<title>_31&#45;&gt;_1</title>
<path fill="none" stroke="#000000" d="M1969.2986,-945.0784C2010.8718,-934.2763 2059.3474,-916.8652 2096.7035,-889.389 2118.7622,-873.1643 2110.5368,-855.4659 2132.7035,-839.389 2163.3959,-817.1287 2202.0125,-802.2905 2237.3791,-792.4929"/>
<polygon fill="#000000" stroke="#000000" points="2238.4968,-795.8173 2247.2589,-789.8611 2236.6949,-789.0532 2238.4968,-795.8173"/>
</g>
<!-- _31&#45;&gt;_4 -->
<g id="edge112" class="edge">
<title>_31&#45;&gt;_4</title>
<path fill="none" stroke="#000000" d="M2069.4293,-969.3066C2232.126,-977.0915 2454.0833,-990.2841 2541.071,-1007.389 2600.5851,-1019.0916 2666.2904,-1042.1414 2710.501,-1059.2239"/>
<polygon fill="#000000" stroke="#000000" points="2709.2866,-1062.507 2719.8748,-1062.881 2711.8308,-1055.9857 2709.2866,-1062.507"/>
</g>
<!-- _31&#45;&gt;_5 -->
<g id="edge107" class="edge">
<title>_31&#45;&gt;_5</title>
<path fill="none" stroke="#000000" d="M2043.3258,-950.0065C2311.857,-935.1953 2829.8182,-924.6958 2947.4393,-1053.389 2993.929,-1104.255 2955.9961,-1298.1789 2983.4393,-1361.389 3018.978,-1443.2455 3095.7752,-1517.7143 3138.2904,-1554.7529"/>
<polygon fill="#000000" stroke="#000000" points="3136.1998,-1557.5714 3146.0631,-1561.4398 3140.7649,-1552.2648 3136.1998,-1557.5714"/>
</g>
<!-- _31&#45;&gt;_7 -->
<g id="edge111" class="edge">
<title>_31&#45;&gt;_7</title>
<path fill="none" stroke="#000000" d="M1953.5133,-978.3561C2002.6804,-993.8806 2064.2797,-1022.1637 2096.7035,-1071.389 2164.5666,-1174.4179 2064.656,-1522.4818 2132.7035,-1625.389 2160.7565,-1667.8131 2211.8606,-1693.5703 2255.9224,-1708.7178"/>
<polygon fill="#000000" stroke="#000000" points="2254.9027,-1712.067 2265.4959,-1711.8832 2257.1002,-1705.4208 2254.9027,-1712.067"/>
</g>
<!-- _31&#45;&gt;_12 -->
<g id="edge110" class="edge">
<title>_31&#45;&gt;_12</title>
<path fill="none" stroke="#000000" d="M1916.2998,-979.1815C1959.2896,-1000.6803 2033.5705,-1038.1151 2096.7035,-1071.389 2167.1658,-1108.5258 2248.3758,-1153.2204 2296.0183,-1179.6364"/>
<polygon fill="#000000" stroke="#000000" points="2294.3575,-1182.7175 2304.7997,-1184.5091 2297.7539,-1176.5966 2294.3575,-1182.7175"/>
</g>
<!-- _31&#45;&gt;_13 -->
<g id="edge108" class="edge">
<title>_31&#45;&gt;_13</title>
<path fill="none" stroke="#000000" d="M1942.9051,-944.162C1993.7169,-930.5193 2067.4821,-911.6207 2132.7035,-898.389 2161.4858,-892.5499 2192.7358,-887.1734 2221.9332,-882.5606"/>
<polygon fill="#000000" stroke="#000000" points="2222.828,-885.9634 2232.1677,-880.9614 2221.7472,-879.0473 2222.828,-885.9634"/>
</g>
<!-- _32&#45;&gt;_4 -->
<g id="edge113" class="edge">
<title>_32&#45;&gt;_4</title>
<path fill="none" stroke="#000000" d="M1572.0872,-1198.1532C1860.4011,-1218.8013 2451.0554,-1256.8804 2541.071,-1229.389 2620.6518,-1205.0845 2697.5044,-1141.4727 2736.2395,-1105.7206"/>
<polygon fill="#000000" stroke="#000000" points="2739.0041,-1107.927 2743.9139,-1098.5385 2734.2209,-1102.816 2739.0041,-1107.927"/>
</g>
<!-- _33&#45;&gt;_4 -->
<g id="edge61" class="edge">
<title>_33&#45;&gt;_4</title>
<path fill="none" stroke="#000000" d="M1008.5299,-296.7656C1061.752,-285.2724 1135.1154,-270.1698 1200.1311,-259.389 1405.4034,-225.3513 1456.7938,-212.7499 1664.4396,-199.389 1856.1604,-187.0528 1904.6009,-197.0117 2096.7035,-199.389 2195.4745,-200.6113 2463.8486,-148.7943 2541.071,-210.389 2678.8233,-320.264 2745.7951,-914.8316 2759.5497,-1052.1008"/>
<polygon fill="#000000" stroke="#000000" points="2756.084,-1052.6209 2760.5504,-1062.2282 2763.05,-1051.9325 2756.084,-1052.6209"/>
</g>
<!-- _34&#45;&gt;_4 -->
<g id="edge68" class="edge">
<title>_34&#45;&gt;_4</title>
<path fill="none" stroke="#000000" d="M1110.4393,-160.7902C1504.6957,-136.5818 2430.9863,-89.7702 2541.071,-176.389 2685.091,-289.7094 2747.5461,-911.9932 2759.9055,-1052.2853"/>
<polygon fill="#000000" stroke="#000000" points="2756.4187,-1052.591 2760.77,-1062.2511 2763.3925,-1051.986 2756.4187,-1052.591"/>
</g>
<!-- _35&#45;&gt;_1 -->
<g id="edge72" class="edge">
<title>_35&#45;&gt;_1</title>
<path fill="none" stroke="#000000" d="M1975.982,-419.8921C2015.7574,-429.5727 2060.9183,-445.0154 2096.7035,-469.389 2207.5156,-544.8641 2291.1398,-687.2057 2322.9192,-746.9232"/>
<polygon fill="#000000" stroke="#000000" points="2319.9919,-748.8769 2327.7404,-756.1026 2326.1891,-745.6219 2319.9919,-748.8769"/>
</g>
<!-- _35&#45;&gt;_4 -->
<g id="edge74" class="edge">
<title>_35&#45;&gt;_4</title>
<path fill="none" stroke="#000000" d="M1970.5985,-388.6004C2108.9482,-369.6995 2375.1856,-355.2549 2541.071,-486.389 2727.475,-633.7433 2756.7863,-955.1158 2761.3952,-1052.1145"/>
<polygon fill="#000000" stroke="#000000" points="2757.9068,-1052.4634 2761.8256,-1062.3068 2764.9005,-1052.168 2757.9068,-1052.4634"/>
</g>
<!-- _35&#45;&gt;_7 -->
<g id="edge73" class="edge">
<title>_35&#45;&gt;_7</title>
<path fill="none" stroke="#000000" d="M2013.328,-417.1226C2045.4149,-426.7459 2076.2985,-442.8186 2096.7035,-469.389 2174.9739,-571.3092 2063.6425,-1517.0167 2132.7035,-1625.389 2159.8873,-1668.0466 2210.5844,-1693.7559 2254.6586,-1708.821"/>
<polygon fill="#000000" stroke="#000000" points="2253.6488,-1712.1732 2264.2417,-1711.9677 2255.8327,-1705.5225 2253.6488,-1712.1732"/>
</g>
<!-- _35&#45;&gt;_10 -->
<g id="edge71" class="edge">
<title>_35&#45;&gt;_10</title>
<path fill="none" stroke="#000000" d="M1936.9825,-387.0819C2021.7921,-361.0618 2181.7499,-311.986 2271.5253,-284.4424"/>
<polygon fill="#000000" stroke="#000000" points="2272.7846,-287.7172 2281.3181,-281.4379 2270.7313,-281.025 2272.7846,-287.7172"/>
</g>
<!-- _36&#45;&gt;_1 -->
<g id="edge84" class="edge">
<title>_36&#45;&gt;_1</title>
<path fill="none" stroke="#000000" d="M1477.8706,-536.4091C1598.6171,-568.7988 1869.3636,-641.7552 2096.7035,-705.389 2154.747,-721.6357 2220.5284,-740.57 2268.5546,-754.4899"/>
<polygon fill="#000000" stroke="#000000" points="2267.6403,-757.8689 2278.2195,-757.2929 2269.5902,-751.1459 2267.6403,-757.8689"/>
</g>
<!-- _36&#45;&gt;_4 -->
<g id="edge85" class="edge">
<title>_36&#45;&gt;_4</title>
<path fill="none" stroke="#000000" d="M1480.3751,-502.4715C1530.4985,-490.5484 1601.3046,-475.6368 1664.4396,-469.389 1855.623,-450.4696 1904.9245,-457.9926 2096.7035,-469.389 2295.2497,-481.1876 2383.465,-401.0624 2541.071,-522.389 2718.3981,-658.897 2753.8641,-959.0375 2760.6897,-1052.224"/>
<polygon fill="#000000" stroke="#000000" points="2757.2041,-1052.5563 2761.3728,-1062.2965 2764.1881,-1052.0826 2757.2041,-1052.5563"/>
</g>
<!-- _36&#45;&gt;_11 -->
<g id="edge83" class="edge">
<title>_36&#45;&gt;_11</title>
<path fill="none" stroke="#000000" d="M1581.9666,-511.118C1624.7502,-509.0076 1670.7342,-506.7394 1713.4878,-504.6306"/>
<polygon fill="#000000" stroke="#000000" points="1713.8893,-508.1151 1723.7047,-504.1266 1713.5444,-501.1236 1713.8893,-508.1151"/>
</g>
</g>
</svg>
