<?xml version="1.0" encoding="UTF-8" standalone="no"?>
<!DOCTYPE svg PUBLIC "-//W3C//DTD SVG 1.1//EN"
 "http://www.w3.org/Graphics/SVG/1.1/DTD/svg11.dtd">
<!-- Generated by graphviz version 2.40.1 (20161225.0304)
 -->
<!-- Title: godep Pages: 1 -->
<svg width="3050pt" height="2462pt"
 viewBox="0.00 0.00 3050.02 2462.20" xmlns="http://www.w3.org/2000/svg" xmlns:xlink="http://www.w3.org/1999/xlink">
<g id="graph0" class="graph" transform="scale(1 1) rotate(0) translate(4 2458.2033)">
<title>godep</title>
<polygon fill="#ffffff" stroke="transparent" points="-4,4 -4,-2458.2033 3046.0229,-2458.2033 3046.0229,4 -4,4"/>
<!-- _0 -->
<g id="node1" class="node">
<title>_0</title>
<ellipse fill="#afeeee" stroke="#afeeee" cx="127.7232" cy="-1384" rx="127.9468" ry="18"/>
<text text-anchor="middle" x="127.7232" y="-1379.8" font-family="Times,serif" font-size="14.00" fill="#000000">github.com/goreleaser/goreleaser</text>
</g>
<!-- _1 -->
<g id="node2" class="node">
<title>_1</title>
<ellipse fill="#afeeee" stroke="#afeeee" cx="2015.1451" cy="-1696" rx="188.2669" ry="18"/>
<text text-anchor="middle" x="2015.1451" y="-1691.8" font-family="Times,serif" font-size="14.00" fill="#000000">github.com/goreleaser/goreleaser/internal/pipeline</text>
</g>
<!-- _0&#45;&gt;_1 -->
<g id="edge1" class="edge">
<title>_0&#45;&gt;_1</title>
<path fill="none" stroke="#000000" d="M131.1298,-1402.0666C146.6171,-1482.1421 213.0255,-1803.6968 291.4464,-1863 552.458,-2060.3813 1453.8734,-1976.4352 1764.002,-1872 1857.8171,-1840.4079 1947.8338,-1761.8682 1990.0836,-1721.2395"/>
<polygon fill="#000000" stroke="#000000" points="1992.6803,-1723.5963 1997.4069,-1714.1142 1987.7988,-1718.5792 1992.6803,-1723.5963"/>
</g>
<!-- _2 -->
<g id="node3" class="node">
<title>_2</title>
<ellipse fill="#afeeee" stroke="#afeeee" cx="1534.6092" cy="-156" rx="216.7226" ry="18"/>
<text text-anchor="middle" x="1534.6092" y="-151.8" font-family="Times,serif" font-size="14.00" fill="#000000">github.com/goreleaser/goreleaser/internal/pipeline/archive</text>
</g>
<!-- _0&#45;&gt;_2 -->
<g id="edge2" class="edge">
<title>_0&#45;&gt;_2</title>
<path fill="none" stroke="#000000" d="M129.2695,-1365.6717C140.7999,-1230.9149 215.0243,-396.4252 291.4464,-317 605.9418,9.854 1232.3587,-88.79 1454.3383,-136.7465"/>
<polygon fill="#000000" stroke="#000000" points="1453.7675,-140.2043 1464.2842,-138.92 1455.262,-133.3656 1453.7675,-140.2043"/>
</g>
<!-- _3 -->
<g id="node4" class="node">
<title>_3</title>
<ellipse fill="#afeeee" stroke="#afeeee" cx="1041.8012" cy="-2024" rx="227.3303" ry="18"/>
<text text-anchor="middle" x="1041.8012" y="-2019.8" font-family="Times,serif" font-size="14.00" fill="#000000">github.com/goreleaser/goreleaser/internal/pipeline/artifactory</text>
</g>
<!-- _0&#45;&gt;_3 -->
<g id="edge3" class="edge">
<title>_0&#45;&gt;_3</title>
<path fill="none" stroke="#000000" d="M129.7499,-1402.0389C140.5362,-1494.5342 194.3827,-1914.278 291.4464,-1992 379.3132,-2062.3578 689.9847,-2052.3657 882.9473,-2038.4034"/>
<polygon fill="#000000" stroke="#000000" points="883.4737,-2041.8743 893.1902,-2037.6506 882.9605,-2034.8931 883.4737,-2041.8743"/>
</g>
<!-- _4 -->
<g id="node5" class="node">
<title>_4</title>
<ellipse fill="#afeeee" stroke="#afeeee" cx="534.9162" cy="-2285" rx="213.3482" ry="18"/>
<text text-anchor="middle" x="534.9162" y="-2280.8" font-family="Times,serif" font-size="14.00" fill="#000000">github.com/goreleaser/goreleaser/internal/pipeline/before</text>
</g>
<!-- _0&#45;&gt;_4 -->
<g id="edge4" class="edge">
<title>_0&#45;&gt;_4</title>
<path fill="none" stroke="#000000" d="M129.4017,-1402.2626C139.4002,-1507.6717 194.0021,-2037.9851 291.4464,-2164 331.6913,-2216.0447 400.2858,-2247.2857 454.4296,-2264.9486"/>
<polygon fill="#000000" stroke="#000000" points="453.4266,-2268.3022 464.0166,-2267.9848 455.5401,-2261.6289 453.4266,-2268.3022"/>
</g>
<!-- _5 -->
<g id="node6" class="node">
<title>_5</title>
<ellipse fill="#afeeee" stroke="#afeeee" cx="1041.8012" cy="-1497" rx="208.0376" ry="18"/>
<text text-anchor="middle" x="1041.8012" y="-1492.8" font-family="Times,serif" font-size="14.00" fill="#000000">github.com/goreleaser/goreleaser/internal/pipeline/brew</text>
</g>
<!-- _0&#45;&gt;_5 -->
<g id="edge5" class="edge">
<title>_0&#45;&gt;_5</title>
<path fill="none" stroke="#000000" d="M165.5236,-1401.312C198.1413,-1415.4022 246.8953,-1434.4626 291.4464,-1444 467.7727,-1481.7476 672.1796,-1494.1942 823.0799,-1497.6514"/>
<polygon fill="#000000" stroke="#000000" points="823.3221,-1501.1574 833.3958,-1497.8757 823.4743,-1494.1591 823.3221,-1501.1574"/>
</g>
<!-- _6 -->
<g id="node7" class="node">
<title>_6</title>
<ellipse fill="#afeeee" stroke="#afeeee" cx="1041.8012" cy="-548" rx="208.5394" ry="18"/>
<text text-anchor="middle" x="1041.8012" y="-543.8" font-family="Times,serif" font-size="14.00" fill="#000000">github.com/goreleaser/goreleaser/internal/pipeline/build</text>
</g>
<!-- _0&#45;&gt;_6 -->
<g id="edge6" class="edge">
<title>_0&#45;&gt;_6</title>
<path fill="none" stroke="#000000" d="M129.3966,-1365.7946C138.9078,-1266.3578 189.3802,-789.7967 291.4464,-692 455.2322,-535.0655 735.0228,-523.5386 902.7531,-533.1831"/>
<polygon fill="#000000" stroke="#000000" points="902.6962,-536.686 912.8903,-533.7996 903.1212,-529.6989 902.6962,-536.686"/>
</g>
<!-- _7 -->
<g id="node8" class="node">
<title>_7</title>
<ellipse fill="#afeeee" stroke="#afeeee" cx="1534.6092" cy="-2100" rx="226.863" ry="18"/>
<text text-anchor="middle" x="1534.6092" y="-2095.8" font-family="Times,serif" font-size="14.00" fill="#000000">github.com/goreleaser/goreleaser/internal/pipeline/changelog</text>
</g>
<!-- _0&#45;&gt;_7 -->
<g id="edge7" class="edge">
<title>_0&#45;&gt;_7</title>
<path fill="none" stroke="#000000" d="M129.4625,-1402.2823C139.0612,-1498.9851 188.8946,-1949.6111 291.4464,-2034 367.1635,-2096.3069 960.2618,-2103.4428 1299.151,-2102.3174"/>
<polygon fill="#000000" stroke="#000000" points="1299.3644,-2105.8167 1309.3518,-2102.2807 1299.3392,-2098.8168 1299.3644,-2105.8167"/>
</g>
<!-- _8 -->
<g id="node9" class="node">
<title>_8</title>
<ellipse fill="#afeeee" stroke="#afeeee" cx="1534.6092" cy="-704" rx="229.2857" ry="18"/>
<text text-anchor="middle" x="1534.6092" y="-699.8" font-family="Times,serif" font-size="14.00" fill="#000000">github.com/goreleaser/goreleaser/internal/pipeline/checksums</text>
</g>
<!-- _0&#45;&gt;_8 -->
<g id="edge8" class="edge">
<title>_0&#45;&gt;_8</title>
<path fill="none" stroke="#000000" d="M129.6297,-1365.728C139.9057,-1271.0682 191.9554,-837.7139 291.4464,-757 454.7531,-624.5145 1088.687,-662.8888 1382.9583,-688.8676"/>
<polygon fill="#000000" stroke="#000000" points="1383.0109,-692.3861 1393.2818,-689.7862 1383.6314,-685.4136 1383.0109,-692.3861"/>
</g>
<!-- _9 -->
<g id="node10" class="node">
<title>_9</title>
<ellipse fill="#afeeee" stroke="#afeeee" cx="534.9162" cy="-1208" rx="218.6693" ry="18"/>
<text text-anchor="middle" x="534.9162" y="-1203.8" font-family="Times,serif" font-size="14.00" fill="#000000">github.com/goreleaser/goreleaser/internal/pipeline/defaults</text>
</g>
<!-- _0&#45;&gt;_9 -->
<g id="edge9" class="edge">
<title>_0&#45;&gt;_9</title>
<path fill="none" stroke="#000000" d="M167.508,-1366.8039C241.9284,-1334.6374 402.0708,-1265.4194 484.1484,-1229.9433"/>
<polygon fill="#000000" stroke="#000000" points="485.9692,-1232.9692 493.7598,-1225.7889 483.1919,-1226.5438 485.9692,-1232.9692"/>
</g>
<!-- _10 -->
<g id="node11" class="node">
<title>_10</title>
<ellipse fill="#afeeee" stroke="#afeeee" cx="534.9162" cy="-1105" rx="203.2354" ry="18"/>
<text text-anchor="middle" x="534.9162" y="-1100.8" font-family="Times,serif" font-size="14.00" fill="#000000">github.com/goreleaser/goreleaser/internal/pipeline/dist</text>
</g>
<!-- _0&#45;&gt;_10 -->
<g id="edge10" class="edge">
<title>_0&#45;&gt;_10</title>
<path fill="none" stroke="#000000" d="M137.3788,-1365.8269C159.339,-1326.2323 216.9471,-1231.6763 291.4464,-1181 332.7196,-1152.9249 384.8537,-1134.8386 430.2805,-1123.3879"/>
<polygon fill="#000000" stroke="#000000" points="431.2812,-1126.7464 440.1649,-1120.9731 429.6199,-1119.9464 431.2812,-1126.7464"/>
</g>
<!-- _11 -->
<g id="node12" class="node">
<title>_11</title>
<ellipse fill="#afeeee" stroke="#afeeee" cx="1534.6092" cy="-980" rx="214.8018" ry="18"/>
<text text-anchor="middle" x="1534.6092" y="-975.8" font-family="Times,serif" font-size="14.00" fill="#000000">github.com/goreleaser/goreleaser/internal/pipeline/docker</text>
</g>
<!-- _0&#45;&gt;_11 -->
<g id="edge11" class="edge">
<title>_0&#45;&gt;_11</title>
<path fill="none" stroke="#000000" d="M128.8386,-1365.9917C133.8711,-1302.2084 160.372,-1086.1533 291.4464,-998 469.0337,-878.5647 1117.4181,-933.36 1400.6787,-964.1285"/>
<polygon fill="#000000" stroke="#000000" points="1400.6903,-967.6505 1411.0114,-965.2578 1401.4509,-960.6919 1400.6903,-967.6505"/>
</g>
<!-- _12 -->
<g id="node13" class="node">
<title>_12</title>
<ellipse fill="#afeeee" stroke="#afeeee" cx="534.9162" cy="-344" rx="243.4397" ry="18"/>
<text text-anchor="middle" x="534.9162" y="-339.8" font-family="Times,serif" font-size="14.00" fill="#000000">github.com/goreleaser/goreleaser/internal/pipeline/effectiveconfig</text>
</g>
<!-- _0&#45;&gt;_12 -->
<g id="edge12" class="edge">
<title>_0&#45;&gt;_12</title>
<path fill="none" stroke="#000000" d="M130.0635,-1365.9519C143.7862,-1261.716 215.8047,-736.4102 291.4464,-594 344.0502,-494.9631 447.8669,-408.4451 501.3385,-368.1177"/>
<polygon fill="#000000" stroke="#000000" points="503.5517,-370.8332 509.4725,-362.0471 499.3649,-365.2233 503.5517,-370.8332"/>
</g>
<!-- _13 -->
<g id="node14" class="node">
<title>_13</title>
<ellipse fill="#afeeee" stroke="#afeeee" cx="1041.8012" cy="-1658" rx="203.2181" ry="18"/>
<text text-anchor="middle" x="1041.8012" y="-1653.8" font-family="Times,serif" font-size="14.00" fill="#000000">github.com/goreleaser/goreleaser/internal/pipeline/env</text>
</g>
<!-- _0&#45;&gt;_13 -->
<g id="edge13" class="edge">
<title>_0&#45;&gt;_13</title>
<path fill="none" stroke="#000000" d="M151.3745,-1401.8429C182.0924,-1424.1929 238.1107,-1462.1952 291.4464,-1484 502.2917,-1570.1982 764.7551,-1618.7221 916.7992,-1641.5448"/>
<polygon fill="#000000" stroke="#000000" points="916.6967,-1645.068 927.1029,-1643.0774 917.7267,-1638.1442 916.6967,-1645.068"/>
</g>
<!-- _14 -->
<g id="node15" class="node">
<title>_14</title>
<ellipse fill="#afeeee" stroke="#afeeee" cx="1534.6092" cy="-1818" rx="199.8523" ry="18"/>
<text text-anchor="middle" x="1534.6092" y="-1813.8" font-family="Times,serif" font-size="14.00" fill="#000000">github.com/goreleaser/goreleaser/internal/pipeline/git</text>
</g>
<!-- _0&#45;&gt;_14 -->
<g id="edge14" class="edge">
<title>_0&#45;&gt;_14</title>
<path fill="none" stroke="#000000" d="M138.716,-1402.1299C161.9894,-1438.8654 220.0108,-1522.1399 291.4464,-1564 617.7884,-1755.2312 1065.6249,-1804.2027 1325.1637,-1815.7193"/>
<polygon fill="#000000" stroke="#000000" points="1325.3234,-1819.2293 1335.4642,-1816.1611 1325.6234,-1812.2357 1325.3234,-1819.2293"/>
</g>
<!-- _15 -->
<g id="node16" class="node">
<title>_15</title>
<ellipse fill="#afeeee" stroke="#afeeee" cx="1534.6092" cy="-812" rx="209.0154" ry="18"/>
<text text-anchor="middle" x="1534.6092" y="-807.8" font-family="Times,serif" font-size="14.00" fill="#000000">github.com/goreleaser/goreleaser/internal/pipeline/nfpm</text>
</g>
<!-- _0&#45;&gt;_15 -->
<g id="edge15" class="edge">
<title>_0&#45;&gt;_15</title>
<path fill="none" stroke="#000000" d="M131.4373,-1365.8052C147.8385,-1287.3373 216.2985,-979.224 291.4464,-921 302.0208,-912.807 1036.7735,-852.3337 1371.5797,-825.1591"/>
<polygon fill="#000000" stroke="#000000" points="1372.1714,-828.6227 1381.8556,-824.3254 1371.6052,-821.6457 1372.1714,-828.6227"/>
</g>
<!-- _16 -->
<g id="node17" class="node">
<title>_16</title>
<ellipse fill="#afeeee" stroke="#afeeee" cx="1041.8012" cy="-2203" rx="201.7818" ry="18"/>
<text text-anchor="middle" x="1041.8012" y="-2198.8" font-family="Times,serif" font-size="14.00" fill="#000000">github.com/goreleaser/goreleaser/internal/pipeline/put</text>
</g>
<!-- _0&#45;&gt;_16 -->
<g id="edge16" class="edge">
<title>_0&#45;&gt;_16</title>
<path fill="none" stroke="#000000" d="M129.1596,-1402.2251C137.5586,-1503.9283 183.7039,-2000.2834 291.4464,-2099 472.2021,-2264.6134 787.5656,-2244.1845 945.6687,-2220.8385"/>
<polygon fill="#000000" stroke="#000000" points="946.4879,-2224.2545 955.8521,-2219.2984 945.4412,-2217.3331 946.4879,-2224.2545"/>
</g>
<!-- _17 -->
<g id="node18" class="node">
<title>_17</title>
<ellipse fill="#afeeee" stroke="#afeeee" cx="1041.8012" cy="-1864" rx="215.269" ry="18"/>
<text text-anchor="middle" x="1041.8012" y="-1859.8" font-family="Times,serif" font-size="14.00" fill="#000000">github.com/goreleaser/goreleaser/internal/pipeline/release</text>
</g>
<!-- _0&#45;&gt;_17 -->
<g id="edge17" class="edge">
<title>_0&#45;&gt;_17</title>
<path fill="none" stroke="#000000" d="M128.6588,-1402.2575C133.105,-1468.0246 157.927,-1694.1845 291.4464,-1794 489.1492,-1941.7973 802.9882,-1909.7685 954.4069,-1882.6944"/>
<polygon fill="#000000" stroke="#000000" points="955.374,-1886.0758 964.5837,-1880.8383 954.118,-1879.1894 955.374,-1886.0758"/>
</g>
<!-- _18 -->
<g id="node19" class="node">
<title>_18</title>
<ellipse fill="#afeeee" stroke="#afeeee" cx="1534.6092" cy="-1045" rx="198.4073" ry="18"/>
<text text-anchor="middle" x="1534.6092" y="-1040.8" font-family="Times,serif" font-size="14.00" fill="#000000">github.com/goreleaser/goreleaser/internal/pipeline/s3</text>
</g>
<!-- _0&#45;&gt;_18 -->
<g id="edge18" class="edge">
<title>_0&#45;&gt;_18</title>
<path fill="none" stroke="#000000" d="M131.1452,-1365.7496C142.4962,-1310.9238 184.4463,-1147.2075 291.4464,-1078 469.2094,-963.0232 1104.1699,-1004.8392 1391.5233,-1030.6961"/>
<polygon fill="#000000" stroke="#000000" points="1391.3224,-1034.1921 1401.5974,-1031.6089 1391.9541,-1027.2207 1391.3224,-1034.1921"/>
</g>
<!-- _19 -->
<g id="node20" class="node">
<title>_19</title>
<ellipse fill="#afeeee" stroke="#afeeee" cx="1041.8012" cy="-1384" rx="211.4448" ry="18"/>
<text text-anchor="middle" x="1041.8012" y="-1379.8" font-family="Times,serif" font-size="14.00" fill="#000000">github.com/goreleaser/goreleaser/internal/pipeline/scoop</text>
</g>
<!-- _0&#45;&gt;_19 -->
<g id="edge19" class="edge">
<title>_0&#45;&gt;_19</title>
<path fill="none" stroke="#000000" d="M255.7843,-1384C401.8259,-1384 643.2023,-1384 820.0069,-1384"/>
<polygon fill="#000000" stroke="#000000" points="820.2294,-1387.5001 830.2294,-1384 820.2294,-1380.5001 820.2294,-1387.5001"/>
</g>
<!-- _20 -->
<g id="node21" class="node">
<title>_20</title>
<ellipse fill="#afeeee" stroke="#afeeee" cx="1534.6092" cy="-1292" rx="205.1649" ry="18"/>
<text text-anchor="middle" x="1534.6092" y="-1287.8" font-family="Times,serif" font-size="14.00" fill="#000000">github.com/goreleaser/goreleaser/internal/pipeline/sign</text>
</g>
<!-- _0&#45;&gt;_20 -->
<g id="edge20" class="edge">
<title>_0&#45;&gt;_20</title>
<path fill="none" stroke="#000000" d="M243.7518,-1376.4126C490.3894,-1360.2843 1068.0181,-1322.5116 1359.6224,-1303.4428"/>
<polygon fill="#000000" stroke="#000000" points="1360.1237,-1306.9176 1369.874,-1302.7725 1359.6669,-1299.9326 1360.1237,-1306.9176"/>
</g>
<!-- _21 -->
<g id="node22" class="node">
<title>_21</title>
<ellipse fill="#afeeee" stroke="#afeeee" cx="1534.6092" cy="-758" rx="222.9955" ry="18"/>
<text text-anchor="middle" x="1534.6092" y="-753.8" font-family="Times,serif" font-size="14.00" fill="#000000">github.com/goreleaser/goreleaser/internal/pipeline/snapcraft</text>
</g>
<!-- _0&#45;&gt;_21 -->
<g id="edge21" class="edge">
<title>_0&#45;&gt;_21</title>
<path fill="none" stroke="#000000" d="M130.7905,-1365.9091C145.2882,-1282.6563 209.6624,-937.6464 291.4464,-872 445.3774,-748.4426 1009.6114,-742.9979 1322.3497,-750.1396"/>
<polygon fill="#000000" stroke="#000000" points="1322.3684,-753.6409 1332.4478,-750.3766 1322.5327,-746.6428 1322.3684,-753.6409"/>
</g>
<!-- _22 -->
<g id="node23" class="node">
<title>_22</title>
<ellipse fill="#afeeee" stroke="#afeeee" cx="2857.3397" cy="-1128" rx="168.0221" ry="18"/>
<text text-anchor="middle" x="2857.3397" y="-1123.8" font-family="Times,serif" font-size="14.00" fill="#000000">github.com/goreleaser/goreleaser/pkg/config</text>
</g>
<!-- _0&#45;&gt;_22 -->
<g id="edge22" class="edge">
<title>_0&#45;&gt;_22</title>
<path fill="none" stroke="#000000" d="M128.1456,-1402.2949C131.2739,-1520.845 154.7059,-2179.5241 291.4464,-2312 533.4338,-2546.4405 704.8735,-2420 1041.8012,-2420 1041.8012,-2420 1041.8012,-2420 2015.1451,-2420 2294.1275,-2420 2435.4201,-2525.223 2636.6565,-2332 2813.2866,-2162.4034 2850.7453,-1322.4491 2856.4623,-1156.5067"/>
<polygon fill="#000000" stroke="#000000" points="2859.9723,-1156.2631 2856.8074,-1146.152 2852.9762,-1156.0298 2859.9723,-1156.2631"/>
</g>
<!-- _23 -->
<g id="node24" class="node">
<title>_23</title>
<ellipse fill="#afeeee" stroke="#afeeee" cx="2451.4723" cy="-1201" rx="171.8638" ry="18"/>
<text text-anchor="middle" x="2451.4723" y="-1196.8" font-family="Times,serif" font-size="14.00" fill="#000000">github.com/goreleaser/goreleaser/pkg/context</text>
</g>
<!-- _0&#45;&gt;_23 -->
<g id="edge23" class="edge">
<title>_0&#45;&gt;_23</title>
<path fill="none" stroke="#000000" d="M234.222,-1394.0459C253.2635,-1395.5742 272.9314,-1396.9792 291.4464,-1398 523.5833,-1410.7987 581.9146,-1408.1109 814.386,-1411 1016.5172,-1413.512 1067.1813,-1417.7196 1269.2163,-1411 1322.6979,-1409.2212 2180.7689,-1367.28 2230.2882,-1347 2249.8277,-1338.9978 2249.2683,-1328.4961 2266.2882,-1316 2314.0164,-1280.9577 2372.5749,-1245.7939 2410.8982,-1223.746"/>
<polygon fill="#000000" stroke="#000000" points="2412.7687,-1226.7082 2419.7091,-1218.703 2409.2915,-1220.6329 2412.7687,-1226.7082"/>
</g>
<!-- _2&#45;&gt;_23 -->
<g id="edge40" class="edge">
<title>_2&#45;&gt;_23</title>
<path fill="none" stroke="#000000" d="M1731.9948,-148.5403C1911.2887,-146.1104 2158.3901,-155.0448 2230.2882,-218 2380.1862,-349.2534 2438.4508,-1025.2737 2449.4685,-1172.6203"/>
<polygon fill="#000000" stroke="#000000" points="2445.9836,-1172.9559 2450.2076,-1182.6723 2452.9648,-1172.4425 2445.9836,-1172.9559"/>
</g>
<!-- _24 -->
<g id="node25" class="node">
<title>_24</title>
<ellipse fill="#afeeee" stroke="#afeeee" cx="2857.3397" cy="-923" rx="184.8667" ry="18"/>
<text text-anchor="middle" x="2857.3397" y="-918.8" font-family="Times,serif" font-size="14.00" fill="#000000">github.com/goreleaser/goreleaser/internal/artifact</text>
</g>
<!-- _2&#45;&gt;_24 -->
<g id="edge37" class="edge">
<title>_2&#45;&gt;_24</title>
<path fill="none" stroke="#000000" d="M1657.131,-141.1299C1912.6049,-112.9326 2490.6059,-64.6619 2636.6565,-185 2751.8702,-279.9301 2833.9731,-770.5929 2853.0882,-894.5361"/>
<polygon fill="#000000" stroke="#000000" points="2849.6761,-895.3784 2854.6459,-904.7353 2856.5959,-894.3214 2849.6761,-895.3784"/>
</g>
<!-- _26 -->
<g id="node27" class="node">
<title>_26</title>
<ellipse fill="#afeeee" stroke="#afeeee" cx="2015.1451" cy="-804" rx="175.7228" ry="18"/>
<text text-anchor="middle" x="2015.1451" y="-799.8" font-family="Times,serif" font-size="14.00" fill="#000000">github.com/goreleaser/goreleaser/internal/tmpl</text>
</g>
<!-- _2&#45;&gt;_26 -->
<g id="edge38" class="edge">
<title>_2&#45;&gt;_26</title>
<path fill="none" stroke="#000000" d="M1565.5576,-173.8492C1616.7129,-205.2099 1717.8317,-275.454 1764.002,-365 1825.1391,-483.5739 1729.6544,-549.6477 1800.002,-663 1836.2838,-721.4614 1906.8206,-760.6257 1957.2391,-782.545"/>
<polygon fill="#000000" stroke="#000000" points="1956.1494,-785.8847 1966.7221,-786.5688 1958.8836,-779.4407 1956.1494,-785.8847"/>
</g>
<!-- _33 -->
<g id="node34" class="node">
<title>_33</title>
<ellipse fill="#afeeee" stroke="#afeeee" cx="2015.1451" cy="-72" rx="171.8465" ry="18"/>
<text text-anchor="middle" x="2015.1451" y="-67.8" font-family="Times,serif" font-size="14.00" fill="#000000">github.com/goreleaser/goreleaser/pkg/archive</text>
</g>
<!-- _2&#45;&gt;_33 -->
<g id="edge39" class="edge">
<title>_2&#45;&gt;_33</title>
<path fill="none" stroke="#000000" d="M1615.1518,-139.2224C1667.6715,-128.5288 1737.769,-114.7193 1800.002,-104 1832.8842,-98.3362 1868.6978,-92.77 1901.5019,-87.9087"/>
<polygon fill="#000000" stroke="#000000" points="1902.1966,-91.3443 1911.5793,-86.4234 1901.1758,-84.4191 1902.1966,-91.3443"/>
</g>
<!-- _3&#45;&gt;_1 -->
<g id="edge42" class="edge">
<title>_3&#45;&gt;_1</title>
<path fill="none" stroke="#000000" d="M1268.2063,-2025.7008C1464.5418,-2025.2674 1723.4648,-2019.3625 1764.002,-1992 1795.983,-1970.4129 1778.0773,-1944.7506 1800.002,-1913 1854.6304,-1833.889 1939.7276,-1758.0408 1984.7813,-1720.4795"/>
<polygon fill="#000000" stroke="#000000" points="1987.2371,-1722.9904 1992.7115,-1713.9194 1982.7753,-1717.5967 1987.2371,-1722.9904"/>
</g>
<!-- _3&#45;&gt;_23 -->
<g id="edge43" class="edge">
<title>_3&#45;&gt;_23</title>
<path fill="none" stroke="#000000" d="M1068.3323,-2041.9974C1114.1898,-2071.895 1212.3095,-2130.6223 1305.2163,-2152 1405.5745,-2175.0923 2153.2037,-2163.2862 2230.2882,-2095 2365.7496,-1975.0001 2434.5917,-1368.1946 2448.7131,-1229.3345"/>
<polygon fill="#000000" stroke="#000000" points="2452.2239,-1229.4011 2449.7402,-1219.1015 2445.2589,-1228.7019 2452.2239,-1229.4011"/>
</g>
<!-- _30 -->
<g id="node31" class="node">
<title>_30</title>
<ellipse fill="#afeeee" stroke="#afeeee" cx="1534.6092" cy="-2230" rx="173.3088" ry="18"/>
<text text-anchor="middle" x="1534.6092" y="-2225.8" font-family="Times,serif" font-size="14.00" fill="#000000">github.com/goreleaser/goreleaser/internal/http</text>
</g>
<!-- _3&#45;&gt;_30 -->
<g id="edge41" class="edge">
<title>_3&#45;&gt;_30</title>
<path fill="none" stroke="#000000" d="M1068.6977,-2041.9916C1134.4875,-2085.97 1298.6631,-2195.5245 1305.2163,-2198 1329.0653,-2207.009 1355.1711,-2213.5184 1380.9532,-2218.2137"/>
<polygon fill="#000000" stroke="#000000" points="1380.3619,-2221.6633 1390.8132,-2219.9259 1381.5595,-2214.7665 1380.3619,-2221.6633"/>
</g>
<!-- _4&#45;&gt;_23 -->
<g id="edge44" class="edge">
<title>_4&#45;&gt;_23</title>
<path fill="none" stroke="#000000" d="M628.34,-2301.1921C948.4847,-2354.3837 1994.5209,-2508.5028 2230.2882,-2295 2394.9256,-2145.91 2442.0695,-1386.5391 2450.1246,-1229.459"/>
<polygon fill="#000000" stroke="#000000" points="2453.6334,-1229.3693 2450.6381,-1219.2067 2446.6422,-1229.0191 2453.6334,-1229.3693"/>
</g>
<!-- _5&#45;&gt;_1 -->
<g id="edge47" class="edge">
<title>_5&#45;&gt;_1</title>
<path fill="none" stroke="#000000" d="M1067.6135,-1514.9288C1113.1694,-1545.5061 1211.864,-1607.0434 1305.2163,-1634 1501.788,-1690.7624 1560.208,-1653.8233 1764.002,-1672 1799.493,-1675.1655 1837.7887,-1678.7427 1873.5227,-1682.1504"/>
<polygon fill="#000000" stroke="#000000" points="1873.2415,-1685.6394 1883.5291,-1683.1065 1873.9074,-1678.6711 1873.2415,-1685.6394"/>
</g>
<!-- _5&#45;&gt;_22 -->
<g id="edge49" class="edge">
<title>_5&#45;&gt;_22</title>
<path fill="none" stroke="#000000" d="M1106.896,-1514.1202C1159.9655,-1527.5819 1237.0238,-1546.0049 1305.2163,-1558 1596.6343,-1609.2605 2394.3194,-1741.7786 2636.6565,-1572 2784.4169,-1468.4807 2838.1524,-1236.8588 2852.7794,-1156.2797"/>
<polygon fill="#000000" stroke="#000000" points="2856.2382,-1156.8192 2854.5181,-1146.3649 2849.3434,-1155.6101 2856.2382,-1156.8192"/>
</g>
<!-- _5&#45;&gt;_23 -->
<g id="edge50" class="edge">
<title>_5&#45;&gt;_23</title>
<path fill="none" stroke="#000000" d="M1220.3534,-1506.272C1507.7594,-1518.3282 2058.1807,-1528.7418 2230.2882,-1443 2329.2935,-1393.6768 2405.4438,-1279.7852 2436.3865,-1227.7765"/>
<polygon fill="#000000" stroke="#000000" points="2439.4315,-1229.5028 2441.4663,-1219.1051 2433.3916,-1225.9645 2439.4315,-1229.5028"/>
</g>
<!-- _5&#45;&gt;_24 -->
<g id="edge45" class="edge">
<title>_5&#45;&gt;_24</title>
<path fill="none" stroke="#000000" d="M1157.6426,-1511.9909C1203.5118,-1517.2254 1256.7655,-1522.4322 1305.2163,-1525 1602.5713,-1540.7594 2442.1243,-1599.4453 2636.6565,-1374 2716.6087,-1281.3425 2617.5071,-1210.2535 2672.6565,-1101 2706.8957,-1033.1706 2777.5351,-976.6858 2820.843,-946.5549"/>
<polygon fill="#000000" stroke="#000000" points="2822.849,-949.4232 2829.1213,-940.8845 2818.8932,-943.6481 2822.849,-949.4232"/>
</g>
<!-- _5&#45;&gt;_26 -->
<g id="edge48" class="edge">
<title>_5&#45;&gt;_26</title>
<path fill="none" stroke="#000000" d="M1150.6643,-1481.6305C1194.3913,-1469.7136 1241.0277,-1448.5576 1269.2163,-1411 1330.4997,-1329.3479 1234.8336,-1026.9526 1305.2163,-953 1446.9473,-804.0802 1593.1481,-1008.3403 1764.002,-894 1790.8031,-876.0639 1773.1736,-848.8951 1800.002,-831 1811.5311,-823.3099 1824.1935,-817.2731 1837.4248,-812.5733"/>
<polygon fill="#000000" stroke="#000000" points="1838.7407,-815.8252 1847.1518,-809.3829 1836.559,-809.1739 1838.7407,-815.8252"/>
</g>
<!-- _28 -->
<g id="node29" class="node">
<title>_28</title>
<ellipse fill="#afeeee" stroke="#afeeee" cx="1534.6092" cy="-1460" rx="179.0801" ry="18"/>
<text text-anchor="middle" x="1534.6092" y="-1455.8" font-family="Times,serif" font-size="14.00" fill="#000000">github.com/goreleaser/goreleaser/internal/client</text>
</g>
<!-- _5&#45;&gt;_28 -->
<g id="edge46" class="edge">
<title>_5&#45;&gt;_28</title>
<path fill="none" stroke="#000000" d="M1199.0837,-1485.1912C1257.1461,-1480.8319 1322.8387,-1475.8997 1380.6074,-1471.5624"/>
<polygon fill="#000000" stroke="#000000" points="1381.2141,-1475.0268 1390.9239,-1470.7879 1380.6899,-1468.0465 1381.2141,-1475.0268"/>
</g>
<!-- _6&#45;&gt;_22 -->
<g id="edge55" class="edge">
<title>_6&#45;&gt;_22</title>
<path fill="none" stroke="#000000" d="M1105.4547,-530.8289C1289.6187,-484.648 1835.0115,-372.7593 2230.2882,-549 2252.1328,-558.7398 2246.9258,-574.9591 2266.2882,-589 2412.026,-694.6841 2525.2391,-611.5971 2636.6565,-753 2691.7422,-822.9109 2630.5888,-871.5635 2672.6565,-950 2708.5919,-1017.0029 2778.743,-1073.8083 2821.4855,-1104.2147"/>
<polygon fill="#000000" stroke="#000000" points="2819.7111,-1107.2451 2829.9091,-1110.1179 2823.7285,-1101.5126 2819.7111,-1107.2451"/>
</g>
<!-- _6&#45;&gt;_23 -->
<g id="edge56" class="edge">
<title>_6&#45;&gt;_23</title>
<path fill="none" stroke="#000000" d="M1055.5453,-529.7554C1090.9013,-484.5442 1190.3324,-367.9545 1305.2163,-326 1498.4861,-255.4198 2072.6271,-232.7966 2230.2882,-365 2359.9466,-473.7224 2432.7588,-1039.1439 2448.3071,-1172.7051"/>
<polygon fill="#000000" stroke="#000000" points="2444.8629,-1173.3911 2449.4826,-1182.9256 2451.817,-1172.5912 2444.8629,-1173.3911"/>
</g>
<!-- _25 -->
<g id="node26" class="node">
<title>_25</title>
<ellipse fill="#afeeee" stroke="#afeeee" cx="1534.6092" cy="-392" rx="214.8277" ry="18"/>
<text text-anchor="middle" x="1534.6092" y="-387.8" font-family="Times,serif" font-size="14.00" fill="#000000">github.com/goreleaser/goreleaser/internal/builders/golang</text>
</g>
<!-- _6&#45;&gt;_25 -->
<g id="edge51" class="edge">
<title>_6&#45;&gt;_25</title>
<path fill="none" stroke="#000000" d="M1071.8259,-530.1635C1119.5225,-502.6974 1216.3194,-450.4588 1305.2163,-424 1329.1179,-416.8861 1354.9014,-411.3409 1380.2524,-407.0219"/>
<polygon fill="#000000" stroke="#000000" points="1381.0204,-410.4427 1390.3197,-405.366 1379.8842,-403.5356 1381.0204,-410.4427"/>
</g>
<!-- _6&#45;&gt;_26 -->
<g id="edge53" class="edge">
<title>_6&#45;&gt;_26</title>
<path fill="none" stroke="#000000" d="M1184.9683,-561.1466C1332.9093,-577.5862 1569.0587,-611.8626 1764.002,-677 1843.8884,-703.6929 1930.0685,-752.0258 1977.8404,-780.7499"/>
<polygon fill="#000000" stroke="#000000" points="1976.22,-783.8603 1986.5864,-786.0482 1979.847,-777.8732 1976.22,-783.8603"/>
</g>
<!-- _27 -->
<g id="node28" class="node">
<title>_27</title>
<ellipse fill="#afeeee" stroke="#afeeee" cx="2015.1451" cy="-392" rx="164.1632" ry="18"/>
<text text-anchor="middle" x="2015.1451" y="-387.8" font-family="Times,serif" font-size="14.00" fill="#000000">github.com/goreleaser/goreleaser/pkg/build</text>
</g>
<!-- _6&#45;&gt;_27 -->
<g id="edge54" class="edge">
<title>_6&#45;&gt;_27</title>
<path fill="none" stroke="#000000" d="M1059.139,-530.0459C1098.4495,-490.7957 1199.2056,-398.2101 1305.2163,-365 1527.7572,-295.2844 1808.8307,-343.2768 1940.5826,-373.1347"/>
<polygon fill="#000000" stroke="#000000" points="1940.0424,-376.6017 1950.5721,-375.429 1941.6093,-369.7793 1940.0424,-376.6017"/>
</g>
<!-- _31 -->
<g id="node32" class="node">
<title>_31</title>
<ellipse fill="#afeeee" stroke="#afeeee" cx="2015.1451" cy="-858" rx="204.3677" ry="18"/>
<text text-anchor="middle" x="2015.1451" y="-853.8" font-family="Times,serif" font-size="14.00" fill="#000000">github.com/goreleaser/goreleaser/internal/semerrgroup</text>
</g>
<!-- _6&#45;&gt;_31 -->
<g id="edge52" class="edge">
<title>_6&#45;&gt;_31</title>
<path fill="none" stroke="#000000" d="M1051.2475,-566.2461C1080.3405,-620.1974 1174.5757,-778.9377 1305.2163,-839 1396.5393,-880.986 1659.501,-877.1983 1838.4305,-868.9116"/>
<polygon fill="#000000" stroke="#000000" points="1838.663,-872.4046 1848.4869,-868.4371 1838.333,-865.4124 1838.663,-872.4046"/>
</g>
<!-- _7&#45;&gt;_1 -->
<g id="edge58" class="edge">
<title>_7&#45;&gt;_1</title>
<path fill="none" stroke="#000000" d="M1729.3591,-2090.7356C1741.9487,-2084.8863 1753.6888,-2077.4281 1764.002,-2068 1816.2,-2020.2816 1765.8072,-1974.9063 1800.002,-1913 1846.0986,-1829.5467 1933.4973,-1756.3245 1981.4945,-1720.0942"/>
<polygon fill="#000000" stroke="#000000" points="1983.7748,-1722.7597 1989.6964,-1713.9741 1979.5885,-1717.1494 1983.7748,-1722.7597"/>
</g>
<!-- _7&#45;&gt;_23 -->
<g id="edge59" class="edge">
<title>_7&#45;&gt;_23</title>
<path fill="none" stroke="#000000" d="M1703.4504,-2087.9543C1884.1761,-2071.6451 2155.1035,-2036.2467 2230.2882,-1967 2344.307,-1861.9863 2428.1197,-1354.4007 2447.3065,-1229.0376"/>
<polygon fill="#000000" stroke="#000000" points="2450.7791,-1229.4816 2448.8186,-1219.0697 2443.8583,-1228.4317 2450.7791,-1229.4816"/>
</g>
<!-- _29 -->
<g id="node30" class="node">
<title>_29</title>
<ellipse fill="#afeeee" stroke="#afeeee" cx="2015.1451" cy="-1940" rx="168.9653" ry="18"/>
<text text-anchor="middle" x="2015.1451" y="-1935.8" font-family="Times,serif" font-size="14.00" fill="#000000">github.com/goreleaser/goreleaser/internal/git</text>
</g>
<!-- _7&#45;&gt;_29 -->
<g id="edge57" class="edge">
<title>_7&#45;&gt;_29</title>
<path fill="none" stroke="#000000" d="M1715.7155,-2089.0407C1732.7017,-2083.8416 1749.1095,-2076.9815 1764.002,-2068 1787.4507,-2053.8583 1778.1581,-2034.5127 1800.002,-2018 1837.4855,-1989.6647 1886.2536,-1970.8628 1927.8795,-1958.8333"/>
<polygon fill="#000000" stroke="#000000" points="1929.0588,-1962.1377 1937.7435,-1956.0693 1927.17,-1955.3974 1929.0588,-1962.1377"/>
</g>
<!-- _8&#45;&gt;_23 -->
<g id="edge63" class="edge">
<title>_8&#45;&gt;_23</title>
<path fill="none" stroke="#000000" d="M1563.4254,-685.978C1610.6809,-657.6027 1708.5551,-603.7135 1800.002,-584 1893.4739,-563.8499 2155.1991,-524.8 2230.2882,-584 2284.1278,-626.447 2245.6,-668.6361 2266.2882,-734 2320.331,-904.7469 2406.8223,-1102.0395 2438.9365,-1173.4353"/>
<polygon fill="#000000" stroke="#000000" points="2435.7949,-1174.9826 2443.0981,-1182.6582 2442.1754,-1172.1036 2435.7949,-1174.9826"/>
</g>
<!-- _8&#45;&gt;_24 -->
<g id="edge60" class="edge">
<title>_8&#45;&gt;_24</title>
<path fill="none" stroke="#000000" d="M1550.2287,-685.7797C1588.1836,-641.2566 1687.7422,-522.9668 1764.002,-419 1781.0621,-395.7416 1774.5706,-378.6105 1800.002,-365 1968.612,-274.7627 2044.9502,-317.8627 2230.2882,-365 2429.5342,-415.6746 2485.4694,-446.6825 2636.6565,-586 2739.6619,-680.9185 2816.5706,-833.5908 2845.1679,-895.549"/>
<polygon fill="#000000" stroke="#000000" points="2842.004,-897.0465 2849.3394,-904.6913 2848.3724,-894.1406 2842.004,-897.0465"/>
</g>
<!-- _8&#45;&gt;_26 -->
<g id="edge62" class="edge">
<title>_8&#45;&gt;_26</title>
<path fill="none" stroke="#000000" d="M1682.6452,-717.7712C1709.8311,-721.3341 1737.8671,-725.7017 1764.002,-731 1830.3356,-744.4478 1904.5691,-766.9852 1955.0126,-783.4675"/>
<polygon fill="#000000" stroke="#000000" points="1954.1817,-786.8787 1964.7747,-786.6788 1956.3691,-780.2292 1954.1817,-786.8787"/>
</g>
<!-- _8&#45;&gt;_31 -->
<g id="edge61" class="edge">
<title>_8&#45;&gt;_31</title>
<path fill="none" stroke="#000000" d="M1734.3575,-712.9792C1744.9087,-717.8273 1754.8956,-723.7676 1764.002,-731 1800.9919,-760.3778 1763.1252,-801.4803 1800.002,-831 1807.1016,-836.6832 1814.7772,-841.5343 1822.8568,-845.6596"/>
<polygon fill="#000000" stroke="#000000" points="1821.6016,-848.9367 1832.1415,-850.0145 1824.5742,-842.5992 1821.6016,-848.9367"/>
</g>
<!-- _9&#45;&gt;_2 -->
<g id="edge64" class="edge">
<title>_9&#45;&gt;_2</title>
<path fill="none" stroke="#000000" d="M675.1254,-1194.084C714.3751,-1183.1405 753.1587,-1164.2686 778.386,-1132 862.1578,-1024.8464 739.8142,-634.7482 814.386,-521 956.7588,-303.8316 1270.2107,-209.8346 1432.5997,-174.4654"/>
<polygon fill="#000000" stroke="#000000" points="1433.5547,-177.8402 1442.598,-172.3203 1432.0862,-170.996 1433.5547,-177.8402"/>
</g>
<!-- _9&#45;&gt;_3 -->
<g id="edge65" class="edge">
<title>_9&#45;&gt;_3</title>
<path fill="none" stroke="#000000" d="M537.9039,-1226.0448C552.7305,-1310.682 625.393,-1673.3309 814.386,-1891 860.3049,-1943.8861 932.6595,-1981.0907 983.3939,-2002.4512"/>
<polygon fill="#000000" stroke="#000000" points="982.3421,-2005.8035 992.921,-2006.3838 985.0129,-1999.333 982.3421,-2005.8035"/>
</g>
<!-- _9&#45;&gt;_5 -->
<g id="edge66" class="edge">
<title>_9&#45;&gt;_5</title>
<path fill="none" stroke="#000000" d="M555.6995,-1226.1451C600.4135,-1264.4696 710.1582,-1354.7517 814.386,-1411 865.5387,-1438.6054 927.4623,-1461.3962 973.7683,-1476.5645"/>
<polygon fill="#000000" stroke="#000000" points="972.8111,-1479.9334 983.403,-1479.6846 974.9677,-1473.2739 972.8111,-1479.9334"/>
</g>
<!-- _9&#45;&gt;_6 -->
<g id="edge67" class="edge">
<title>_9&#45;&gt;_6</title>
<path fill="none" stroke="#000000" d="M672.8277,-1193.9608C712.5815,-1183.0564 752.2317,-1164.2379 778.386,-1132 831.5479,-1066.4728 776.5587,-829.426 814.386,-754 856.3765,-670.273 947.9658,-604.3811 1001.2139,-571.3218"/>
<polygon fill="#000000" stroke="#000000" points="1003.3477,-574.1196 1010.0533,-565.9168 999.6959,-568.1475 1003.3477,-574.1196"/>
</g>
<!-- _9&#45;&gt;_8 -->
<g id="edge68" class="edge">
<title>_9&#45;&gt;_8</title>
<path fill="none" stroke="#000000" d="M671.431,-1193.8577C711.4786,-1182.9728 751.6518,-1164.1915 778.386,-1132 865.3098,-1027.3326 721.9667,-927.8483 814.386,-828 852.9231,-786.3653 1189.1661,-742.3805 1388.3171,-719.652"/>
<polygon fill="#000000" stroke="#000000" points="1388.7431,-723.1262 1398.2839,-718.5192 1387.9525,-716.171 1388.7431,-723.1262"/>
</g>
<!-- _9&#45;&gt;_11 -->
<g id="edge69" class="edge">
<title>_9&#45;&gt;_11</title>
<path fill="none" stroke="#000000" d="M608.0724,-1191.0096C657.5184,-1178.1304 723.5373,-1158.1768 778.386,-1132 795.7405,-1123.7175 796.5053,-1115.0752 814.386,-1108 1004.9588,-1032.5925 1071.5955,-1086.3165 1269.2163,-1032 1285.7698,-1027.4503 1288.6597,-1022.5381 1305.2163,-1018 1337.1466,-1009.248 1372.1623,-1002.2035 1405.0092,-996.6708"/>
<polygon fill="#000000" stroke="#000000" points="1405.8305,-1000.0827 1415.1276,-995.002 1404.6913,-993.176 1405.8305,-1000.0827"/>
</g>
<!-- _9&#45;&gt;_13 -->
<g id="edge70" class="edge">
<title>_9&#45;&gt;_13</title>
<path fill="none" stroke="#000000" d="M547.7755,-1226.1956C584.7509,-1277.6224 696.2907,-1426.6178 814.386,-1524 871.2315,-1570.8751 946.3769,-1611.7264 994.4129,-1635.6306"/>
<polygon fill="#000000" stroke="#000000" points="993.1283,-1638.8994 1003.6452,-1640.1822 996.2237,-1632.621 993.1283,-1638.8994"/>
</g>
<!-- _9&#45;&gt;_15 -->
<g id="edge71" class="edge">
<title>_9&#45;&gt;_15</title>
<path fill="none" stroke="#000000" d="M655.942,-1192.9737C699.1587,-1182.1938 745.2901,-1163.703 778.386,-1132 812.4976,-1099.3241 779.5542,-1063.9069 814.386,-1032 968.5477,-890.784 1083.4262,-1007.8634 1269.2163,-912 1287.7251,-902.4499 1286.8935,-891.902 1305.2163,-882 1347.9512,-858.9052 1399.3754,-842.3224 1442.6944,-831.1126"/>
<polygon fill="#000000" stroke="#000000" points="1443.8261,-834.4366 1452.6618,-828.5903 1442.1088,-827.6505 1443.8261,-834.4366"/>
</g>
<!-- _9&#45;&gt;_17 -->
<g id="edge73" class="edge">
<title>_9&#45;&gt;_17</title>
<path fill="none" stroke="#000000" d="M542.6701,-1226.4433C571.3952,-1293.3536 677.212,-1527.6411 814.386,-1685 871.5764,-1750.6058 955.4915,-1809.3818 1003.7817,-1840.5338"/>
<polygon fill="#000000" stroke="#000000" points="1002.059,-1843.5866 1012.3695,-1846.0246 1005.8297,-1837.689 1002.059,-1843.5866"/>
</g>
<!-- _9&#45;&gt;_18 -->
<g id="edge74" class="edge">
<title>_9&#45;&gt;_18</title>
<path fill="none" stroke="#000000" d="M615.6551,-1191.2333C671.3206,-1180.1028 747.113,-1165.7929 814.386,-1156 1015.5354,-1126.7189 1068.8465,-1142.2107 1269.2163,-1108 1335.2162,-1096.7313 1409.2661,-1078.693 1462.342,-1064.8"/>
<polygon fill="#000000" stroke="#000000" points="1463.556,-1068.0997 1472.335,-1062.1684 1461.7733,-1061.3305 1463.556,-1068.0997"/>
</g>
<!-- _9&#45;&gt;_19 -->
<g id="edge75" class="edge">
<title>_9&#45;&gt;_19</title>
<path fill="none" stroke="#000000" d="M579.1278,-1225.772C633.9562,-1247.5788 730.4552,-1285.1986 814.386,-1314 866.8053,-1331.988 926.7383,-1350.3467 971.9142,-1363.7476"/>
<polygon fill="#000000" stroke="#000000" points="971.0294,-1367.1357 981.6115,-1366.6153 973.0146,-1360.423 971.0294,-1367.1357"/>
</g>
<!-- _9&#45;&gt;_20 -->
<g id="edge76" class="edge">
<title>_9&#45;&gt;_20</title>
<path fill="none" stroke="#000000" d="M586.7002,-1225.5344C642.2405,-1243.3891 733.3944,-1269.9674 814.386,-1281 993.927,-1305.4569 1200.958,-1305.7523 1346.8418,-1301.4022"/>
<polygon fill="#000000" stroke="#000000" points="1347.3514,-1304.8883 1357.2386,-1301.0813 1347.1353,-1297.8916 1347.3514,-1304.8883"/>
</g>
<!-- _9&#45;&gt;_21 -->
<g id="edge77" class="edge">
<title>_9&#45;&gt;_21</title>
<path fill="none" stroke="#000000" d="M668.7362,-1193.7018C709.3594,-1182.8528 750.5551,-1164.1322 778.386,-1132 844.4017,-1055.7816 743.3082,-979.5209 814.386,-908 958.8562,-762.6293 1093.5732,-937.6114 1269.2163,-832 1291.7663,-818.4411 1282.3449,-798.0093 1305.2163,-785 1314.9889,-779.4413 1325.3725,-774.7764 1336.1158,-770.8761"/>
<polygon fill="#000000" stroke="#000000" points="1337.2989,-774.1707 1345.6433,-767.6421 1335.0489,-767.5421 1337.2989,-774.1707"/>
</g>
<!-- _9&#45;&gt;_23 -->
<g id="edge79" class="edge">
<title>_9&#45;&gt;_23</title>
<path fill="none" stroke="#000000" d="M753.3763,-1208.7516C1076.2682,-1209.6042 1699.9579,-1210.2642 2230.2882,-1205 2243.8858,-1204.865 2257.953,-1204.6909 2272.0999,-1204.491"/>
<polygon fill="#000000" stroke="#000000" points="2272.4615,-1207.9862 2282.4095,-1204.341 2272.3596,-1200.9869 2272.4615,-1207.9862"/>
</g>
<!-- _34 -->
<g id="node35" class="node">
<title>_34</title>
<ellipse fill="#afeeee" stroke="#afeeee" cx="2015.1451" cy="-1178" rx="215.2863" ry="18"/>
<text text-anchor="middle" x="2015.1451" y="-1173.8" font-family="Times,serif" font-size="14.00" fill="#000000">github.com/goreleaser/goreleaser/internal/pipeline/project</text>
</g>
<!-- _9&#45;&gt;_34 -->
<g id="edge72" class="edge">
<title>_9&#45;&gt;_34</title>
<path fill="none" stroke="#000000" d="M716.4035,-1197.9377C749.0159,-1196.4062 782.7036,-1195.0043 814.386,-1194 1154.1131,-1183.2309 1548.13,-1179.6892 1789.5028,-1178.537"/>
<polygon fill="#000000" stroke="#000000" points="1789.8251,-1182.0356 1799.8086,-1178.4888 1789.7923,-1175.0357 1789.8251,-1182.0356"/>
</g>
<!-- _35 -->
<g id="node36" class="node">
<title>_35</title>
<ellipse fill="#afeeee" stroke="#afeeee" cx="1041.8012" cy="-1254" rx="221.5851" ry="18"/>
<text text-anchor="middle" x="1041.8012" y="-1249.8" font-family="Times,serif" font-size="14.00" fill="#000000">github.com/goreleaser/goreleaser/internal/pipeline/snapshot</text>
</g>
<!-- _9&#45;&gt;_35 -->
<g id="edge78" class="edge">
<title>_9&#45;&gt;_35</title>
<path fill="none" stroke="#000000" d="M681.8687,-1221.336C745.1387,-1227.0778 819.2311,-1233.8017 883.6919,-1239.6515"/>
<polygon fill="#000000" stroke="#000000" points="883.6762,-1243.1644 893.9517,-1240.5826 884.309,-1236.193 883.6762,-1243.1644"/>
</g>
<!-- _10&#45;&gt;_23 -->
<g id="edge80" class="edge">
<title>_10&#45;&gt;_23</title>
<path fill="none" stroke="#000000" d="M723.3512,-1098.1729C1037.2631,-1089.4676 1686.5118,-1082.8249 2230.2882,-1151 2281.5681,-1157.4291 2338.4176,-1170.4124 2381.6404,-1181.5374"/>
<polygon fill="#000000" stroke="#000000" points="2380.9245,-1184.9676 2391.4837,-1184.0993 2382.6877,-1178.1933 2380.9245,-1184.9676"/>
</g>
<!-- _11&#45;&gt;_1 -->
<g id="edge82" class="edge">
<title>_11&#45;&gt;_1</title>
<path fill="none" stroke="#000000" d="M1719.2712,-989.285C1735.8108,-996.1381 1751.1355,-1005.4641 1764.002,-1018 1824.6231,-1077.0638 1774.8622,-1124.1826 1800.002,-1205 1857.1468,-1388.7044 1962.287,-1595.8837 2000.6493,-1668.8421"/>
<polygon fill="#000000" stroke="#000000" points="1997.6378,-1670.6346 2005.4023,-1677.8431 2003.8278,-1667.3659 1997.6378,-1670.6346"/>
</g>
<!-- _11&#45;&gt;_22 -->
<g id="edge85" class="edge">
<title>_11&#45;&gt;_22</title>
<path fill="none" stroke="#000000" d="M1711.215,-969.7491C1852.2934,-964.3279 2054.749,-962.7495 2230.2882,-985 2246.6497,-987.0739 2250.2019,-990.3624 2266.2882,-994 2430.1014,-1031.043 2473.1499,-1030.6262 2636.6565,-1069 2687.6992,-1080.9793 2744.8762,-1096.3204 2788.2396,-1108.3565"/>
<polygon fill="#000000" stroke="#000000" points="2787.5396,-1111.7947 2798.112,-1111.1058 2789.4176,-1105.0513 2787.5396,-1111.7947"/>
</g>
<!-- _11&#45;&gt;_23 -->
<g id="edge86" class="edge">
<title>_11&#45;&gt;_23</title>
<path fill="none" stroke="#000000" d="M1742.8449,-984.4575C1883.7812,-992.7897 2072.3312,-1014.428 2230.2882,-1069 2303.8815,-1094.4254 2379.6846,-1146.3268 2420.6482,-1176.928"/>
<polygon fill="#000000" stroke="#000000" points="2418.7573,-1179.8859 2428.8473,-1183.1175 2422.9749,-1174.2991 2418.7573,-1179.8859"/>
</g>
<!-- _11&#45;&gt;_24 -->
<g id="edge81" class="edge">
<title>_11&#45;&gt;_24</title>
<path fill="none" stroke="#000000" d="M1632.958,-963.9929C1673.6826,-956.8468 1721.2893,-947.8216 1764.002,-938 1780.1855,-934.2787 1783.5537,-930.2817 1800.002,-928 2118.8854,-883.7653 2497.0842,-897.7917 2703.6696,-911.0136"/>
<polygon fill="#000000" stroke="#000000" points="2703.475,-914.5083 2713.6804,-911.6623 2703.9277,-907.5229 2703.475,-914.5083"/>
</g>
<!-- _11&#45;&gt;_26 -->
<g id="edge84" class="edge">
<title>_11&#45;&gt;_26</title>
<path fill="none" stroke="#000000" d="M1724.7535,-971.5748C1738.9609,-965.6792 1752.2924,-957.9724 1764.002,-948 1805.4222,-912.7245 1758.34,-865.9897 1800.002,-831 1809.7827,-822.7857 1820.7501,-816.2744 1832.4177,-811.1592"/>
<polygon fill="#000000" stroke="#000000" points="1833.937,-814.3209 1841.9158,-807.3503 1831.3315,-807.8239 1833.937,-814.3209"/>
</g>
<!-- _11&#45;&gt;_31 -->
<g id="edge83" class="edge">
<title>_11&#45;&gt;_31</title>
<path fill="none" stroke="#000000" d="M1715.7862,-970.2737C1732.8528,-964.8468 1749.2575,-957.5961 1764.002,-948 1789.4305,-931.4505 1774.6486,-906.6644 1800.002,-890 1811.4922,-882.4477 1824.0663,-876.3964 1837.1835,-871.5719"/>
<polygon fill="#000000" stroke="#000000" points="1838.4958,-874.8221 1846.8231,-868.2718 1836.2285,-868.1995 1838.4958,-874.8221"/>
</g>
<!-- _12&#45;&gt;_23 -->
<g id="edge87" class="edge">
<title>_12&#45;&gt;_23</title>
<path fill="none" stroke="#000000" d="M663.0291,-328.6726C1037.0093,-285.233 2108.5571,-170.5173 2230.2882,-267 2378.566,-384.5233 2437.8243,-1028.4691 2449.3193,-1172.4411"/>
<polygon fill="#000000" stroke="#000000" points="2445.8493,-1172.9619 2450.1212,-1182.6573 2452.8279,-1172.414 2445.8493,-1172.9619"/>
</g>
<!-- _13&#45;&gt;_1 -->
<g id="edge88" class="edge">
<title>_13&#45;&gt;_1</title>
<path fill="none" stroke="#000000" d="M1213.937,-1667.628C1244.3438,-1669.1919 1275.7056,-1670.7171 1305.2163,-1672 1481.0309,-1679.6432 1681.4285,-1686.2227 1824.3737,-1690.5495"/>
<polygon fill="#000000" stroke="#000000" points="1824.4643,-1694.0537 1834.5654,-1690.8571 1824.6756,-1687.0569 1824.4643,-1694.0537"/>
</g>
<!-- _13&#45;&gt;_23 -->
<g id="edge89" class="edge">
<title>_13&#45;&gt;_23</title>
<path fill="none" stroke="#000000" d="M1118.8118,-1674.7242C1353.7865,-1723.873 2056.1364,-1856.2799 2230.2882,-1723 2278.9191,-1685.7823 2245.0412,-1647.4342 2266.2882,-1590 2318.3717,-1449.2098 2402.6079,-1290.0861 2436.5718,-1227.9066"/>
<polygon fill="#000000" stroke="#000000" points="2439.6547,-1229.5638 2441.3938,-1219.1127 2433.5168,-1226.1982 2439.6547,-1229.5638"/>
</g>
<!-- _14&#45;&gt;_1 -->
<g id="edge91" class="edge">
<title>_14&#45;&gt;_1</title>
<path fill="none" stroke="#000000" d="M1601.6784,-1800.9722C1690.2054,-1778.4967 1845.6834,-1739.0235 1938.6771,-1715.4139"/>
<polygon fill="#000000" stroke="#000000" points="1939.756,-1718.7511 1948.5872,-1712.8979 1938.0334,-1711.9664 1939.756,-1718.7511"/>
</g>
<!-- _14&#45;&gt;_23 -->
<g id="edge93" class="edge">
<title>_14&#45;&gt;_23</title>
<path fill="none" stroke="#000000" d="M1672.4759,-1831.0744C1851.3706,-1844.8504 2150.1274,-1855.9607 2230.2882,-1786 2297.0169,-1727.7623 2239.0186,-1674.2658 2266.2882,-1590 2312.3981,-1447.5157 2399.6595,-1289.9565 2435.4963,-1228.0615"/>
<polygon fill="#000000" stroke="#000000" points="2438.59,-1229.7038 2440.5962,-1219.3006 2432.5404,-1226.1821 2438.59,-1229.7038"/>
</g>
<!-- _14&#45;&gt;_26 -->
<g id="edge92" class="edge">
<title>_14&#45;&gt;_26</title>
<path fill="none" stroke="#000000" d="M1552.7574,-1799.966C1598.3753,-1753.2721 1717.4994,-1622.575 1764.002,-1487 1787.6862,-1417.9504 1750.2227,-884.393 1800.002,-831 1808.7119,-821.6578 1818.8923,-814.3177 1830.0003,-808.6132"/>
<polygon fill="#000000" stroke="#000000" points="1831.5063,-811.7728 1839.0973,-804.3818 1828.554,-805.4258 1831.5063,-811.7728"/>
</g>
<!-- _14&#45;&gt;_29 -->
<g id="edge90" class="edge">
<title>_14&#45;&gt;_29</title>
<path fill="none" stroke="#000000" d="M1601.6784,-1835.0278C1690.579,-1857.5981 1846.9967,-1897.3099 1939.8509,-1920.8841"/>
<polygon fill="#000000" stroke="#000000" points="1939.1876,-1924.3266 1949.7414,-1923.3951 1940.9102,-1917.5419 1939.1876,-1924.3266"/>
</g>
<!-- _15&#45;&gt;_1 -->
<g id="edge96" class="edge">
<title>_15&#45;&gt;_1</title>
<path fill="none" stroke="#000000" d="M1587.8744,-829.462C1641.6271,-850.0409 1722.4508,-889.6871 1764.002,-953 1826.0776,-1047.5866 1769.0148,-1096.1892 1800.002,-1205 1852.6951,-1390.0305 1960.5731,-1596.3943 2000.1544,-1668.9895"/>
<polygon fill="#000000" stroke="#000000" points="1997.1866,-1670.8569 2005.0616,-1677.9446 2003.3254,-1667.493 1997.1866,-1670.8569"/>
</g>
<!-- _15&#45;&gt;_22 -->
<g id="edge99" class="edge">
<title>_15&#45;&gt;_22</title>
<path fill="none" stroke="#000000" d="M1717.1395,-803.1171C1733.4779,-798.6073 1749.3583,-792.6927 1764.002,-785 1785.4698,-773.7224 1777.9108,-754.0013 1800.002,-744 1887.11,-704.5637 2138.2552,-718.0588 2230.2882,-744 2489.5058,-817.0651 2747.3473,-1030.5039 2830.0272,-1103.3231"/>
<polygon fill="#000000" stroke="#000000" points="2827.892,-1106.1074 2837.6978,-1110.1195 2832.5342,-1100.8681 2827.892,-1106.1074"/>
</g>
<!-- _15&#45;&gt;_23 -->
<g id="edge100" class="edge">
<title>_15&#45;&gt;_23</title>
<path fill="none" stroke="#000000" d="M1670.7887,-798.2803C1701.5303,-794.5422 1733.9546,-790.0934 1764.002,-785 1780.1618,-782.2607 1783.7096,-778.7885 1800.002,-777 1895.0502,-766.5663 2157.352,-715.1669 2230.2882,-777 2304.8594,-840.2192 2224.019,-905.8476 2266.2882,-994 2303.404,-1071.405 2378.4536,-1141.2585 2420.7281,-1176.6301"/>
<polygon fill="#000000" stroke="#000000" points="2418.5365,-1179.3594 2428.4744,-1183.0322 2422.996,-1173.9637 2418.5365,-1179.3594"/>
</g>
<!-- _15&#45;&gt;_24 -->
<g id="edge94" class="edge">
<title>_15&#45;&gt;_24</title>
<path fill="none" stroke="#000000" d="M1726.9594,-804.8676C1740.1365,-799.7847 1752.6629,-793.2708 1764.002,-785 1795.1753,-762.262 1767.5509,-726.8738 1800.002,-706 1880.4208,-654.2715 2135.7798,-691.4676 2230.2882,-706 2457.1857,-740.8897 2710.801,-852.9537 2812.0477,-900.9002"/>
<polygon fill="#000000" stroke="#000000" points="2810.5455,-904.0614 2821.0791,-905.1989 2813.554,-897.7408 2810.5455,-904.0614"/>
</g>
<!-- _15&#45;&gt;_26 -->
<g id="edge98" class="edge">
<title>_15&#45;&gt;_26</title>
<path fill="none" stroke="#000000" d="M1740.1421,-808.5783C1770.4881,-808.0731 1801.5892,-807.5553 1831.4539,-807.0581"/>
<polygon fill="#000000" stroke="#000000" points="1831.5913,-810.5564 1841.5316,-806.8903 1831.4747,-803.5574 1831.5913,-810.5564"/>
</g>
<!-- _15&#45;&gt;_31 -->
<g id="edge97" class="edge">
<title>_15&#45;&gt;_31</title>
<path fill="none" stroke="#000000" d="M1674.5686,-825.3978C1734.8023,-831.1638 1805.2872,-837.911 1866.4583,-843.7667"/>
<polygon fill="#000000" stroke="#000000" points="1866.2966,-847.2672 1876.5846,-844.7361 1866.9637,-840.299 1866.2966,-847.2672"/>
</g>
<!-- _32 -->
<g id="node33" class="node">
<title>_32</title>
<ellipse fill="#afeeee" stroke="#afeeee" cx="2015.1451" cy="-636" rx="177.6524" ry="18"/>
<text text-anchor="middle" x="2015.1451" y="-631.8" font-family="Times,serif" font-size="14.00" fill="#000000">github.com/goreleaser/goreleaser/internal/linux</text>
</g>
<!-- _15&#45;&gt;_32 -->
<g id="edge95" class="edge">
<title>_15&#45;&gt;_32</title>
<path fill="none" stroke="#000000" d="M1730.4075,-805.5149C1742.4792,-800.2076 1753.836,-793.4715 1764.002,-785 1805.798,-750.1705 1758.7418,-703.4626 1800.002,-668 1811.0544,-658.5005 1823.6641,-651.138 1837.1103,-645.484"/>
<polygon fill="#000000" stroke="#000000" points="1838.4786,-648.7076 1846.544,-641.8374 1835.9546,-642.1784 1838.4786,-648.7076"/>
</g>
<!-- _16&#45;&gt;_1 -->
<g id="edge103" class="edge">
<title>_16&#45;&gt;_1</title>
<path fill="none" stroke="#000000" d="M1069.6947,-2185.1295C1116.3733,-2156.19 1214.1755,-2099.6311 1305.2163,-2073 1403.6709,-2044.2003 1684.3193,-2086.6018 1764.002,-2022 1803.6321,-1989.8703 1773.3333,-1956.493 1800.002,-1913 1850.0995,-1831.2977 1936.6287,-1756.8446 1983.224,-1720.0956"/>
<polygon fill="#000000" stroke="#000000" points="1985.4419,-1722.8045 1991.1685,-1713.8906 1981.133,-1717.2877 1985.4419,-1722.8045"/>
</g>
<!-- _16&#45;&gt;_23 -->
<g id="edge104" class="edge">
<title>_16&#45;&gt;_23</title>
<path fill="none" stroke="#000000" d="M1084.5282,-2220.6233C1254.8302,-2287.7305 1892.3105,-2508.5765 2230.2882,-2204 2381.3255,-2067.8892 2438.7892,-1378.3776 2449.5388,-1229.4029"/>
<polygon fill="#000000" stroke="#000000" points="2453.0424,-1229.4739 2450.2587,-1219.2513 2446.06,-1228.9786 2453.0424,-1229.4739"/>
</g>
<!-- _16&#45;&gt;_30 -->
<g id="edge102" class="edge">
<title>_16&#45;&gt;_30</title>
<path fill="none" stroke="#000000" d="M1213.8155,-2212.4243C1264.8377,-2215.2197 1320.5556,-2218.2724 1371.0272,-2221.0377"/>
<polygon fill="#000000" stroke="#000000" points="1370.8721,-2224.5343 1381.0486,-2221.5867 1371.2551,-2217.5448 1370.8721,-2224.5343"/>
</g>
<!-- _17&#45;&gt;_1 -->
<g id="edge108" class="edge">
<title>_17&#45;&gt;_1</title>
<path fill="none" stroke="#000000" d="M1245.0009,-1870.0131C1423.9714,-1873.2352 1670.3054,-1872.0327 1764.002,-1845 1852.0925,-1819.5847 1941.0538,-1755.721 1985.6953,-1720.4139"/>
<polygon fill="#000000" stroke="#000000" points="1988.1394,-1722.9409 1993.7622,-1713.9612 1983.7668,-1717.4745 1988.1394,-1722.9409"/>
</g>
<!-- _17&#45;&gt;_22 -->
<g id="edge110" class="edge">
<title>_17&#45;&gt;_22</title>
<path fill="none" stroke="#000000" d="M1099.3596,-1881.417C1152.5573,-1900.698 1229.2253,-1937.2199 1269.2163,-1997 1334.081,-2093.9621 1220.9772,-2176.2978 1305.2163,-2257 1412.0755,-2359.3726 2524.3137,-2386.3231 2636.6565,-2290 2816.0908,-2136.1524 2851.2685,-1319.3307 2856.5351,-1156.3181"/>
<polygon fill="#000000" stroke="#000000" points="2860.0392,-1156.2371 2856.8521,-1146.133 2853.0426,-1156.0192 2860.0392,-1156.2371"/>
</g>
<!-- _17&#45;&gt;_23 -->
<g id="edge111" class="edge">
<title>_17&#45;&gt;_23</title>
<path fill="none" stroke="#000000" d="M1094.9286,-1881.6146C1146.9099,-1901.5493 1224.5865,-1939.0032 1269.2163,-1997 1305.7785,-2044.5129 1257.501,-2090.7024 1305.2163,-2127 1387.4173,-2189.5312 2154.8797,-2106.5741 2230.2882,-2036 2353.5607,-1920.6303 2431.0973,-1362.2198 2447.9848,-1229.3943"/>
<polygon fill="#000000" stroke="#000000" points="2451.4891,-1229.5793 2449.265,-1219.2205 2444.5439,-1228.7053 2451.4891,-1229.5793"/>
</g>
<!-- _17&#45;&gt;_24 -->
<g id="edge105" class="edge">
<title>_17&#45;&gt;_24</title>
<path fill="none" stroke="#000000" d="M1236.9471,-1871.6318C1555.5865,-1882.0937 2159.4151,-1892.7892 2230.2882,-1827 2299.3694,-1762.8741 2207.909,-1692.0015 2266.2882,-1618 2377.2382,-1477.3597 2530.7213,-1603.4554 2636.6565,-1459 2683.9404,-1394.5227 2637.7325,-1172.9264 2672.6565,-1101 2705.7528,-1032.8377 2776.4439,-976.648 2820.1317,-946.6287"/>
<polygon fill="#000000" stroke="#000000" points="2822.1659,-949.4783 2828.49,-940.9779 2818.2453,-943.6792 2822.1659,-949.4783"/>
</g>
<!-- _17&#45;&gt;_28 -->
<g id="edge106" class="edge">
<title>_17&#45;&gt;_28</title>
<path fill="none" stroke="#000000" d="M1065.2674,-1845.9814C1106.7681,-1814.0148 1195.6766,-1745.0821 1269.2163,-1685 1356.5508,-1613.6476 1457.6546,-1526.6983 1505.9935,-1484.8517"/>
<polygon fill="#000000" stroke="#000000" points="1508.5739,-1487.247 1513.8402,-1478.0537 1503.9903,-1481.9563 1508.5739,-1487.247"/>
</g>
<!-- _17&#45;&gt;_29 -->
<g id="edge107" class="edge">
<title>_17&#45;&gt;_29</title>
<path fill="none" stroke="#000000" d="M1112.0315,-1881.0682C1164.8213,-1893.1139 1239.1089,-1908.4077 1305.2163,-1916 1485.4318,-1936.6974 1692.9322,-1941.5335 1836.8639,-1941.9024"/>
<polygon fill="#000000" stroke="#000000" points="1837.1094,-1945.4028 1847.1159,-1941.9214 1837.1224,-1938.4028 1837.1094,-1945.4028"/>
</g>
<!-- _17&#45;&gt;_31 -->
<g id="edge109" class="edge">
<title>_17&#45;&gt;_31</title>
<path fill="none" stroke="#000000" d="M1088.3884,-1846.3972C1234.5001,-1790.2218 1679.072,-1611.6189 1764.002,-1487 1848.583,-1362.8932 1745.6848,-1291.0218 1800.002,-1151 1843.6566,-1038.4647 1942.1756,-930.5309 1989.2075,-883.1418"/>
<polygon fill="#000000" stroke="#000000" points="1991.6927,-885.6064 1996.2975,-876.0646 1986.7474,-880.6522 1991.6927,-885.6064"/>
</g>
<!-- _18&#45;&gt;_1 -->
<g id="edge113" class="edge">
<title>_18&#45;&gt;_1</title>
<path fill="none" stroke="#000000" d="M1557.141,-1062.9349C1600.6939,-1098.3452 1697.9527,-1181.1065 1764.002,-1265 1874.0072,-1404.7248 1969.1216,-1597.5999 2002.4572,-1668.4622"/>
<polygon fill="#000000" stroke="#000000" points="1999.3393,-1670.0575 2006.7461,-1677.6332 2005.6802,-1667.0921 1999.3393,-1670.0575"/>
</g>
<!-- _18&#45;&gt;_22 -->
<g id="edge116" class="edge">
<title>_18&#45;&gt;_22</title>
<path fill="none" stroke="#000000" d="M1728.1777,-1049.035C1867.8357,-1052.6585 2060.8346,-1059.127 2230.2882,-1070 2403.4377,-1081.1102 2602.8904,-1100.7355 2729.4902,-1114.0485"/>
<polygon fill="#000000" stroke="#000000" points="2729.3015,-1117.5479 2739.6134,-1115.1159 2730.0356,-1110.5865 2729.3015,-1117.5479"/>
</g>
<!-- _18&#45;&gt;_23 -->
<g id="edge117" class="edge">
<title>_18&#45;&gt;_23</title>
<path fill="none" stroke="#000000" d="M1669.4521,-1058.2613C1864.0587,-1077.5285 2203.4361,-1111.6626 2230.2882,-1118 2292.2082,-1132.6139 2360.2979,-1159.9914 2404.3464,-1179.2992"/>
<polygon fill="#000000" stroke="#000000" points="2403.0813,-1182.5667 2413.6424,-1183.4108 2405.9128,-1176.1649 2403.0813,-1182.5667"/>
</g>
<!-- _18&#45;&gt;_24 -->
<g id="edge112" class="edge">
<title>_18&#45;&gt;_24</title>
<path fill="none" stroke="#000000" d="M1673.976,-1032.1457C1926.4562,-1008.8586 2457.0298,-959.922 2713.0654,-936.3069"/>
<polygon fill="#000000" stroke="#000000" points="2713.5425,-939.7779 2723.1788,-935.3741 2712.8996,-932.8074 2713.5425,-939.7779"/>
</g>
<!-- _18&#45;&gt;_26 -->
<g id="edge115" class="edge">
<title>_18&#45;&gt;_26</title>
<path fill="none" stroke="#000000" d="M1714.6271,-1037.3432C1732.9081,-1030.3805 1749.9002,-1020.5813 1764.002,-1007 1821.51,-951.6146 1741.4163,-885.2442 1800.002,-831 1809.3196,-822.3728 1819.9172,-815.5504 1831.2956,-810.2069"/>
<polygon fill="#000000" stroke="#000000" points="1832.7635,-813.3859 1840.5788,-806.2324 1830.0083,-806.9508 1832.7635,-813.3859"/>
</g>
<!-- _18&#45;&gt;_31 -->
<g id="edge114" class="edge">
<title>_18&#45;&gt;_31</title>
<path fill="none" stroke="#000000" d="M1690.9555,-1033.9051C1716.3908,-1027.9955 1741.6837,-1019.4021 1764.002,-1007 1785.1988,-995.2211 1780.8114,-980.8246 1800.002,-966 1848.789,-928.3125 1912.7831,-898.1993 1958.2618,-879.4443"/>
<polygon fill="#000000" stroke="#000000" points="1959.7292,-882.6259 1967.6733,-875.6159 1957.0916,-876.1419 1959.7292,-882.6259"/>
</g>
<!-- _19&#45;&gt;_1 -->
<g id="edge120" class="edge">
<title>_19&#45;&gt;_1</title>
<path fill="none" stroke="#000000" d="M1091.4926,-1401.4998C1137.8688,-1418.1358 1208.795,-1444.3574 1269.2163,-1470 1285.5044,-1476.9126 1288.6798,-1480.7048 1305.2163,-1487 1424.6211,-1532.4553 1786.9786,-1633.4262 1942.7274,-1676.2192"/>
<polygon fill="#000000" stroke="#000000" points="1942.1129,-1679.6799 1952.6827,-1678.9525 1943.9663,-1672.9297 1942.1129,-1679.6799"/>
</g>
<!-- _19&#45;&gt;_23 -->
<g id="edge122" class="edge">
<title>_19&#45;&gt;_23</title>
<path fill="none" stroke="#000000" d="M1189.4344,-1371.0998C1227.1699,-1367.9592 1267.6844,-1364.7233 1305.2163,-1362 1716.059,-1332.1897 1831.2252,-1407.123 2230.2882,-1305 2298.6019,-1287.518 2371.4284,-1248.9088 2414.1226,-1223.968"/>
<polygon fill="#000000" stroke="#000000" points="2415.932,-1226.9643 2422.7633,-1218.8659 2412.3728,-1220.9366 2415.932,-1226.9643"/>
</g>
<!-- _19&#45;&gt;_24 -->
<g id="edge118" class="edge">
<title>_19&#45;&gt;_24</title>
<path fill="none" stroke="#000000" d="M1209.013,-1395.0345C1439.4141,-1407.982 1867.2415,-1423.9136 2230.2882,-1392 2413.0047,-1375.9383 2507.7669,-1450.502 2636.6565,-1320 2705.9703,-1249.819 2626.8117,-1188.3386 2672.6565,-1101 2707.9935,-1033.6795 2778.3444,-976.9802 2821.2863,-946.6797"/>
<polygon fill="#000000" stroke="#000000" points="2823.5358,-949.3786 2829.7509,-940.7982 2819.5415,-943.6301 2823.5358,-949.3786"/>
</g>
<!-- _19&#45;&gt;_26 -->
<g id="edge121" class="edge">
<title>_19&#45;&gt;_26</title>
<path fill="none" stroke="#000000" d="M1127.2678,-1367.4679C1176.8892,-1353.2171 1235.9861,-1327.3059 1269.2163,-1281 1316.2205,-1215.5003 1250.3972,-979.114 1305.2163,-920 1375.6129,-844.0881 1662.4694,-859.2342 1764.002,-839 1780.0762,-835.7966 1783.8529,-833.8013 1800.002,-831 1827.1721,-826.2869 1856.4089,-822.0603 1884.305,-818.4277"/>
<polygon fill="#000000" stroke="#000000" points="1885.0428,-821.8618 1894.5155,-817.1165 1884.1511,-814.9188 1885.0428,-821.8618"/>
</g>
<!-- _19&#45;&gt;_28 -->
<g id="edge119" class="edge">
<title>_19&#45;&gt;_28</title>
<path fill="none" stroke="#000000" d="M1134.9637,-1400.1892C1185.3211,-1408.7815 1248.6158,-1419.3266 1305.2163,-1428 1341.4566,-1433.5534 1380.9809,-1439.2103 1416.8528,-1444.1924"/>
<polygon fill="#000000" stroke="#000000" points="1416.4824,-1447.6744 1426.8679,-1445.5791 1417.4425,-1440.7406 1416.4824,-1447.6744"/>
</g>
<!-- _20&#45;&gt;_1 -->
<g id="edge124" class="edge">
<title>_20&#45;&gt;_1</title>
<path fill="none" stroke="#000000" d="M1569.4648,-1309.7593C1616.0669,-1334.2987 1700.1987,-1381.4264 1764.002,-1433 1789.075,-1453.267 1934.0271,-1608.6313 1991.5912,-1670.6002"/>
<polygon fill="#000000" stroke="#000000" points="1989.1123,-1673.0743 1998.4815,-1678.021 1994.2421,-1668.3113 1989.1123,-1673.0743"/>
</g>
<!-- _20&#45;&gt;_23 -->
<g id="edge125" class="edge">
<title>_20&#45;&gt;_23</title>
<path fill="none" stroke="#000000" d="M1703.291,-1302.3195C1845.056,-1307.6139 2052.4351,-1307.4379 2230.2882,-1276 2291.2947,-1265.2163 2358.2676,-1240.5891 2402.354,-1222.4841"/>
<polygon fill="#000000" stroke="#000000" points="2403.7846,-1225.6798 2411.6775,-1218.6121 2401.0998,-1219.2151 2403.7846,-1225.6798"/>
</g>
<!-- _20&#45;&gt;_24 -->
<g id="edge123" class="edge">
<title>_20&#45;&gt;_24</title>
<path fill="none" stroke="#000000" d="M1588.4985,-1309.4687C1765.2727,-1363.0595 2333.512,-1505.3102 2636.6565,-1228 2679.9448,-1188.4008 2642.4919,-1151.3197 2672.6565,-1101 2711.9624,-1035.4308 2781.6036,-977.756 2823.2187,-946.8741"/>
<polygon fill="#000000" stroke="#000000" points="2825.4032,-949.6124 2831.4015,-940.8791 2821.2663,-943.9657 2825.4032,-949.6124"/>
</g>
<!-- _21&#45;&gt;_1 -->
<g id="edge128" class="edge">
<title>_21&#45;&gt;_1</title>
<path fill="none" stroke="#000000" d="M1738.5451,-765.3487C1747.8146,-770.6687 1756.3985,-777.1519 1764.002,-785 1829.1839,-852.2788 1776.8952,-1114.219 1800.002,-1205 1847.3479,-1391.0109 1958.0426,-1595.9867 1999.2862,-1668.6429"/>
<polygon fill="#000000" stroke="#000000" points="1996.4114,-1670.6668 2004.4094,-1677.6153 2002.4903,-1667.1958 1996.4114,-1670.6668"/>
</g>
<!-- _21&#45;&gt;_23 -->
<g id="edge131" class="edge">
<title>_21&#45;&gt;_23</title>
<path fill="none" stroke="#000000" d="M1734.3269,-749.9007C1744.9526,-744.8519 1754.9582,-738.6254 1764.002,-731 1807.2227,-694.558 1754.7218,-642.849 1800.002,-609 1838.2947,-580.3744 2192.0891,-580.2496 2230.2882,-609 2276.4804,-643.7664 2247.6107,-679.2865 2266.2882,-734 2324.2821,-903.8858 2408.7245,-1102.464 2439.6007,-1173.7864"/>
<polygon fill="#000000" stroke="#000000" points="2436.4025,-1175.2088 2443.5936,-1182.9895 2442.8241,-1172.4226 2436.4025,-1175.2088"/>
</g>
<!-- _21&#45;&gt;_24 -->
<g id="edge126" class="edge">
<title>_21&#45;&gt;_24</title>
<path fill="none" stroke="#000000" d="M1735.2859,-750.1285C1745.6066,-745.0055 1755.2892,-738.702 1764.002,-731 1814.3983,-686.4506 1747.0838,-625.5224 1800.002,-584 1950.4537,-465.9476 2041.1747,-555.5714 2230.2882,-584 2417.1482,-612.0899 2474.0255,-612.7874 2636.6565,-709 2723.1753,-760.1846 2801.8486,-851.9022 2837.3824,-896.7957"/>
<polygon fill="#000000" stroke="#000000" points="2834.7841,-899.1545 2843.7058,-904.8689 2840.2949,-894.8381 2834.7841,-899.1545"/>
</g>
<!-- _21&#45;&gt;_26 -->
<g id="edge130" class="edge">
<title>_21&#45;&gt;_26</title>
<path fill="none" stroke="#000000" d="M1678.4602,-771.7704C1741.0604,-777.7628 1814.1293,-784.7575 1876.1689,-790.6963"/>
<polygon fill="#000000" stroke="#000000" points="1876.1359,-794.2091 1886.4239,-791.678 1876.803,-787.2409 1876.1359,-794.2091"/>
</g>
<!-- _21&#45;&gt;_31 -->
<g id="edge129" class="edge">
<title>_21&#45;&gt;_31</title>
<path fill="none" stroke="#000000" d="M1723.1998,-767.6959C1737.4575,-772.1554 1751.242,-777.8298 1764.002,-785 1786.6345,-797.7179 1777.4185,-818.1953 1800.002,-831 1810.0064,-836.6724 1820.6869,-841.3755 1831.7398,-845.2598"/>
<polygon fill="#000000" stroke="#000000" points="1830.9486,-848.6834 1841.5412,-848.4663 1833.1251,-842.0304 1830.9486,-848.6834"/>
</g>
<!-- _21&#45;&gt;_32 -->
<g id="edge127" class="edge">
<title>_21&#45;&gt;_32</title>
<path fill="none" stroke="#000000" d="M1728.1399,-748.9559C1740.78,-744.2567 1752.8815,-738.356 1764.002,-731 1790.899,-713.2081 1773.3794,-686.1999 1800.002,-668 1813.3617,-658.8669 1828.2776,-651.8949 1843.8544,-646.6164"/>
<polygon fill="#000000" stroke="#000000" points="1845.1397,-649.8813 1853.6306,-643.5444 1843.0412,-643.2033 1845.1397,-649.8813"/>
</g>
<!-- _23&#45;&gt;_22 -->
<g id="edge140" class="edge">
<title>_23&#45;&gt;_22</title>
<path fill="none" stroke="#000000" d="M2538.0432,-1185.4292C2603.4795,-1173.6597 2693.2958,-1157.5052 2761.0043,-1145.327"/>
<polygon fill="#000000" stroke="#000000" points="2762.0282,-1148.6991 2771.2506,-1143.4841 2760.789,-1141.8097 2762.0282,-1148.6991"/>
</g>
<!-- _23&#45;&gt;_24 -->
<g id="edge139" class="edge">
<title>_23&#45;&gt;_24</title>
<path fill="none" stroke="#000000" d="M2477.4786,-1183.1869C2547.9819,-1134.8955 2742.8102,-1001.4473 2822.5903,-946.8017"/>
<polygon fill="#000000" stroke="#000000" points="2825.0156,-949.3828 2831.288,-940.8442 2821.0599,-943.6077 2825.0156,-949.3828"/>
</g>
<!-- _25&#45;&gt;_22 -->
<g id="edge27" class="edge">
<title>_25&#45;&gt;_22</title>
<path fill="none" stroke="#000000" d="M1653.8154,-377.0107C1911.8674,-347.5891 2509.2776,-296.8077 2636.6565,-439 2712.6134,-523.7903 2624.4699,-846.8646 2672.6565,-950 2704.7305,-1018.6493 2775.7583,-1074.6786 2819.7868,-1104.5356"/>
<polygon fill="#000000" stroke="#000000" points="2817.9512,-1107.5184 2828.213,-1110.154 2821.8346,-1101.6943 2817.9512,-1107.5184"/>
</g>
<!-- _25&#45;&gt;_23 -->
<g id="edge28" class="edge">
<title>_25&#45;&gt;_23</title>
<path fill="none" stroke="#000000" d="M1665.8176,-406.2662C1843.6171,-428.1078 2148.3256,-475.2285 2230.2882,-549 2328.5124,-637.408 2422.0698,-1059.5145 2445.7425,-1172.9063"/>
<polygon fill="#000000" stroke="#000000" points="2442.356,-1173.8131 2447.813,-1182.8944 2449.2102,-1172.3922 2442.356,-1173.8131"/>
</g>
<!-- _25&#45;&gt;_24 -->
<g id="edge24" class="edge">
<title>_25&#45;&gt;_24</title>
<path fill="none" stroke="#000000" d="M1559.7234,-373.8954C1605.0322,-342.4771 1704.6303,-279.0136 1800.002,-256 2164.9312,-167.9409 2357.9074,-120.5508 2636.6565,-372 2800.0697,-519.409 2844.4176,-804.3481 2854.6294,-894.7549"/>
<polygon fill="#000000" stroke="#000000" points="2851.1598,-895.2261 2855.7112,-904.7935 2858.1195,-894.476 2851.1598,-895.2261"/>
</g>
<!-- _25&#45;&gt;_26 -->
<g id="edge25" class="edge">
<title>_25&#45;&gt;_26</title>
<path fill="none" stroke="#000000" d="M1562.1796,-410.0254C1608.7752,-441.6115 1703.887,-511.0611 1764.002,-589 1786.3395,-617.9605 1775.8384,-635.5446 1800.002,-663 1847.1629,-716.5855 1919.3064,-758.2251 1966.8486,-781.9457"/>
<polygon fill="#000000" stroke="#000000" points="1965.4957,-785.1806 1976.0143,-786.4491 1968.5826,-778.8979 1965.4957,-785.1806"/>
</g>
<!-- _25&#45;&gt;_27 -->
<g id="edge26" class="edge">
<title>_25&#45;&gt;_27</title>
<path fill="none" stroke="#000000" d="M1749.5781,-392C1779.9792,-392 1810.9265,-392 1840.4442,-392"/>
<polygon fill="#000000" stroke="#000000" points="1840.8221,-395.5001 1850.8221,-392 1840.8221,-388.5001 1840.8221,-395.5001"/>
</g>
<!-- _26&#45;&gt;_23 -->
<g id="edge134" class="edge">
<title>_26&#45;&gt;_23</title>
<path fill="none" stroke="#000000" d="M2189.5345,-806.4249C2204.4739,-812.1858 2218.3947,-820.159 2230.2882,-831 2285.1186,-880.9783 2232.4506,-927.9757 2266.2882,-994 2305.4625,-1070.4373 2379.7766,-1140.7211 2421.3641,-1176.4083"/>
<polygon fill="#000000" stroke="#000000" points="2419.3349,-1179.2766 2429.2251,-1183.076 2423.8629,-1173.9383 2419.3349,-1179.2766"/>
</g>
<!-- _26&#45;&gt;_24 -->
<g id="edge133" class="edge">
<title>_26&#45;&gt;_24</title>
<path fill="none" stroke="#000000" d="M2128.5293,-817.8126C2161.3741,-821.9267 2197.274,-826.5322 2230.2882,-831 2412.2194,-855.6208 2623.3758,-887.2303 2748.3723,-906.2588"/>
<polygon fill="#000000" stroke="#000000" points="2747.9225,-909.7306 2758.3356,-907.7767 2748.9768,-902.8104 2747.9225,-909.7306"/>
</g>
<!-- _27&#45;&gt;_22 -->
<g id="edge137" class="edge">
<title>_27&#45;&gt;_22</title>
<path fill="none" stroke="#000000" d="M2149.9152,-402.3616C2177.1281,-407.1231 2205.0982,-414.0218 2230.2882,-424 2434.673,-504.9605 2520.7571,-519.1978 2636.6565,-706 2694.4483,-799.1467 2622.5088,-852.5248 2672.6565,-950 2707.416,-1017.5642 2777.8822,-1074.1373 2821.0166,-1104.3566"/>
<polygon fill="#000000" stroke="#000000" points="2819.0418,-1107.2463 2829.2604,-1110.0446 2823.0171,-1101.4846 2819.0418,-1107.2463"/>
</g>
<!-- _27&#45;&gt;_23 -->
<g id="edge138" class="edge">
<title>_27&#45;&gt;_23</title>
<path fill="none" stroke="#000000" d="M2077.7649,-408.793C2125.8649,-424.76 2190.583,-453.3925 2230.2882,-500 2253.5059,-527.2538 2406.0234,-1045.5354 2443.2751,-1172.9083"/>
<polygon fill="#000000" stroke="#000000" points="2439.9733,-1174.0876 2446.1381,-1182.7042 2446.6922,-1172.1238 2439.9733,-1174.0876"/>
</g>
<!-- _28&#45;&gt;_22 -->
<g id="edge30" class="edge">
<title>_28&#45;&gt;_22</title>
<path fill="none" stroke="#000000" d="M1697.4523,-1467.5997C1720.1259,-1471.1717 1742.8744,-1476.1389 1764.002,-1483 1781.6196,-1488.7212 1782.1207,-1499.1658 1800.002,-1504 2158.9618,-1601.0445 2313.9654,-1688.7708 2636.6565,-1504 2772.1983,-1426.3896 2832.6156,-1229.5966 2850.9521,-1156.184"/>
<polygon fill="#000000" stroke="#000000" points="2854.3993,-1156.8201 2853.3561,-1146.2767 2847.5967,-1155.1694 2854.3993,-1156.8201"/>
</g>
<!-- _28&#45;&gt;_23 -->
<g id="edge31" class="edge">
<title>_28&#45;&gt;_23</title>
<path fill="none" stroke="#000000" d="M1682.7942,-1470.1411C1828.1279,-1474.4296 2053.0754,-1465.6963 2230.2882,-1390 2316.9456,-1352.9843 2394.767,-1269.5436 2430.6081,-1227.0019"/>
<polygon fill="#000000" stroke="#000000" points="2433.5052,-1228.9919 2437.2068,-1219.0647 2428.1224,-1224.5169 2433.5052,-1228.9919"/>
</g>
<!-- _28&#45;&gt;_26 -->
<g id="edge29" class="edge">
<title>_28&#45;&gt;_26</title>
<path fill="none" stroke="#000000" d="M1589.5163,-1442.8159C1643.9843,-1422.609 1724.8177,-1383.3944 1764.002,-1319 1820.5277,-1226.1073 1725.1055,-909.8335 1800.002,-831 1808.7994,-821.7402 1819.0441,-814.4606 1830.1978,-808.7991"/>
<polygon fill="#000000" stroke="#000000" points="1831.7059,-811.958 1839.3276,-804.5986 1828.7801,-805.5987 1831.7059,-811.958"/>
</g>
<!-- _30&#45;&gt;_1 -->
<g id="edge33" class="edge">
<title>_30&#45;&gt;_1</title>
<path fill="none" stroke="#000000" d="M1615.4804,-2214.0585C1665.9235,-2199.83 1727.9078,-2173.727 1764.002,-2127 1822.9613,-2050.6722 1755.9887,-1998.8193 1800.002,-1913 1843.3948,-1828.3906 1931.4899,-1755.8842 1980.4191,-1720.0093"/>
<polygon fill="#000000" stroke="#000000" points="1982.7429,-1722.648 1988.7907,-1713.9489 1978.6381,-1716.9778 1982.7429,-1722.648"/>
</g>
<!-- _30&#45;&gt;_22 -->
<g id="edge35" class="edge">
<title>_30&#45;&gt;_22</title>
<path fill="none" stroke="#000000" d="M1625.1632,-2245.4352C1860.5569,-2283.392 2484.0096,-2369.4176 2636.6565,-2244 2811.7596,-2100.1319 2850.2665,-1317.3555 2856.3636,-1156.7911"/>
<polygon fill="#000000" stroke="#000000" points="2859.8786,-1156.4448 2856.748,-1146.323 2852.8833,-1156.1878 2859.8786,-1156.4448"/>
</g>
<!-- _30&#45;&gt;_23 -->
<g id="edge36" class="edge">
<title>_30&#45;&gt;_23</title>
<path fill="none" stroke="#000000" d="M1685.4339,-2221.0491C1883.8697,-2208.6214 2210.0302,-2185.675 2230.2882,-2168 2377.9455,-2039.1698 2437.8697,-1375.2319 2449.3579,-1229.3604"/>
<polygon fill="#000000" stroke="#000000" points="2452.8751,-1229.2736 2450.1579,-1219.0331 2445.896,-1228.733 2452.8751,-1229.2736"/>
</g>
<!-- _30&#45;&gt;_24 -->
<g id="edge32" class="edge">
<title>_30&#45;&gt;_24</title>
<path fill="none" stroke="#000000" d="M1681.477,-2239.6006C1857.2377,-2248.5095 2139.2493,-2253.8429 2230.2882,-2204 2508.2897,-2051.7969 2531.5823,-1917.0151 2636.6565,-1618 2674.8375,-1509.3461 2623.9493,-1205.3603 2672.6565,-1101 2704.7026,-1032.3377 2775.7396,-976.3127 2819.7774,-946.46"/>
<polygon fill="#000000" stroke="#000000" points="2821.8256,-949.3011 2828.2054,-940.8424 2817.9432,-943.4763 2821.8256,-949.3011"/>
</g>
<!-- _30&#45;&gt;_31 -->
<g id="edge34" class="edge">
<title>_30&#45;&gt;_31</title>
<path fill="none" stroke="#000000" d="M1621.845,-2214.3944C1672.2784,-2200.4873 1731.9287,-2174.6117 1764.002,-2127 1824.631,-2036.9982 1764.3127,-1253.4816 1800.002,-1151 1839.601,-1037.2915 1939.6761,-930.3267 1988.0882,-883.213"/>
<polygon fill="#000000" stroke="#000000" points="1990.6225,-885.6315 1995.3973,-876.1736 1985.7666,-880.5896 1990.6225,-885.6315"/>
</g>
<!-- _36 -->
<g id="node37" class="node">
<title>_36</title>
<ellipse fill="#afeeee" stroke="#afeeee" cx="2451.4723" cy="-18" rx="183.9149" ry="18"/>
<text text-anchor="middle" x="2451.4723" y="-13.8" font-family="Times,serif" font-size="14.00" fill="#000000">github.com/goreleaser/goreleaser/pkg/archive/tar</text>
</g>
<!-- _33&#45;&gt;_36 -->
<g id="edge135" class="edge">
<title>_33&#45;&gt;_36</title>
<path fill="none" stroke="#000000" d="M2126.3778,-58.2338C2187.732,-50.6406 2264.0764,-41.1922 2327.3619,-33.3599"/>
<polygon fill="#000000" stroke="#000000" points="2327.908,-36.8191 2337.4024,-32.1173 2327.0482,-29.8721 2327.908,-36.8191"/>
</g>
<!-- _37 -->
<g id="node38" class="node">
<title>_37</title>
<ellipse fill="#afeeee" stroke="#afeeee" cx="2451.4723" cy="-72" rx="185.3685" ry="18"/>
<text text-anchor="middle" x="2451.4723" y="-67.8" font-family="Times,serif" font-size="14.00" fill="#000000">github.com/goreleaser/goreleaser/pkg/archive/zip</text>
</g>
<!-- _33&#45;&gt;_37 -->
<g id="edge136" class="edge">
<title>_33&#45;&gt;_37</title>
<path fill="none" stroke="#000000" d="M2187.28,-72C2209.8065,-72 2233.0191,-72 2255.8967,-72"/>
<polygon fill="#000000" stroke="#000000" points="2256.0278,-75.5001 2266.0278,-72 2256.0278,-68.5001 2256.0278,-75.5001"/>
</g>
<!-- _34&#45;&gt;_23 -->
<g id="edge101" class="edge">
<title>_34&#45;&gt;_23</title>
<path fill="none" stroke="#000000" d="M2197.3433,-1187.6042C2227.2351,-1189.1798 2258.0534,-1190.8044 2287.4692,-1192.3549"/>
<polygon fill="#000000" stroke="#000000" points="2287.6413,-1195.8688 2297.8117,-1192.9001 2288.0098,-1188.8785 2287.6413,-1195.8688"/>
</g>
<!-- _35&#45;&gt;_23 -->
<g id="edge132" class="edge">
<title>_35&#45;&gt;_23</title>
<path fill="none" stroke="#000000" d="M1247.6094,-1260.7059C1484.9735,-1266.2445 1886.6754,-1268.8718 2230.2882,-1238 2274.3475,-1234.0415 2322.8674,-1226.3083 2363.2092,-1218.9308"/>
<polygon fill="#000000" stroke="#000000" points="2364.0863,-1222.328 2373.2817,-1217.0654 2362.8115,-1215.445 2364.0863,-1222.328"/>
</g>
</g>
</svg>
